<?xml version="1.0" encoding="UTF-8"?>
<!DOCTYPE svg PUBLIC "-//W3C//DTD SVG 1.1//EN" "http://www.w3.org/Graphics/SVG/1.1/DTD/svg11.dtd">
<svg xmlns="http://www.w3.org/2000/svg" version="1.1" width="512px" height="512px" style="shape-rendering:geometricPrecision; text-rendering:geometricPrecision; image-rendering:optimizeQuality; fill-rule:evenodd; clip-rule:evenodd" xmlns:xlink="http://www.w3.org/1999/xlink">
<g><path style="opacity:0.968" fill="#000000" d="M 233.5,31.5 C 248.17,31.3334 262.837,31.5001 277.5,32C 282,33.8333 285.167,37 287,41.5C 289.273,51.093 291.773,60.593 294.5,70C 297.284,70.8917 299.95,72.0584 302.5,73.5C 310.666,68.918 318.666,64.0847 326.5,59C 332.675,56.7441 338.675,57.0775 344.5,60C 354.734,69.564 364.234,79.7307 373,90.5C 373.667,94.1667 373.667,97.8333 373,101.5C 368.066,110.609 362.899,119.609 357.5,128.5C 358.978,131.288 360.311,134.122 361.5,137C 372.367,139.383 383.034,142.383 393.5,146C 396.106,147.938 397.939,150.438 399,153.5C 399.667,168.167 399.667,182.833 399,197.5C 397.939,200.562 396.106,203.062 393.5,205C 383.034,208.617 372.367,211.617 361.5,214C 360.105,217.457 358.438,220.791 356.5,224C 344.197,223.772 331.864,223.439 319.5,223C 326.219,212.062 331.719,200.562 336,188.5C 337.833,187.333 339.667,186.167 341.5,185C 349.882,182.988 358.215,180.821 366.5,178.5C 367.833,176.5 367.833,174.5 366.5,172.5C 358.215,170.179 349.882,168.012 341.5,166C 337.333,164.5 334.5,161.667 333,157.5C 330.771,149.041 327.437,141.041 323,133.5C 322.333,129.5 322.333,125.5 323,121.5C 327.374,113.917 331.874,106.417 336.5,99C 335,97.5 333.5,96 332,94.5C 324.583,99.1258 317.083,103.626 309.5,108C 305.5,108.667 301.5,108.667 297.5,108C 287.699,103.295 277.866,98.7949 268,94.5C 267,92.8333 266,91.1667 265,89.5C 263,81.5 261,73.5 259,65.5C 256.667,62.8333 254.333,62.8333 252,65.5C 250,73.5 248,81.5 246,89.5C 244.167,93.3333 241.333,96.1667 237.5,98C 229.041,100.229 221.041,103.563 213.5,108C 209.5,108.667 205.5,108.667 201.5,108C 193.917,103.626 186.417,99.1258 179,94.5C 177.5,96 176,97.5 174.5,99C 179.126,106.417 183.626,113.917 188,121.5C 188.667,125.5 188.667,129.5 188,133.5C 183.34,142.659 179.174,151.992 175.5,161.5C 173.641,163.192 171.641,164.692 169.5,166C 161.118,168.012 152.785,170.179 144.5,172.5C 143.167,174.5 143.167,176.5 144.5,178.5C 152.785,180.821 161.118,182.988 169.5,185C 171.333,186.167 173.167,187.333 175,188.5C 179.281,200.562 184.781,212.062 191.5,223C 179.136,223.439 166.803,223.772 154.5,224C 152.562,220.791 150.895,217.457 149.5,214C 140.167,211.667 130.833,209.333 121.5,207C 117,205.167 113.833,202 112,197.5C 111.333,182.833 111.333,168.167 112,153.5C 113.833,149 117,145.833 121.5,144C 130.833,141.667 140.167,139.333 149.5,137C 150.689,134.122 152.022,131.288 153.5,128.5C 148.101,119.609 142.934,110.609 138,101.5C 136.932,96.2317 137.599,91.2317 140,86.5C 149.564,76.2664 159.731,66.7664 170.5,58C 175.257,57.1902 179.924,57.5236 184.5,59C 192.334,64.0847 200.334,68.918 208.5,73.5C 211.05,72.0584 213.716,70.8917 216.5,70C 219.277,59.0591 222.444,48.2258 226,37.5C 228.114,34.8792 230.614,32.8792 233.5,31.5 Z M 248.5,144.5 C 265.58,142.452 277.746,149.119 285,164.5C 289.771,183.119 283.604,196.619 266.5,205C 247.881,209.771 234.381,203.604 226,186.5C 221.236,165.685 228.736,151.685 248.5,144.5 Z"/></g>
<g><path style="opacity:0.967" fill="#000000" d="M 243.5,111.5 C 277.466,108.224 301.632,121.891 316,152.5C 324.75,179.784 318.916,203.284 298.5,223C 269.833,223.667 241.167,223.667 212.5,223C 192.084,203.284 186.25,179.784 195,152.5C 204.221,130.492 220.388,116.825 243.5,111.5 Z M 248.5,144.5 C 228.736,151.685 221.236,165.685 226,186.5C 234.381,203.604 247.881,209.771 266.5,205C 283.604,196.619 289.771,183.119 285,164.5C 277.746,149.119 265.58,142.452 248.5,144.5 Z"/></g>
<g><path style="opacity:0.984" fill="#000000" d="M 149.5,239.5 C 220.167,239.333 290.834,239.5 361.5,240C 381.333,245.167 393.833,257.667 399,277.5C 399.667,294.833 399.667,312.167 399,329.5C 393.833,349.333 381.333,361.833 361.5,367C 331.502,367.5 301.502,367.667 271.5,367.5C 271.5,372.833 271.5,378.167 271.5,383.5C 297.833,378.5 308.5,389.167 303.5,415.5C 331.167,415.5 358.833,415.5 386.5,415.5C 392.287,398.55 403.954,388.05 421.5,384C 449.091,380.621 467.924,391.788 478,417.5C 483.609,441.691 476.109,460.524 455.5,474C 432.176,484.589 411.676,480.756 394,462.5C 390.429,458.025 387.929,453.025 386.5,447.5C 358.833,447.5 331.167,447.5 303.5,447.5C 303.666,454.841 303.5,462.174 303,469.5C 301.167,474 298,477.167 293.5,479C 268.167,479.667 242.833,479.667 217.5,479C 213,477.167 209.833,474 208,469.5C 207.5,462.174 207.334,454.841 207.5,447.5C 180.165,447.333 152.831,447.5 125.5,448C 110.228,477.957 86.8951,486.624 55.5,474C 34.8906,460.524 27.3906,441.691 33,417.5C 43.0761,391.788 61.9094,380.621 89.5,384C 106.714,388.209 118.714,398.543 125.5,415C 152.831,415.5 180.165,415.667 207.5,415.5C 202.5,389.167 213.167,378.5 239.5,383.5C 239.5,378.167 239.5,372.833 239.5,367.5C 209.498,367.667 179.498,367.5 149.5,367C 129.667,361.833 117.167,349.333 112,329.5C 111.052,310.781 111.386,292.114 113,273.5C 119.284,255.711 131.451,244.378 149.5,239.5 Z M 159.5,271.5 C 225.204,271.017 290.87,271.517 356.5,273C 363.053,275.601 366.553,280.434 367,287.5C 367.894,299.882 367.561,312.215 366,324.5C 363.399,331.053 358.566,334.553 351.5,335C 285.797,335.982 220.13,335.649 154.5,334C 150,332.167 146.833,329 145,324.5C 143.439,312.215 143.106,299.882 144,287.5C 145.346,278.322 150.513,272.989 159.5,271.5 Z M 239.5,415.5 C 250.167,415.5 260.833,415.5 271.5,415.5C 271.5,426.167 271.5,436.833 271.5,447.5C 260.833,447.5 250.167,447.5 239.5,447.5C 239.5,436.833 239.5,426.167 239.5,415.5 Z M 74.5,416.5 C 91.7649,416.257 97.5982,424.257 92,440.5C 85.7488,447.011 78.5821,448.177 70.5,444C 63.9893,437.749 62.8227,430.582 67,422.5C 69.1141,419.879 71.6141,417.879 74.5,416.5 Z M 426.5,416.5 C 443.765,416.257 449.598,424.257 444,440.5C 437.749,447.011 430.582,448.177 422.5,444C 415.989,437.749 414.823,430.582 419,422.5C 421.114,419.879 423.614,417.879 426.5,416.5 Z"/></g>
<g><path style="opacity:0.978" fill="#000000" d="M 169.5,287.5 C 189.503,287.333 209.503,287.5 229.5,288C 238.482,292.473 241.649,299.64 239,309.5C 237.167,314 234,317.167 229.5,319C 209.5,319.667 189.5,319.667 169.5,319C 162.513,316.193 159.18,311.027 159.5,303.5C 159.302,295.885 162.635,290.551 169.5,287.5 Z"/></g>
<g><path style="opacity:0.937" fill="#000000" d="M 281.5,287.5 C 300.778,286.61 307.278,295.276 301,313.5C 294.055,320.069 286.222,321.236 277.5,317C 270.931,310.055 269.764,302.222 274,293.5C 276.114,290.879 278.614,288.879 281.5,287.5 Z"/></g>
<g><path style="opacity:0.937" fill="#000000" d="M 329.5,287.5 C 348.778,286.61 355.278,295.276 349,313.5C 342.055,320.069 334.222,321.236 325.5,317C 318.931,310.055 317.764,302.222 322,293.5C 324.114,290.879 326.614,288.879 329.5,287.5 Z"/></g>
</svg>
