<?xml version="1.0" encoding="UTF-8"?>
<!DOCTYPE svg PUBLIC "-//W3C//DTD SVG 1.1//EN" "http://www.w3.org/Graphics/SVG/1.1/DTD/svg11.dtd">
<svg xmlns="http://www.w3.org/2000/svg" version="1.1" width="512px" height="512px" style="shape-rendering:geometricPrecision; text-rendering:geometricPrecision; image-rendering:optimizeQuality; fill-rule:evenodd; clip-rule:evenodd" xmlns:xlink="http://www.w3.org/1999/xlink">
<g><path style="opacity:0.937" fill="#000000" d="M 173.5,-0.5 C 175.833,-0.5 178.167,-0.5 180.5,-0.5C 182.441,0.674125 183.941,2.34079 185,4.5C 188.639,13.1122 192.806,21.4455 197.5,29.5C 207.113,31.2306 216.78,32.7306 226.5,34C 233.042,37.2916 234.542,42.125 231,48.5C 223.53,54.9684 216.364,61.8017 209.5,69C 211.592,78.5522 213.259,88.2189 214.5,98C 214.93,103.739 212.263,106.906 206.5,107.5C 196.281,103.275 186.281,98.6083 176.5,93.5C 167.536,97.9819 158.536,102.482 149.5,107C 142.873,107.712 139.206,104.712 138.5,98C 140.391,88.1616 141.891,78.3283 143,68.5C 135.667,61.1667 128.333,53.8333 121,46.5C 120.333,43.8333 120.333,41.1667 121,38.5C 121.5,36.6667 122.667,35.5 124.5,35C 134.798,32.9339 145.131,31.1005 155.5,29.5C 160.255,20.9905 164.755,12.3238 169,3.5C 170.397,1.92975 171.897,0.596413 173.5,-0.5 Z M 176.5,27.5 C 179.555,33.2681 182.888,38.9347 186.5,44.5C 192.827,46.0463 199.161,47.5463 205.5,49C 200.966,53.1994 196.799,57.6994 193,62.5C 192.47,68.4038 192.97,74.2371 194.5,80C 194.167,80.8333 193.833,81.6667 193.5,82.5C 188.337,79.1685 182.837,76.5018 177,74.5C 171.029,76.7336 165.195,79.4003 159.5,82.5C 159.167,82 158.833,81.5 158.5,81C 159.397,76.2755 160.397,71.6089 161.5,67C 160.751,65.2663 160.251,63.433 160,61.5C 155.887,57.3874 151.721,53.2208 147.5,49C 154.296,47.7925 160.962,46.1259 167.5,44C 170.893,38.713 173.893,33.213 176.5,27.5 Z"/></g>
<g><path style="opacity:0.932" fill="#000000" d="M 480.5,-0.5 C 485.167,-0.5 489.833,-0.5 494.5,-0.5C 502.5,2.83333 508.167,8.5 511.5,16.5C 511.5,21.1667 511.5,25.8333 511.5,30.5C 503.447,47.3544 490.78,51.8544 473.5,44C 462.757,34.209 460.59,22.709 467,9.5C 470.579,4.73071 475.079,1.39738 480.5,-0.5 Z M 484.5,16.5 C 493.85,16.3654 496.517,20.532 492.5,29C 483.956,32.3224 480.123,29.4891 481,20.5C 481.69,18.6498 482.856,17.3164 484.5,16.5 Z"/></g>
<g><path style="opacity:0.933" fill="#000000" d="M 317.5,21.5 C 321.803,20.7962 325.303,22.1295 328,25.5C 334.833,39.1667 341.667,52.8333 348.5,66.5C 364.101,69.3241 379.767,71.8241 395.5,74C 400.777,76.8332 402.277,80.9998 400,86.5C 388.5,98 377,109.5 365.5,121C 369.247,137.314 371.747,153.814 373,170.5C 369.849,175.327 365.682,176.494 360.5,174C 347.287,166.894 333.953,160.06 320.5,153.5C 306.38,160.393 292.38,167.56 278.5,175C 273.619,175.817 270.119,173.983 268,169.5C 269.788,153.269 272.288,137.102 275.5,121C 264.4,109.9 253.233,98.7331 242,87.5C 239.697,82.9617 240.197,78.795 243.5,75C 259.745,71.8696 276.078,69.2029 292.5,67C 299.733,53.367 306.566,39.5337 313,25.5C 314.397,23.9297 315.897,22.5964 317.5,21.5 Z M 319.5,50.5 C 320.376,50.3691 321.043,50.7025 321.5,51.5C 326,60.5 330.5,69.5 335,78.5C 336.167,79.6667 337.333,80.8333 338.5,82C 350.104,84.3789 361.771,86.5455 373.5,88.5C 364.845,96.3225 356.678,104.656 349,113.5C 349.255,125.29 350.755,136.957 353.5,148.5C 353.167,149.167 352.833,149.833 352.5,150.5C 342.071,144.619 331.404,139.285 320.5,134.5C 309.554,139.306 298.888,144.639 288.5,150.5C 288.167,150.167 287.833,149.833 287.5,149.5C 290.419,137.658 291.919,125.658 292,113.5C 284.198,104.697 276.031,96.1966 267.5,88C 279.606,86.5566 291.606,84.5566 303.5,82C 309.498,71.8364 314.832,61.3364 319.5,50.5 Z"/></g>
<g><path style="opacity:1" fill="#000000" d="M 383.5,23.5 C 388.833,23.5 394.167,23.5 399.5,23.5C 399.5,28.8333 399.5,34.1667 399.5,39.5C 394.167,39.5 388.833,39.5 383.5,39.5C 383.5,34.1667 383.5,28.8333 383.5,23.5 Z"/></g>
<g><path style="opacity:1" fill="#000000" d="M 87.5,31.5 C 92.8333,31.5 98.1667,31.5 103.5,31.5C 103.5,36.8333 103.5,42.1667 103.5,47.5C 98.1667,47.5 92.8333,47.5 87.5,47.5C 87.5,42.1667 87.5,36.8333 87.5,31.5 Z"/></g>
<g><path style="opacity:1" fill="#000000" d="M 31.5,39.5 C 36.8333,39.5 42.1667,39.5 47.5,39.5C 47.5,44.8333 47.5,50.1667 47.5,55.5C 42.1667,55.5 36.8333,55.5 31.5,55.5C 31.5,50.1667 31.5,44.8333 31.5,39.5 Z"/></g>
<g><path style="opacity:1" fill="#000000" d="M 479.5,79.5 C 484.833,79.5 490.167,79.5 495.5,79.5C 495.5,84.8333 495.5,90.1667 495.5,95.5C 490.167,95.5 484.833,95.5 479.5,95.5C 479.5,90.1667 479.5,84.8333 479.5,79.5 Z"/></g>
<g><path style="opacity:1" fill="#000000" d="M 431.5,87.5 C 436.833,87.5 442.167,87.5 447.5,87.5C 447.5,92.8333 447.5,98.1667 447.5,103.5C 442.167,103.5 436.833,103.5 431.5,103.5C 431.5,98.1667 431.5,92.8333 431.5,87.5 Z"/></g>
<g><path style="opacity:1" fill="#000000" d="M 63.5,95.5 C 68.8333,95.5 74.1667,95.5 79.5,95.5C 79.5,100.833 79.5,106.167 79.5,111.5C 74.1667,111.5 68.8333,111.5 63.5,111.5C 63.5,106.167 63.5,100.833 63.5,95.5 Z"/></g>
<g><path style="opacity:0.928" fill="#000000" d="M 159.5,111.5 C 180.079,113.233 192.913,124.233 198,144.5C 199.25,149.42 199.75,154.42 199.5,159.5C 193.833,159.5 188.167,159.5 182.5,159.5C 182.91,147.82 178.576,138.32 169.5,131C 166.392,129.241 163.059,128.408 159.5,128.5C 159.5,122.833 159.5,117.167 159.5,111.5 Z"/></g>
<g><path style="opacity:1" fill="#000000" d="M -0.5,127.5 C 4.83333,127.5 10.1667,127.5 15.5,127.5C 15.5,132.833 15.5,138.167 15.5,143.5C 10.1667,143.5 4.83333,143.5 -0.5,143.5C -0.5,138.167 -0.5,132.833 -0.5,127.5 Z"/></g>
<g><path style="opacity:1" fill="#000000" d="M 471.5,127.5 C 476.833,127.5 482.167,127.5 487.5,127.5C 487.5,132.833 487.5,138.167 487.5,143.5C 492.833,143.5 498.167,143.5 503.5,143.5C 503.5,148.833 503.5,154.167 503.5,159.5C 498.167,159.5 492.833,159.5 487.5,159.5C 487.5,164.833 487.5,170.167 487.5,175.5C 482.167,175.5 476.833,175.5 471.5,175.5C 471.5,170.167 471.5,164.833 471.5,159.5C 466.167,159.5 460.833,159.5 455.5,159.5C 455.5,154.167 455.5,148.833 455.5,143.5C 460.833,143.5 466.167,143.5 471.5,143.5C 471.5,138.167 471.5,132.833 471.5,127.5 Z"/></g>
<g><path style="opacity:0.939" fill="#000000" d="M 101.5,135.5 C 105.516,134.9 109.016,135.9 112,138.5C 115.5,145.5 119,152.5 122.5,159.5C 130.374,161.507 138.374,163.007 146.5,164C 153.409,167.063 154.909,171.896 151,178.5C 145.365,183.133 140.032,188.133 135,193.5C 135.226,201.366 136.059,209.2 137.5,217C 137.458,226.131 133.125,229.131 124.5,226C 118.08,222.373 111.58,218.873 105,215.5C 97.8333,219.333 90.6667,223.167 83.5,227C 78.8511,228.011 75.3511,226.511 73,222.5C 73.3396,212.801 74.0062,203.135 75,193.5C 69.9853,188.318 64.8186,183.318 59.5,178.5C 55.5809,173.828 55.9142,169.328 60.5,165C 69.5485,163.304 78.5485,161.47 87.5,159.5C 91,152.5 94.5,145.5 98,138.5C 99.1451,137.364 100.312,136.364 101.5,135.5 Z M 117.5,202.5 C 113.629,200.15 109.462,198.483 105,197.5C 100.512,198.498 96.3455,200.165 92.5,202.5C 93.1667,197.84 93.3334,193.174 93,188.5C 90.5374,185.035 87.7041,181.869 84.5,179C 88.7546,177.789 93.0879,176.622 97.5,175.5C 100.751,172.005 103.251,168.005 105,163.5C 107.167,167.167 109.333,170.833 111.5,174.5C 116.062,176.5 120.729,178 125.5,179C 122.296,181.869 119.463,185.035 117,188.5C 116.667,193.174 116.833,197.84 117.5,202.5 Z"/></g>
<g><path style="opacity:1" fill="#000000" d="M 391.5,135.5 C 396.833,135.5 402.167,135.5 407.5,135.5C 407.5,140.833 407.5,146.167 407.5,151.5C 402.167,151.5 396.833,151.5 391.5,151.5C 391.5,146.167 391.5,140.833 391.5,135.5 Z"/></g>
<g><path style="opacity:0.928" fill="#000000" d="M 247.5,151.5 C 250.167,151.5 252.833,151.5 255.5,151.5C 255.5,157.167 255.5,162.833 255.5,168.5C 244.518,170.305 237.351,176.638 234,187.5C 232.844,191.418 232.344,195.418 232.5,199.5C 226.833,199.5 221.167,199.5 215.5,199.5C 215.164,184.009 220.497,170.843 231.5,160C 236.483,156.344 241.816,153.511 247.5,151.5 Z"/></g>
<g><path style="opacity:0.93" fill="#000000" d="M 316.5,175.5 C 320.167,175.5 323.833,175.5 327.5,175.5C 327.5,181.167 327.5,186.833 327.5,192.5C 305.16,193.757 288.993,204.423 279,224.5C 274.454,234.347 272.288,244.681 272.5,255.5C 266.833,255.5 261.167,255.5 255.5,255.5C 256.4,213.644 276.733,186.977 316.5,175.5 Z"/></g>
<g><path style="opacity:0.938" fill="#000000" d="M 416.5,183.5 C 420.516,182.9 424.016,183.9 427,186.5C 430.118,193.239 433.618,199.739 437.5,206C 445.258,206.87 452.925,208.203 460.5,210C 463.318,213.338 464.151,217.171 463,221.5C 457.5,227 452,232.5 446.5,238C 448.205,244.721 449.538,251.554 450.5,258.5C 449.559,264.948 445.892,267.781 439.5,267C 433.061,263.697 426.561,260.531 420,257.5C 412.672,261.248 405.172,264.581 397.5,267.5C 393.967,266.802 391.467,264.802 390,261.5C 390.136,253.514 391.303,245.681 393.5,238C 388,232.5 382.5,227 377,221.5C 375.072,215.521 376.905,211.354 382.5,209C 389.152,207.907 395.819,206.907 402.5,206C 406.382,199.739 409.882,193.239 413,186.5C 414.145,185.364 415.312,184.364 416.5,183.5 Z M 419.5,211.5 C 421.69,214.688 424.024,217.855 426.5,221C 429.818,221.879 433.152,222.713 436.5,223.5C 433.839,225.33 431.672,227.663 430,230.5C 429.675,234.67 429.509,238.67 429.5,242.5C 426.506,240.753 423.339,239.42 420,238.5C 416.661,239.42 413.494,240.753 410.5,242.5C 410.167,242.167 409.833,241.833 409.5,241.5C 411.986,234.299 410.32,228.299 404.5,223.5C 412.495,223.166 417.495,219.166 419.5,211.5 Z"/></g>
<g><path style="opacity:1" fill="#000000" d="M -0.5,223.5 C -0.5,218.167 -0.5,212.833 -0.5,207.5C 4.83333,207.5 10.1667,207.5 15.5,207.5C 15.5,202.167 15.5,196.833 15.5,191.5C 20.8333,191.5 26.1667,191.5 31.5,191.5C 31.5,196.833 31.5,202.167 31.5,207.5C 36.8333,207.5 42.1667,207.5 47.5,207.5C 47.5,212.833 47.5,218.167 47.5,223.5C 42.1667,223.5 36.8333,223.5 31.5,223.5C 31.5,228.833 31.5,234.167 31.5,239.5C 26.1667,239.5 20.8333,239.5 15.5,239.5C 15.5,234.167 15.5,228.833 15.5,223.5C 10.1667,223.5 4.83333,223.5 -0.5,223.5 Z"/></g>
<g><path style="opacity:0.93" fill="#000000" d="M 151.5,191.5 C 193.775,193.943 223.275,214.61 240,253.5C 245.397,266.986 247.897,280.986 247.5,295.5C 241.833,295.5 236.167,295.5 230.5,295.5C 229.482,252.592 208.815,224.092 168.5,210C 162.888,208.869 157.221,208.369 151.5,208.5C 151.5,202.833 151.5,197.167 151.5,191.5 Z"/></g>
<g><path style="opacity:0.931" fill="#000000" d="M 342.5,215.5 C 345.5,215.5 348.5,215.5 351.5,215.5C 351.5,221.167 351.5,226.833 351.5,232.5C 338.845,233.58 328.679,239.247 321,249.5C 303.834,275.483 295.667,304.15 296.5,335.5C 290.833,335.5 285.167,335.5 279.5,335.5C 278.234,300.884 287.067,269.218 306,240.5C 315.268,227.794 327.435,219.461 342.5,215.5 Z"/></g>
<g><path style="opacity:1" fill="#000000" d="M 95.5,239.5 C 100.833,239.5 106.167,239.5 111.5,239.5C 111.5,244.833 111.5,250.167 111.5,255.5C 106.167,255.5 100.833,255.5 95.5,255.5C 95.5,250.167 95.5,244.833 95.5,239.5 Z"/></g>
<g><path style="opacity:0.963" fill="#000000" d="M 259.5,511.5 C 256.833,511.5 254.167,511.5 251.5,511.5C 225.867,486.7 200.7,461.367 176,435.5C 175.5,370.168 175.333,304.834 175.5,239.5C 180.833,239.5 186.167,239.5 191.5,239.5C 191.333,298.168 191.5,356.834 192,415.5C 196.596,411.619 201.763,408.953 207.5,407.5C 209.634,407.515 211.634,408.015 213.5,409C 219.369,413.097 225.369,416.931 231.5,420.5C 237.631,416.931 243.631,413.097 249.5,409C 253.5,407 257.5,407 261.5,409C 267.369,413.097 273.369,416.931 279.5,420.5C 286.297,416.599 292.963,412.432 299.5,408C 302.167,407.333 304.833,407.333 307.5,408C 311.333,410.5 315.167,413 319,415.5C 319.5,370.168 319.667,324.835 319.5,279.5C 324.833,279.5 330.167,279.5 335.5,279.5C 335.667,331.501 335.5,383.501 335,435.5C 310.3,461.367 285.133,486.7 259.5,511.5 Z M 205.5,426.5 C 212.719,429.185 219.386,433.019 225.5,438C 229.5,440 233.5,440 237.5,438C 243.369,433.903 249.369,430.069 255.5,426.5C 261.631,430.069 267.631,433.903 273.5,438C 277.5,440 281.5,440 285.5,438C 291.369,433.903 297.369,430.069 303.5,426.5C 307.213,428.04 310.547,430.207 313.5,433C 303.5,443 293.5,453 283.5,463C 264.833,463.667 246.167,463.667 227.5,463C 217.5,453 207.5,443 197.5,433C 200.355,430.969 203.022,428.803 205.5,426.5 Z M 244.5,480.5 C 251.655,479.345 258.988,479.178 266.5,480C 262.985,483.682 259.318,487.182 255.5,490.5C 251.813,487.145 248.147,483.811 244.5,480.5 Z"/></g>
<g><path style="opacity:1" fill="#000000" d="M 255.5,271.5 C 260.833,271.5 266.167,271.5 271.5,271.5C 271.5,276.833 271.5,282.167 271.5,287.5C 266.167,287.5 260.833,287.5 255.5,287.5C 255.5,282.167 255.5,276.833 255.5,271.5 Z"/></g>
<g><path style="opacity:1" fill="#000000" d="M 231.5,311.5 C 236.833,311.5 242.167,311.5 247.5,311.5C 247.5,316.833 247.5,322.167 247.5,327.5C 242.167,327.5 236.833,327.5 231.5,327.5C 231.5,322.167 231.5,316.833 231.5,311.5 Z"/></g>
<g><path style="opacity:1" fill="#000000" d="M 231.5,343.5 C 236.833,343.5 242.167,343.5 247.5,343.5C 247.5,348.833 247.5,354.167 247.5,359.5C 242.167,359.5 236.833,359.5 231.5,359.5C 231.5,354.167 231.5,348.833 231.5,343.5 Z"/></g>
<g><path style="opacity:1" fill="#000000" d="M 279.5,351.5 C 284.833,351.5 290.167,351.5 295.5,351.5C 295.5,356.833 295.5,362.167 295.5,367.5C 290.167,367.5 284.833,367.5 279.5,367.5C 279.5,362.167 279.5,356.833 279.5,351.5 Z"/></g>
<g><path style="opacity:1" fill="#000000" d="M 231.5,375.5 C 236.833,375.5 242.167,375.5 247.5,375.5C 247.5,380.833 247.5,386.167 247.5,391.5C 242.167,391.5 236.833,391.5 231.5,391.5C 231.5,386.167 231.5,380.833 231.5,375.5 Z"/></g>
</svg>
