<?xml version="1.0" standalone="no"?>
<!DOCTYPE svg PUBLIC "-//W3C//DTD SVG 20010904//EN"
 "http://www.w3.org/TR/2001/REC-SVG-20010904/DTD/svg10.dtd">
<svg version="1.0" xmlns="http://www.w3.org/2000/svg"
 width="512.000000pt" height="512.000000pt" viewBox="0 0 512.000000 512.000000"
 preserveAspectRatio="xMidYMid meet">

<g transform="translate(0.000000,512.000000) scale(0.100000,-0.100000)"
fill="#000000" stroke="none">
<path d="M690 4796 c-267 -56 -493 -237 -609 -488 -82 -177 -76 -33 -76 -1748
0 -1455 1 -1528 19 -1595 87 -328 351 -579 674 -641 62 -12 368 -14 1883 -14
l1810 0 24 25 25 24 0 236 0 235 319 0 320 0 20 26 c44 56 46 54 -319 419
l-340 340 0 1096 c0 1094 0 1096 -21 1123 l-20 26 -310 0 -309 0 0 82 0 83
-137 238 c-75 131 -146 245 -157 253 -28 19 -70 18 -94 -3 -11 -10 -80 -121
-153 -248 l-133 -230 -4 -87 -4 -88 -451 0 -451 0 -175 174 c-97 96 -186 177
-198 180 -24 8 -61 -8 -80 -33 -8 -11 -12 -64 -13 -169 l0 -152 -197 2 -198 3
-5 401 c-4 300 -8 405 -17 416 -17 20 -137 75 -220 100 -88 26 -308 34 -403
14z m343 -165 c42 -11 90 -27 106 -36 l31 -16 0 -1300 0 -1301 -22 6 c-13 4
-50 14 -83 24 -95 27 -326 24 -428 -6 -157 -45 -300 -133 -411 -253 l-67 -72
3 1204 3 1204 28 80 c80 226 241 386 457 454 85 26 98 28 211 30 66 1 119 -5
172 -18z m2527 -547 c0 -2 -52 -4 -115 -4 -74 0 -115 4 -115 11 0 5 25 53 56
105 l56 95 59 -101 c32 -56 59 -103 59 -106z m-190 -1619 l1475 -1475 -1478 0
-1477 0 0 130 0 130 67 0 c55 0 71 4 90 22 32 30 31 81 -2 113 -21 22 -33 25
-90 25 l-65 0 0 95 0 95 55 0 c60 0 109 19 119 45 12 32 6 75 -14 95 -16 16
-33 20 -90 20 l-70 0 0 100 0 100 64 0 c82 0 116 23 116 80 0 57 -34 80 -116
80 l-64 0 0 95 0 95 49 0 c92 0 131 26 131 89 0 52 -29 71 -110 71 l-70 0 0
100 0 100 64 0 c82 0 116 23 116 80 0 57 -34 80 -116 80 l-64 0 0 100 0 100
70 0 c57 0 74 4 90 20 20 20 26 63 14 95 -10 26 -59 45 -119 45 l-55 0 0 95 0
95 65 0 c57 0 69 3 90 25 32 31 33 80 3 112 -18 20 -31 23 -90 23 l-68 0 0
200 c0 110 1 200 3 200 1 0 666 -664 1477 -1475z m-10 843 l0 -612 -50 49 -50
49 0 563 0 563 50 0 50 0 0 -612z m260 -130 l0 -742 -50 49 -50 49 0 693 0
693 50 0 50 0 0 -742z m-1890 -887 l0 -1408 21 -27 20 -26 1255 0 1254 0 0
-180 0 -180 -1753 0 c-1719 0 -1755 0 -1833 20 -469 118 -681 655 -419 1060
46 71 128 156 197 203 195 133 471 154 686 52 86 -41 117 -43 149 -13 l23 21
0 944 0 943 200 0 200 0 0 -1409z m1370 1039 c0 -203 -1 -370 -3 -370 -1 0
-169 167 -372 370 l-370 370 373 0 372 0 0 -370z m1180 -592 l0 -963 -250 250
-250 250 0 712 0 713 250 0 250 0 0 -962z"/>
<path d="M2235 3035 l-25 -24 0 -829 0 -829 26 -24 26 -24 786 -3 c433 -2 806
0 830 3 56 8 82 34 82 82 0 36 -27 64 -802 841 -442 442 -815 810 -830 818
-39 20 -66 17 -93 -11z m1445 -1567 c0 -5 -295 -8 -655 -8 l-655 0 0 662 0
663 655 -655 c360 -360 655 -658 655 -662z"/>
</g>
</svg>
