<?xml version="1.0" standalone="no"?>
<!DOCTYPE svg PUBLIC "-//W3C//DTD SVG 20010904//EN"
 "http://www.w3.org/TR/2001/REC-SVG-20010904/DTD/svg10.dtd">
<svg version="1.0" xmlns="http://www.w3.org/2000/svg"
 width="512.000000pt" height="512.000000pt" viewBox="0 0 512.000000 512.000000"
 preserveAspectRatio="xMidYMid meet">

<g transform="translate(0.000000,512.000000) scale(0.100000,-0.100000)"
fill="#000000" stroke="none">
<path d="M1803 4630 l-1253 -5 -37 -38 -38 -37 -3 -1801 -2 -1801 21 -34 c45
-73 -19 -69 988 -72 986 -3 951 -5 951 53 0 58 51 55 -930 53 -715 -1 -902 2
-915 12 -13 11 -15 165 -15 1405 l0 1392 398 6 c218 4 1044 7 1835 7 l1437 0
0 -474 c0 -418 2 -476 16 -490 20 -20 48 -20 68 0 15 14 16 101 14 874 -3 855
-3 859 -24 887 -48 64 -20 62 -669 65 -325 2 -1154 2 -1842 -2z m2415 -112 c9
-9 12 -96 12 -330 l0 -318 -1830 0 -1830 0 0 314 c0 273 2 317 16 330 14 14
193 16 1818 16 1388 0 1805 -3 1814 -12z"/>
<path d="M1432 3598 c-19 -19 -15 -66 7 -78 11 -5 64 -10 119 -10 83 0 104 3
123 19 20 16 22 23 14 47 l-10 29 -120 3 c-85 2 -124 -1 -133 -10z"/>
<path d="M1438 3399 c-21 -12 -24 -59 -6 -77 9 -9 117 -12 424 -12 362 0 415
2 428 16 21 21 20 47 -2 67 -17 15 -60 17 -423 17 -256 0 -410 -4 -421 -11z"/>
<path d="M2457 3392 c-21 -23 -22 -46 -1 -66 14 -14 69 -16 458 -16 330 0 445
3 454 12 19 19 15 66 -7 78 -13 6 -174 10 -454 10 -408 0 -435 -1 -450 -18z"/>
<path d="M1443 3200 c-26 -10 -32 -57 -11 -78 19 -19 442 -17 458 2 18 22 8
59 -20 73 -30 15 -391 17 -427 3z"/>
<path d="M2070 3197 c-28 -14 -38 -51 -20 -73 11 -12 82 -14 459 -14 470 0
471 0 471 44 -1 52 13 51 -452 54 -336 1 -439 -1 -458 -11z"/>
<path d="M1432 2988 c-19 -19 -15 -66 7 -78 13 -6 164 -10 424 -10 379 0 405
1 420 18 21 23 22 46 1 66 -13 14 -66 16 -428 16 -307 0 -415 -3 -424 -12z"/>
<path d="M2456 2984 c-21 -21 -20 -47 2 -67 17 -15 63 -17 451 -17 279 0 439
4 452 10 22 12 26 59 7 78 -9 9 -124 12 -454 12 -389 0 -444 -2 -458 -16z"/>
<path d="M3450 2818 c-57 -30 -74 -66 -97 -202 l-18 -109 -57 -24 -56 -25 -98
70 c-166 119 -189 114 -371 -71 -178 -180 -180 -196 -52 -372 l61 -85 -24 -57
-25 -57 -119 -21 c-132 -23 -160 -36 -193 -95 -21 -38 -22 -49 -19 -224 3
-168 5 -187 24 -212 36 -49 66 -63 169 -79 55 -9 109 -20 120 -24 11 -5 29
-31 41 -58 l21 -50 -69 -96 c-117 -163 -112 -191 75 -374 180 -177 200 -180
366 -58 l92 67 57 -24 56 -25 21 -119 c23 -135 38 -164 99 -194 37 -18 61 -20
207 -20 250 1 275 19 306 220 l18 113 57 24 56 25 98 -70 c165 -119 183 -116
365 67 119 118 138 141 143 176 9 59 -5 95 -79 196 l-67 91 25 56 24 57 114
18 c133 21 164 36 196 96 21 41 23 56 23 210 0 153 -2 170 -22 211 -31 60 -64
76 -198 98 l-114 18 -23 57 -23 56 69 98 c118 167 116 181 -62 360 -184 186
-204 190 -368 73 l-100 -72 -57 25 -57 24 -20 119 c-33 198 -56 214 -308 214
-149 0 -166 -2 -207 -22z m389 -106 c5 -10 19 -74 30 -141 12 -74 26 -130 35
-140 9 -10 35 -24 59 -31 23 -7 59 -21 79 -31 21 -11 48 -19 61 -19 14 0 67
31 128 75 57 41 113 75 124 75 26 0 245 -218 245 -244 0 -10 -33 -64 -72 -120
-40 -55 -76 -108 -80 -117 -4 -9 4 -39 17 -68 14 -28 30 -69 36 -91 7 -22 20
-47 30 -56 10 -9 67 -23 146 -36 70 -11 134 -25 141 -30 9 -8 12 -56 12 -179
0 -150 -2 -169 -17 -178 -10 -5 -67 -16 -128 -26 -161 -24 -154 -19 -202 -138
-47 -119 -50 -103 51 -241 36 -50 66 -99 66 -110 0 -27 -217 -246 -244 -246
-11 0 -66 34 -124 76 -58 42 -115 76 -126 76 -12 0 -63 -17 -113 -38 -107 -44
-101 -35 -128 -204 -10 -58 -21 -113 -27 -122 -8 -16 -27 -18 -178 -18 -151 0
-170 2 -179 18 -5 9 -16 67 -26 127 -25 161 -21 155 -128 199 -51 21 -101 38
-113 38 -11 0 -68 -34 -126 -76 -58 -42 -113 -76 -124 -76 -26 0 -244 219
-244 245 0 12 34 67 76 124 41 57 76 110 76 119 2 18 -69 201 -82 215 -4 4
-63 17 -131 28 -186 29 -169 8 -169 208 0 123 3 171 13 179 6 5 70 19 141 30
74 12 135 27 143 35 18 18 84 175 85 203 0 11 -34 68 -76 126 -42 57 -76 113
-76 124 0 26 219 244 245 244 11 0 67 -34 124 -75 61 -44 114 -75 128 -75 13
0 40 8 61 19 20 10 56 24 79 31 64 19 73 36 94 167 29 179 8 163 208 163 154
0 171 -2 180 -18z"/>
<path d="M3533 2096 c-151 -37 -299 -156 -366 -296 -106 -222 -57 -477 122
-642 72 -67 139 -103 237 -128 98 -25 170 -25 268 0 107 27 169 63 252 145
128 126 182 288 156 466 -31 217 -202 404 -414 454 -76 18 -184 18 -255 1z
m197 -97 c189 -30 339 -181 370 -372 21 -134 -20 -265 -114 -365 -95 -101
-191 -143 -326 -143 -130 -1 -234 44 -321 138 -50 53 -77 94 -95 145 -104 289
93 584 406 607 8 0 44 -4 80 -10z"/>
<path d="M1438 2789 c-21 -12 -24 -62 -4 -78 9 -8 79 -11 232 -9 l219 3 9 27
c8 22 6 32 -9 48 -17 19 -30 20 -224 20 -121 0 -213 -5 -223 -11z"/>
<path d="M2055 2780 c-15 -16 -17 -26 -9 -48 l9 -27 449 -3 c323 -1 453 1 462
9 21 17 17 66 -5 79 -13 6 -174 10 -454 10 -423 0 -434 0 -452 -20z"/>
</g>
</svg>
