<?xml version="1.0" encoding="UTF-8"?>
<!DOCTYPE svg PUBLIC "-//W3C//DTD SVG 1.1//EN" "http://www.w3.org/Graphics/SVG/1.1/DTD/svg11.dtd">
<svg xmlns="http://www.w3.org/2000/svg" version="1.1" width="512px" height="512px" style="shape-rendering:geometricPrecision; text-rendering:geometricPrecision; image-rendering:optimizeQuality; fill-rule:evenodd; clip-rule:evenodd" xmlns:xlink="http://www.w3.org/1999/xlink">
<g><path style="opacity:0.884" fill="#000000" d="M 324.5,22.5 C 334.074,21.0785 341.907,24.0785 348,31.5C 355.642,50.764 363.476,69.9307 371.5,89C 399.187,88.0153 411.687,101.182 409,128.5C 406.561,136.268 401.894,142.268 395,146.5C 394.48,148.289 394.813,149.956 396,151.5C 422.181,171.592 448.181,191.925 474,212.5C 474.667,295.5 474.667,378.5 474,461.5C 470.491,475.676 461.658,484.509 447.5,488C 319.5,488.667 191.5,488.667 63.5,488C 49.3422,484.509 40.5088,475.676 37,461.5C 36.3333,378.5 36.3333,295.5 37,212.5C 101.167,162.333 165.333,112.167 229.5,62C 246.8,52.1211 264.134,52.1211 281.5,62C 287.291,66.1218 292.791,70.6218 298,75.5C 303.387,68.5639 307.887,61.0639 311.5,53C 306.451,38.6167 310.784,28.45 324.5,22.5 Z M 325.5,30.5 C 332.656,29.1664 338.156,31.4997 342,37.5C 363.39,91.9459 385.056,146.279 407,200.5C 408.921,209.162 405.754,214.995 397.5,218C 390.966,218.816 386.132,216.316 383,210.5C 361.333,156.167 339.667,101.833 318,47.5C 316.16,39.8507 318.66,34.184 325.5,30.5 Z M 249.5,62.5 C 257.093,62.052 264.426,63.2187 271.5,66C 278.516,70.1742 285.183,74.8409 291.5,80C 292.451,80.7175 292.617,81.5509 292,82.5C 281.834,92.658 270.667,101.491 258.5,109C 229.116,122.466 199.783,136.133 170.5,150C 149.984,167.252 146.151,187.752 159,211.5C 175.101,230.77 194.601,235.103 217.5,224.5C 232.494,252.486 246.994,280.82 261,309.5C 265.14,314.211 270.306,315.711 276.5,314C 290.543,306.065 295.376,294.231 291,278.5C 279.167,254.833 267.333,231.167 255.5,207.5C 284.476,198.004 314.143,194.837 344.5,198C 355.213,199.68 365.046,203.513 374,209.5C 378.57,222.867 387.736,228.034 401.5,225C 412.677,220.15 417.177,211.65 415,199.5C 410.571,188.865 406.571,178.199 403,167.5C 423.5,183.333 444,199.167 464.5,215C 402.214,262.951 340.214,311.285 278.5,360C 263.154,369.998 247.821,369.998 232.5,360C 170.786,311.285 108.786,262.951 46.5,215C 109.5,166 172.5,117 235.5,68C 240.046,65.5453 244.712,63.712 249.5,62.5 Z M 314.5,64.5 C 315.75,64.5774 316.583,65.244 317,66.5C 334.167,109.5 351.333,152.5 368.5,195.5C 368.167,195.833 367.833,196.167 367.5,196.5C 353.211,190.979 338.378,188.313 323,188.5C 299.044,189.298 275.544,192.965 252.5,199.5C 241.053,178.94 230.386,157.94 220.5,136.5C 234.558,129.972 248.558,123.139 262.5,116C 278.426,107.079 292.259,95.579 304,81.5C 308.023,76.1123 311.523,70.4456 314.5,64.5 Z M 246.5,209.5 C 259.481,233.459 271.981,257.792 284,282.5C 286.211,292.571 283.044,300.404 274.5,306C 272.231,306.758 270.064,306.591 268,305.5C 253.961,277.256 239.795,249.089 225.5,221C 232.562,217.139 239.562,213.305 246.5,209.5 Z M 44.5,223.5 C 104.803,270.658 165.136,317.825 225.5,365C 245.455,378.805 265.455,378.805 285.5,365C 345.757,317.954 405.924,270.787 466,223.5C 466.667,302.5 466.667,381.5 466,460.5C 462.833,470.333 456.333,476.833 446.5,480C 319.167,480.667 191.833,480.667 64.5,480C 54.6667,476.833 48.1667,470.333 45,460.5C 44.5,381.501 44.3333,302.501 44.5,223.5 Z"/></g>
<g><path style="opacity:0.817" fill="#000000" d="M 399.5,53.5 C 400.93,53.4208 402.264,53.7542 403.5,54.5C 404.647,56.7649 404.814,59.0982 404,61.5C 401.195,68.9138 398.195,76.2471 395,83.5C 389.55,85.2773 387.55,83.2773 389,77.5C 391.852,69.0746 395.352,61.0746 399.5,53.5 Z"/></g>
<g><path style="opacity:0.829" fill="#000000" d="M 443.5,86.5 C 448.983,85.8069 450.983,87.9735 449.5,93C 439.582,97.5279 429.582,101.861 419.5,106C 413.752,107.191 412.086,105.024 414.5,99.5C 424.375,95.3912 434.042,91.0578 443.5,86.5 Z"/></g>
<g><path style="opacity:0.833" fill="#000000" d="M 420.5,129.5 C 429.748,131.437 438.914,133.77 448,136.5C 450.045,137.638 450.712,139.305 450,141.5C 447.53,143.487 444.697,143.987 441.5,143C 434.455,141.155 427.455,139.155 420.5,137C 417.914,134.506 417.914,132.006 420.5,129.5 Z"/></g>
</svg>
