<?xml version="1.0" encoding="UTF-8"?>
<!DOCTYPE svg PUBLIC "-//W3C//DTD SVG 1.1//EN" "http://www.w3.org/Graphics/SVG/1.1/DTD/svg11.dtd">
<svg xmlns="http://www.w3.org/2000/svg" version="1.1" width="512px" height="512px" style="shape-rendering:geometricPrecision; text-rendering:geometricPrecision; image-rendering:optimizeQuality; fill-rule:evenodd; clip-rule:evenodd" xmlns:xlink="http://www.w3.org/1999/xlink">
<g><path style="opacity:0.986" fill="#000000" d="M 131.5,-0.5 C 214.167,-0.5 296.833,-0.5 379.5,-0.5C 441.274,9.43284 483.107,43.7662 505,102.5C 507.677,112.195 509.844,121.862 511.5,131.5C 511.5,203.833 511.5,276.167 511.5,348.5C 506.751,360.045 498.084,364.545 485.5,362C 478.333,360.167 473.833,355.667 472,348.5C 471.667,281.833 471.333,215.167 471,148.5C 467.766,95.829 441.266,60.9957 391.5,44C 382,41.4722 372.333,40.1389 362.5,40C 286.485,39.0437 210.485,39.377 134.5,41C 84.5398,49.9605 53.7064,79.1272 42,128.5C 40.9552,135.125 40.2886,141.792 40,148.5C 39.0437,224.515 39.377,300.515 41,376.5C 50.8333,429 82,460.167 134.5,470C 210.485,471.623 286.485,471.956 362.5,471C 387.515,470.838 409.848,463.171 429.5,448C 438.554,440.279 446.888,431.946 454.5,423C 468.496,416.995 478.663,420.829 485,434.5C 486.769,442.39 485.102,449.39 480,455.5C 453.919,486.79 420.753,505.456 380.5,511.5C 297.5,511.5 214.5,511.5 131.5,511.5C 69.726,501.567 27.8927,467.234 6,408.5C 3.32272,398.805 1.15605,389.138 -0.5,379.5C -0.5,296.833 -0.5,214.167 -0.5,131.5C 9.43284,69.726 43.7662,27.8927 102.5,6C 112.195,3.32272 121.862,1.15605 131.5,-0.5 Z M 242.5,158.5 C 285.648,155.352 318.481,172.019 341,208.5C 362.098,254.42 354.598,294.92 318.5,330C 284.169,355.839 247.502,359.506 208.5,341C 166.994,314.463 151.494,276.963 162,228.5C 175.097,189.228 201.931,165.895 242.5,158.5 Z"/></g>
<g><path style="opacity:0.95" fill="#000000" d="M 389.5,95.5 C 410.319,94.4691 418.486,104.136 414,124.5C 407.547,134.986 398.38,138.153 386.5,134C 376.014,127.547 372.847,118.38 377,106.5C 379.708,101.079 383.875,97.4127 389.5,95.5 Z"/></g>
<g><path style="opacity:0.971" fill="#000000" d="M 239.5,117.5 C 299.88,113.603 345.713,137.27 377,188.5C 399,233.167 399,277.833 377,322.5C 345.736,373.884 299.903,397.384 239.5,393C 179.748,383.583 140.582,350.083 122,292.5C 109.088,235.91 123.921,188.077 166.5,149C 188.008,131.912 212.341,121.412 239.5,117.5 Z M 242.5,158.5 C 201.931,165.895 175.097,189.228 162,228.5C 151.494,276.963 166.994,314.463 208.5,341C 247.502,359.506 284.169,355.839 318.5,330C 354.598,294.92 362.098,254.42 341,208.5C 318.481,172.019 285.648,155.352 242.5,158.5 Z"/></g>
</svg>
