<?xml version="1.0" encoding="UTF-8"?>
<!DOCTYPE svg PUBLIC "-//W3C//DTD SVG 1.1//EN" "http://www.w3.org/Graphics/SVG/1.1/DTD/svg11.dtd">
<svg xmlns="http://www.w3.org/2000/svg" version="1.1" width="32px" height="32px" style="shape-rendering:geometricPrecision; text-rendering:geometricPrecision; image-rendering:optimizeQuality; fill-rule:evenodd; clip-rule:evenodd" xmlns:xlink="http://www.w3.org/1999/xlink">
<g><path style="opacity:1" fill="#a27aa4" d="M 5.5,1.5 C 9.63441,0.515112 13.9677,0.181778 18.5,0.5C 19.1667,1.5 19.8333,2.5 20.5,3.5C 17.5,3.5 14.5,3.5 11.5,3.5C 9.69764,2.5418 7.69764,1.87513 5.5,1.5 Z"/></g>
<g><path style="opacity:1" fill="#c8809e" d="M 5.5,1.5 C 7.69764,1.87513 9.69764,2.5418 11.5,3.5C 8.21184,3.01558 5.54517,4.01558 3.5,6.5C 2.5,6.5 1.5,6.5 0.5,6.5C 1.18936,3.81057 2.85603,2.1439 5.5,1.5 Z"/></g>
<g><path style="opacity:1" fill="#fdfcfc" d="M 11.5,3.5 C 14.5,3.5 17.5,3.5 20.5,3.5C 25.1667,3.5 27.5,5.83333 27.5,10.5C 27.5,14.8333 27.5,19.1667 27.5,23.5C 26.5,24.8333 25.5,26.1667 24.5,27.5C 21.1667,27.5 17.8333,27.5 14.5,27.5C 11.8127,27.6641 9.14603,27.4974 6.5,27C 4.39297,25.7365 3.39297,23.9032 3.5,21.5C 3.5,18.8333 3.5,16.1667 3.5,13.5C 3.5,11.1667 3.5,8.83333 3.5,6.5C 5.54517,4.01558 8.21184,3.01558 11.5,3.5 Z"/></g>
<g><path style="opacity:0.663" fill="#6470b0" d="M 18.5,0.5 C 27.9957,-0.335567 31.9957,3.99777 30.5,13.5C 29.7281,12.3065 28.7281,11.3065 27.5,10.5C 27.5,5.83333 25.1667,3.5 20.5,3.5C 19.8333,2.5 19.1667,1.5 18.5,0.5 Z"/></g>
<g><path style="opacity:1" fill="#9571a1" d="M 22.5,6.5 C 24.337,6.63945 24.6704,7.30612 23.5,8.5C 22.7025,8.04311 22.3691,7.37644 22.5,6.5 Z"/></g>
<g><path style="opacity:1" fill="#d27c97" d="M 12.5,8.5 C 20.8333,6.83333 24.1667,10.1667 22.5,18.5C 22.6567,17.1266 22.49,15.7932 22,14.5C 21.7216,15.4158 21.2216,16.0825 20.5,16.5C 20.8333,12.1667 18.8333,10.1667 14.5,10.5C 14.5,9.16667 13.8333,8.5 12.5,8.5 Z"/></g>
<g><path style="opacity:1" fill="#fefafa" d="M 14.5,10.5 C 18.8333,10.1667 20.8333,12.1667 20.5,16.5C 20.2671,18.0618 19.6005,19.3951 18.5,20.5C 13.164,21.8155 10.4974,19.8155 10.5,14.5C 10.8333,12.1667 12.1667,10.8333 14.5,10.5 Z"/></g>
<g><path style="opacity:0.902" fill="#f38582" d="M 0.5,6.5 C 1.5,6.5 2.5,6.5 3.5,6.5C 3.5,8.83333 3.5,11.1667 3.5,13.5C 2.5,13.5 1.5,13.5 0.5,13.5C 0.5,11.1667 0.5,8.83333 0.5,6.5 Z"/></g>
<g><path style="opacity:1" fill="#f18284" d="M 12.5,8.5 C 13.8333,8.5 14.5,9.16667 14.5,10.5C 12.1667,10.8333 10.8333,12.1667 10.5,14.5C 9.16667,14.5 8.5,13.8333 8.5,12.5C 8.83333,10.1667 10.1667,8.83333 12.5,8.5 Z"/></g>
<g><path style="opacity:1" fill="#f69777" d="M 8.5,12.5 C 8.5,13.8333 9.16667,14.5 10.5,14.5C 10.4974,19.8155 13.164,21.8155 18.5,20.5C 19.3382,20.8417 19.6716,21.5084 19.5,22.5C 10.5786,24.5722 6.91189,21.2388 8.5,12.5 Z"/></g>
<g><path style="opacity:1" fill="#ef7583" d="M 22.5,18.5 C 22.2624,20.4044 21.2624,21.7377 19.5,22.5C 19.6716,21.5084 19.3382,20.8417 18.5,20.5C 19.6005,19.3951 20.2671,18.0618 20.5,16.5C 21.2216,16.0825 21.7216,15.4158 22,14.5C 22.49,15.7932 22.6567,17.1266 22.5,18.5 Z"/></g>
<g><path style="opacity:0.901" fill="#f7a16d" d="M 0.5,13.5 C 1.5,13.5 2.5,13.5 3.5,13.5C 3.5,16.1667 3.5,18.8333 3.5,21.5C 2.5,21.5 1.5,21.5 0.5,21.5C 0.5,18.8333 0.5,16.1667 0.5,13.5 Z"/></g>
<g><path style="opacity:0.665" fill="#a06593" d="M 27.5,10.5 C 28.7281,11.3065 29.7281,12.3065 30.5,13.5C 30.6655,17.5138 30.4988,21.5138 30,25.5C 29.7216,26.4158 29.2216,27.0825 28.5,27.5C 28.7678,25.901 28.4345,24.5676 27.5,23.5C 27.5,19.1667 27.5,14.8333 27.5,10.5 Z"/></g>
<g><path style="opacity:0.839" fill="#fbbd69" d="M 0.5,21.5 C 1.5,21.5 2.5,21.5 3.5,21.5C 3.39297,23.9032 4.39297,25.7365 6.5,27C 9.14603,27.4974 11.8127,27.6641 14.5,27.5C 14.5,28.5 14.5,29.5 14.5,30.5C 10.6924,30.8368 7.02572,30.3368 3.5,29C 1.25297,27.005 0.252971,24.505 0.5,21.5 Z"/></g>
<g><path style="opacity:0.919" fill="#f2736b" d="M 14.5,27.5 C 17.8333,27.5 21.1667,27.5 24.5,27.5C 25.3382,27.8417 25.6716,28.5084 25.5,29.5C 22.0381,30.4816 18.3714,30.815 14.5,30.5C 14.5,29.5 14.5,28.5 14.5,27.5 Z"/></g>
<g><path style="opacity:0.102" fill="#cf6684" d="M 27.5,23.5 C 28.4345,24.5676 28.7678,25.901 28.5,27.5C 28.0269,28.9063 27.0269,29.573 25.5,29.5C 25.6716,28.5084 25.3382,27.8417 24.5,27.5C 25.5,26.1667 26.5,24.8333 27.5,23.5 Z"/></g>
</svg>
