<?xml version="1.0" encoding="UTF-8"?>
<!DOCTYPE svg PUBLIC "-//W3C//DTD SVG 1.1//EN" "http://www.w3.org/Graphics/SVG/1.1/DTD/svg11.dtd">
<svg xmlns="http://www.w3.org/2000/svg" version="1.1" width="512px" height="512px" style="shape-rendering:geometricPrecision; text-rendering:geometricPrecision; image-rendering:optimizeQuality; fill-rule:evenodd; clip-rule:evenodd" xmlns:xlink="http://www.w3.org/1999/xlink">
<g><path style="opacity:0.933" fill="#000000" d="M 353.5,-0.5 C 354.5,-0.5 355.5,-0.5 356.5,-0.5C 359.653,5.80678 362.82,12.1401 366,18.5C 366.629,23.3278 365.962,27.9945 364,32.5C 352.755,38.2058 341.588,44.0392 330.5,50C 333.046,53.59 335.213,57.4234 337,61.5C 339.28,63.0367 341.78,64.2033 344.5,65C 345.743,66.1545 346.743,67.4878 347.5,69C 357.494,69.4998 367.494,69.6665 377.5,69.5C 377.5,66.8333 377.5,64.1667 377.5,61.5C 379.167,61.5 380.833,61.5 382.5,61.5C 382.5,58.1667 382.5,54.8333 382.5,51.5C 384.5,51.5 386.5,51.5 388.5,51.5C 388.5,65.8333 388.5,80.1667 388.5,94.5C 386.5,94.5 384.5,94.5 382.5,94.5C 382.5,91.1667 382.5,87.8333 382.5,84.5C 380.833,84.5 379.167,84.5 377.5,84.5C 377.5,81.8333 377.5,79.1667 377.5,76.5C 367.161,76.3335 356.828,76.5002 346.5,77C 341.806,81.4331 336.972,81.5998 332,77.5C 329.86,73.846 330.027,70.346 332.5,67C 329.541,62.2488 326.707,57.4155 324,52.5C 312.245,58.6278 300.411,64.6278 288.5,70.5C 277.697,63.5292 267.03,56.3626 256.5,49C 288.894,32.4701 321.228,15.9701 353.5,-0.5 Z M 349.5,9.5 C 354.026,10.3693 355.026,12.536 352.5,16C 347.148,16.1754 346.148,14.0087 349.5,9.5 Z"/></g>
<g><path style="opacity:0.686" fill="#000000" d="M 264.5,8.5 C 269.734,7.8346 274.568,8.8346 279,11.5C 279.483,12.448 279.649,13.448 279.5,14.5C 274.978,12.8518 270.312,12.3518 265.5,13C 263.36,13.9733 261.693,15.4733 260.5,17.5C 259.311,18.4287 257.978,18.762 256.5,18.5C 257.328,13.6741 259.995,10.3408 264.5,8.5 Z"/></g>
<g><path style="opacity:0.674" fill="#000000" d="M 266.5,15.5 C 269.187,15.3359 271.854,15.5026 274.5,16C 278.132,17.3727 278.299,18.8727 275,20.5C 272.547,19.5071 270.047,19.3405 267.5,20C 265.737,23.3727 263.403,24.0394 260.5,22C 262.027,19.3098 264.027,17.1432 266.5,15.5 Z"/></g>
<g><path style="opacity:0.964" fill="#000000" d="M 189.5,23.5 C 213.268,21.3603 226.601,32.0269 229.5,55.5C 228.217,75.9491 217.384,86.9491 197,88.5C 173.058,85.8837 162.391,72.5503 165,48.5C 168.683,35.6514 176.85,27.3181 189.5,23.5 Z"/></g>
<g><path style="opacity:0.759" fill="#000000" d="M 272.5,28.5 C 276.599,28.3666 280.266,29.5333 283.5,32C 275.449,36.8609 267.116,40.8609 258.5,44C 260.792,40.5838 262.959,37.0838 265,33.5C 267.17,31.1769 269.67,29.5103 272.5,28.5 Z"/></g>
<g><path style="opacity:0.968" fill="#000000" d="M 253.5,50.5 C 260.868,54.3559 267.868,58.8559 274.5,64C 266.226,77.272 257.559,90.272 248.5,103C 246.913,103.862 245.246,104.529 243.5,105C 237.39,105.088 231.39,105.755 225.5,107C 234.456,119.078 243.289,131.245 252,143.5C 270.585,148.418 289.252,153.085 308,157.5C 309.955,155.089 311.789,152.589 313.5,150C 308.716,136.398 313.383,128.232 327.5,125.5C 328.833,125.667 330.167,125.833 331.5,126C 329.457,129.253 327.29,132.42 325,135.5C 324.332,141.829 327.166,144.329 333.5,143C 336.008,139.662 338.675,136.495 341.5,133.5C 346.55,148.973 340.883,157.473 324.5,159C 321.397,162.183 320.731,165.85 322.5,170C 321.424,178.057 316.757,182.224 308.5,182.5C 306.377,185.246 304.377,188.079 302.5,191C 294.946,194.105 291.113,191.605 291,183.5C 291.707,181.919 292.54,180.419 293.5,179C 292.833,178.667 292.167,178.333 291.5,178C 273.671,174.169 256.004,169.836 238.5,165C 231.301,156.101 224.468,146.934 218,137.5C 214.504,150.479 211.504,163.479 209,176.5C 218.75,171.371 227.083,173.037 234,181.5C 235.755,184.6 236.589,187.933 236.5,191.5C 231.766,222.573 226.599,253.573 221,284.5C 217.503,291.01 212.003,294.676 204.5,295.5C 193.842,294.175 187.842,288.175 186.5,277.5C 189,262.503 191.5,247.503 194,232.5C 199.004,228.671 204.171,225.005 209.5,221.5C 210.833,220.5 210.833,219.5 209.5,218.5C 198.83,224.5 188.496,231 178.5,238C 176.564,238.813 174.564,239.313 172.5,239.5C 174.173,246.524 176.006,253.524 178,260.5C 178.667,264.5 178.667,268.5 178,272.5C 172.383,302.919 166.383,333.253 160,363.5C 155.279,371.939 148.113,375.106 138.5,373C 128.731,368.63 124.898,361.13 127,350.5C 132.329,323.026 137.496,295.526 142.5,268C 136.188,243.566 130.188,219.066 124.5,194.5C 131.502,160.325 139.336,126.325 148,92.5C 149.167,90 151,88.1667 153.5,87C 161.458,85.6103 169.458,85.2769 177.5,86C 192.455,94.1141 206.788,93.1141 220.5,83C 225.19,82.4971 229.857,81.8304 234.5,81C 241.231,71.0292 247.564,60.8626 253.5,50.5 Z"/></g>
<g><path style="opacity:0.9" fill="#000000" d="M 199.5,511.5 C 194.833,511.5 190.167,511.5 185.5,511.5C 187.833,494.166 190.167,476.832 192.5,459.5C 162.831,459.333 133.165,459.5 103.5,460C 99.4396,476.077 95.6062,492.243 92,508.5C 87.5986,509.467 83.0986,509.8 78.5,509.5C 96.8861,425.288 116.219,341.288 136.5,257.5C 138.196,260.782 139.196,264.282 139.5,268C 134.333,295.166 129.167,322.333 124,349.5C 123.043,354.857 123.543,360.024 125.5,365C 123.929,369.351 122.929,373.851 122.5,378.5C 149.833,378.5 177.167,378.5 204.5,378.5C 206.898,357.212 209.898,336.045 213.5,315C 200.171,314.5 186.837,314.333 173.5,314.5C 173.833,311.833 174.167,309.167 174.5,306.5C 187.833,306.5 201.167,306.5 214.5,306.5C 214.701,302.426 215.368,298.426 216.5,294.5C 220.837,291.162 223.67,286.829 225,281.5C 227.835,264.488 230.669,247.488 233.5,230.5C 242.5,230.5 251.5,230.5 260.5,230.5C 260.5,234.5 260.5,238.5 260.5,242.5C 252.58,242.185 244.747,242.518 237,243.5C 224.172,332.798 211.672,422.131 199.5,511.5 Z M 120.5,386.5 C 147.833,386.5 175.167,386.5 202.5,386.5C 200.059,407.92 197.059,429.253 193.5,450.5C 164.174,451.5 134.841,451.833 105.5,451.5C 110.033,429.702 115.033,408.035 120.5,386.5 Z"/></g>
<g><path style="opacity:0.571" fill="#000000" d="M 188.5,234.5 C 189.497,234.47 190.164,234.97 190.5,236C 189.713,238.099 189.38,240.266 189.5,242.5C 185.774,242.823 182.107,242.489 178.5,241.5C 181.9,239.144 185.233,236.811 188.5,234.5 Z"/></g>
<g><path style="opacity:0.907" fill="#000000" d="M 246.5,245.5 C 251.648,244.926 256.482,245.593 261,247.5C 280.977,334.554 301.144,421.554 321.5,508.5C 316.615,509.802 311.782,509.802 307,508.5C 303.394,492.243 299.56,476.077 295.5,460C 266.828,459.833 238.161,459.333 209.5,458.5C 210.374,456.253 210.708,453.92 210.5,451.5C 238.167,451.5 265.833,451.5 293.5,451.5C 288.674,429.864 284.008,408.198 279.5,386.5C 259.833,386.5 240.167,386.5 220.5,386.5C 220.232,383.881 220.565,381.381 221.5,379C 239.83,378.5 258.164,378.333 276.5,378.5C 272.151,357.102 267.484,335.769 262.5,314.5C 251.833,314.5 241.167,314.5 230.5,314.5C 230.292,312.08 230.626,309.747 231.5,307.5C 241.167,306.833 250.833,306.167 260.5,305.5C 255.517,285.569 250.85,265.569 246.5,245.5 Z"/></g>
<g><path style="opacity:0.752" fill="#000000" d="M 179.5,279.5 C 180.725,280.152 181.392,281.319 181.5,283C 182.269,289.221 183.269,295.388 184.5,301.5C 181.5,302.833 178.5,302.833 175.5,301.5C 177.264,294.247 178.598,286.913 179.5,279.5 Z"/></g>
<g><path style="opacity:0.902" fill="#000000" d="M 172.5,317.5 C 177.167,317.5 181.833,317.5 186.5,317.5C 189.073,336.846 191.74,356.179 194.5,375.5C 189.833,375.5 185.167,375.5 180.5,375.5C 178.113,356.124 175.446,336.791 172.5,317.5 Z"/></g>
<g><path style="opacity:0.876" fill="#000000" d="M 182.5,391.5 C 184.641,390.837 186.975,390.503 189.5,390.5C 192.287,390.574 194.787,391.24 197,392.5C 196.504,409.978 194.504,427.311 191,444.5C 188.196,426.691 185.363,409.025 182.5,391.5 Z"/></g>
<g><path style="opacity:0.894" fill="#000000" d="M 361.5,449.5 C 378.833,449.5 396.167,449.5 413.5,449.5C 413.5,451.167 413.5,452.833 413.5,454.5C 412.167,454.5 410.833,454.5 409.5,454.5C 409.5,457.833 409.5,461.167 409.5,464.5C 417.5,464.5 425.5,464.5 433.5,464.5C 433.5,470.5 433.5,476.5 433.5,482.5C 403.167,482.5 372.833,482.5 342.5,482.5C 342.5,476.5 342.5,470.5 342.5,464.5C 350.5,464.5 358.5,464.5 366.5,464.5C 366.5,461.167 366.5,457.833 366.5,454.5C 364.833,454.5 363.167,454.5 361.5,454.5C 361.5,452.833 361.5,451.167 361.5,449.5 Z M 371.5,457.5 C 382.5,457.5 393.5,457.5 404.5,457.5C 404.5,459.833 404.5,462.167 404.5,464.5C 393.5,464.5 382.5,464.5 371.5,464.5C 371.5,462.167 371.5,459.833 371.5,457.5 Z"/></g>
<g><path style="opacity:0.807" fill="#000000" d="M 213.5,511.5 C 209.833,511.5 206.167,511.5 202.5,511.5C 203.913,499.108 205.747,486.775 208,474.5C 210.439,486.738 212.272,499.072 213.5,511.5 Z"/></g>
<g><path style="opacity:0.95" fill="#000000" d="M 342.5,484.5 C 372.833,484.5 403.167,484.5 433.5,484.5C 433.5,493.167 433.5,501.833 433.5,510.5C 403.167,510.5 372.833,510.5 342.5,510.5C 342.5,501.833 342.5,493.167 342.5,484.5 Z"/></g>
</svg>
