<?xml version="1.0" encoding="UTF-8"?>
<!DOCTYPE svg PUBLIC "-//W3C//DTD SVG 1.1//EN" "http://www.w3.org/Graphics/SVG/1.1/DTD/svg11.dtd">
<svg xmlns="http://www.w3.org/2000/svg" version="1.1" width="512px" height="512px" style="shape-rendering:geometricPrecision; text-rendering:geometricPrecision; image-rendering:optimizeQuality; fill-rule:evenodd; clip-rule:evenodd" xmlns:xlink="http://www.w3.org/1999/xlink">
<g><path style="opacity:0.925" fill="#000000" d="M 177.5,-0.5 C 181.167,-0.5 184.833,-0.5 188.5,-0.5C 209.519,7.34474 230.519,15.5114 251.5,24C 257.756,31.7386 258.089,39.7386 252.5,48C 236.833,61 221.167,74 205.5,87C 198.085,92.5737 190.419,92.907 182.5,88C 179.361,83.5741 177.194,78.7408 176,73.5C 168.258,77.2862 160.758,81.4529 153.5,86C 144.889,88.3707 140.722,85.2041 141,76.5C 142.907,72.9612 145.74,70.4612 149.5,69C 160.172,62.9113 171.339,58.0779 183,54.5C 185.814,54.4076 188.147,55.4076 190,57.5C 191.08,63.351 192.58,69.0177 194.5,74.5C 209.241,62.0475 224.074,49.7142 239,37.5C 239.591,36.5165 239.257,35.8499 238,35.5C 220.128,28.9316 202.295,22.2649 184.5,15.5C 184.32,20.9567 184.986,26.4567 186.5,32C 186.097,34.8872 184.764,37.2205 182.5,39C 96.4747,72.3613 45.6414,134.528 30,225.5C 28.0158,245.169 28.0158,264.836 30,284.5C 32.7051,289.812 36.5384,290.812 41.5,287.5C 42.9373,285.979 43.604,284.145 43.5,282C 35.8411,207.288 59.5078,144.621 114.5,94C 123.78,89.5215 128.28,92.3549 128,102.5C 121.031,110.47 113.698,118.136 106,125.5C 68.0338,171.004 52.5338,223.338 59.5,282.5C 58.7753,297.225 51.1086,304.891 36.5,305.5C 25.8906,305.385 18.7239,300.385 15,290.5C 3.99582,191.778 38.1625,112.945 117.5,54C 133.67,42.9138 151.003,33.9138 169.5,27C 166.806,19.735 166.973,12.5683 170,5.5C 172.114,2.87922 174.614,0.879222 177.5,-0.5 Z"/></g>
<g><path style="opacity:0.942" fill="#000000" d="M 436.5,-0.5 C 456.833,-0.5 477.167,-0.5 497.5,-0.5C 503.48,1.98203 507.647,6.31536 510,12.5C 510.667,67.1667 510.667,121.833 510,176.5C 504.187,189.073 494.354,193.739 480.5,190.5C 475.167,190.333 469.833,190.167 464.5,190C 459.248,186.914 458.248,182.747 461.5,177.5C 462.665,176.416 463.998,175.583 465.5,175C 474.5,174.667 483.5,174.333 492.5,174C 493,173.5 493.5,173 494,172.5C 494.667,120.5 494.667,68.5 494,16.5C 492.933,15.8095 491.766,15.3095 490.5,15C 477.167,14.3333 463.833,14.3333 450.5,15C 444.683,15.1502 440.85,17.9836 439,23.5C 438.667,37.1667 438.333,50.8333 438,64.5C 436.363,72.138 431.863,77.3046 424.5,80C 409.455,80.0841 394.455,80.7508 379.5,82C 376.272,83.5629 374.105,86.0629 373,89.5C 372.333,117.167 372.333,144.833 373,172.5C 373.5,173 374,173.5 374.5,174C 394.5,174.333 414.5,174.667 434.5,175C 439.906,176.98 441.739,180.814 440,186.5C 438.833,187.667 437.667,188.833 436.5,190C 414.833,190.667 393.167,190.667 371.5,190C 364,187.833 359.167,183 357,175.5C 356.333,144.167 356.333,112.833 357,81.5C 358.598,71.9716 362.598,63.6382 369,56.5C 385.893,38.9385 403.393,22.1051 421.5,6C 426.367,3.22592 431.367,1.05926 436.5,-0.5 Z M 421.5,26.5 C 422.166,32.1568 422.499,37.9902 422.5,44C 422.628,50.6028 422.128,57.1028 421,63.5C 419.933,64.1905 418.766,64.6905 417.5,65C 406.167,65.6667 394.833,65.6667 383.5,65C 396.369,52.2985 409.035,39.4652 421.5,26.5 Z"/></g>
<g><path style="opacity:0.926" fill="#000000" d="M 401.5,100.5 C 422.836,100.333 444.169,100.5 465.5,101C 472.076,102.175 474.243,106.008 472,112.5C 471.5,114.333 470.333,115.5 468.5,116C 445.167,116.667 421.833,116.667 398.5,116C 394.018,112.295 393.351,107.962 396.5,103C 398.315,102.243 399.981,101.41 401.5,100.5 Z"/></g>
<g><path style="opacity:0.925" fill="#000000" d="M 398.5,132.5 C 421.836,132.333 445.169,132.5 468.5,133C 470.333,133.5 471.5,134.667 472,136.5C 473.992,142.337 472.158,146.171 466.5,148C 444.5,148.667 422.5,148.667 400.5,148C 395.076,145.983 393.242,142.15 395,136.5C 396.376,135.295 397.542,133.962 398.5,132.5 Z"/></g>
<g><path style="opacity:0.926" fill="#000000" d="M 241.5,142.5 C 251.506,142.334 261.506,142.5 271.5,143C 278.333,144.5 282.5,148.667 284,155.5C 285.082,163.156 286.082,170.822 287,178.5C 293.912,181.703 300.412,185.537 306.5,190C 307.5,190.667 308.5,190.667 309.5,190C 315.718,187.058 322.051,184.391 328.5,182C 334.097,180.909 339.43,181.576 344.5,184C 352.453,193.737 358.453,204.571 362.5,216.5C 362.022,220.398 360.855,224.065 359,227.5C 351.977,233.357 344.81,239.024 337.5,244.5C 338.833,251.833 338.833,259.167 337.5,266.5C 344.81,271.976 351.977,277.643 359,283.5C 362.155,288.923 362.822,294.59 361,300.5C 356.292,309.864 350.792,318.698 344.5,327C 338.338,329.929 332.005,330.263 325.5,328C 319.725,325.362 313.891,322.862 308,320.5C 301.432,324.718 294.599,328.551 287.5,332C 286.207,340.835 284.707,349.668 283,358.5C 280.673,363.423 276.84,366.59 271.5,368C 261.5,368.667 251.5,368.667 241.5,368C 234.667,366.5 230.5,362.333 229,355.5C 227.997,347.471 226.83,339.471 225.5,331.5C 218.555,329.029 212.222,325.529 206.5,321C 205.5,320.333 204.5,320.333 203.5,321C 197.282,323.942 190.949,326.609 184.5,329C 175.114,331.55 167.947,328.717 163,320.5C 157.864,312.065 153.698,303.231 150.5,294C 150.888,289.706 152.388,285.873 155,282.5C 161.69,276.976 168.523,271.642 175.5,266.5C 174.167,259.167 174.167,251.833 175.5,244.5C 168.523,239.358 161.69,234.024 155,228.5C 151.027,222.97 150.027,216.97 152,210.5C 155.667,203.833 159.333,197.167 163,190.5C 169.025,181.515 177.191,179.015 187.5,183C 193.275,185.638 199.109,188.138 205,190.5C 211.466,186.213 218.299,182.547 225.5,179.5C 226.756,170.45 228.256,161.45 230,152.5C 232.566,147.645 236.399,144.311 241.5,142.5 Z M 244.5,158.5 C 252.5,158.5 260.5,158.5 268.5,158.5C 269.556,168.172 270.723,177.839 272,187.5C 272.785,189.286 273.951,190.786 275.5,192C 285.083,195.457 293.75,200.457 301.5,207C 302.873,207.875 304.373,208.375 306,208.5C 315.278,205.129 324.445,201.462 333.5,197.5C 335.088,198.01 336.255,199.01 337,200.5C 340.04,206.082 343.207,211.582 346.5,217C 338.833,222.667 331.167,228.333 323.5,234C 322.02,236.247 321.353,238.747 321.5,241.5C 322.481,252.5 322.647,263.5 322,274.5C 329.83,281.319 337.996,287.819 346.5,294C 343.207,299.418 340.04,304.918 337,310.5C 336.255,311.99 335.088,312.99 333.5,313.5C 324.445,309.538 315.278,305.871 306,302.5C 304.373,302.625 302.873,303.125 301.5,304C 293.75,310.543 285.083,315.543 275.5,319C 273.951,320.214 272.785,321.714 272,323.5C 270.723,333.161 269.556,342.828 268.5,352.5C 260.5,352.5 252.5,352.5 244.5,352.5C 243.581,342.812 242.414,333.145 241,323.5C 240.215,321.714 239.049,320.214 237.5,319C 227.917,315.543 219.25,310.543 211.5,304C 210.127,303.125 208.627,302.625 207,302.5C 197.722,305.871 188.555,309.538 179.5,313.5C 177.912,312.99 176.745,311.99 176,310.5C 172.96,304.918 169.793,299.418 166.5,294C 174.167,288.333 181.833,282.667 189.5,277C 190.998,274.583 191.665,271.917 191.5,269C 190.563,258.169 190.396,247.335 191,236.5C 183.17,229.681 175.004,223.181 166.5,217C 169.793,211.582 172.96,206.082 176,200.5C 176.745,199.01 177.912,198.01 179.5,197.5C 188.555,201.462 197.722,205.129 207,208.5C 208.627,208.375 210.127,207.875 211.5,207C 219.25,200.457 227.917,195.457 237.5,192C 239.049,190.786 240.215,189.286 241,187.5C 242.414,177.855 243.581,168.188 244.5,158.5 Z M 253.5,224.5 C 273.208,225.682 284.542,236.016 287.5,255.5C 283.276,279.573 269.276,289.073 245.5,284C 228.881,275.596 223.047,262.429 228,244.5C 233.184,233.47 241.684,226.803 253.5,224.5 Z"/></g>
<g><path style="opacity:0.925" fill="#000000" d="M 335.5,511.5 C 331.833,511.5 328.167,511.5 324.5,511.5C 303.588,503.388 282.588,495.221 261.5,487C 255.26,479.26 254.927,471.26 260.5,463C 277.457,449.711 294.124,436.045 310.5,422C 318.258,418.125 325.424,418.959 332,424.5C 334.076,428.737 335.743,433.071 337,437.5C 411.875,400.132 451.375,339.466 455.5,255.5C 455.109,246.48 454.443,237.48 453.5,228.5C 454.196,213.804 461.863,206.137 476.5,205.5C 488.515,205.917 496.015,211.917 499,223.5C 508.423,321.127 473.923,398.96 395.5,457C 379.33,468.086 361.997,477.086 343.5,484C 346.26,491.258 346.093,498.425 343,505.5C 340.886,508.121 338.386,510.121 335.5,511.5 Z M 473.5,221.5 C 481.292,221.469 484.792,225.469 484,233.5C 489.508,320.386 457.675,389.886 388.5,442C 370.611,454.612 351.278,464.612 330.5,472C 328.338,473.645 327.005,475.812 326.5,478.5C 328.17,484.155 328.836,489.821 328.5,495.5C 310.079,488.694 291.746,481.694 273.5,474.5C 288.275,461.606 303.275,448.939 318.5,436.5C 320.42,441.982 321.92,447.649 323,453.5C 324.853,455.592 327.186,456.592 330,456.5C 342.413,452.694 354.246,447.528 365.5,441C 442.582,391.498 477.249,320.831 469.5,229C 469.944,225.941 471.277,223.441 473.5,221.5 Z"/></g>
<g><path style="opacity:0.931" fill="#000000" d="M 254.5,208.5 C 284.245,210.246 300.578,225.913 303.5,255.5C 300.83,284.17 285.164,299.836 256.5,302.5C 227.833,299.833 212.167,284.167 209.5,255.5C 212.154,227.772 227.154,212.105 254.5,208.5 Z M 253.5,224.5 C 241.684,226.803 233.184,233.47 228,244.5C 223.047,262.429 228.881,275.596 245.5,284C 269.276,289.073 283.276,279.573 287.5,255.5C 284.542,236.016 273.208,225.682 253.5,224.5 Z"/></g>
<g><path style="opacity:0.935" fill="#000000" d="M 20.5,352.5 C 77.8343,352.333 135.168,352.5 192.5,353C 202.558,355.391 209.058,361.557 212,371.5C 212.667,386.5 212.667,401.5 212,416.5C 211.226,420.714 209.393,424.381 206.5,427.5C 209.375,430.614 211.209,434.281 212,438.5C 212.667,453.5 212.667,468.5 212,483.5C 209.193,492.974 203.026,499.14 193.5,502C 177.167,502.667 160.833,502.667 144.5,502C 139.857,499.928 138.357,496.428 140,491.5C 140.833,489.333 142.333,487.833 144.5,487C 159.833,486.667 175.167,486.333 190.5,486C 192.286,485.215 193.786,484.049 195,482.5C 196.63,468.928 196.963,455.261 196,441.5C 194.74,438.572 192.573,436.739 189.5,436C 133.833,435.333 78.1667,435.333 22.5,436C 20.3762,437.122 18.5429,438.622 17,440.5C 16.3333,454.167 16.3333,467.833 17,481.5C 18.2273,483.726 20.0607,485.226 22.5,486C 53.5,486.333 84.5,486.667 115.5,487C 120.299,490.071 121.465,494.238 119,499.5C 118.097,500.701 116.931,501.535 115.5,502C 83.5,502.667 51.5,502.667 19.5,502C 9.79871,499.9 3.63204,494.067 1,484.5C 0.333333,468.833 0.333333,453.167 1,437.5C 1.93582,433.793 3.76915,430.626 6.5,428C 4.0144,424.863 2.18106,421.363 1,417.5C 0.333333,401.833 0.333333,386.167 1,370.5C 4.5194,361.143 11.0194,355.143 20.5,352.5 Z M 22.5,368.5 C 78.1677,368.333 133.834,368.5 189.5,369C 192.573,369.739 194.74,371.572 196,374.5C 196.667,387.5 196.667,400.5 196,413.5C 194.833,416 193,417.833 190.5,419C 134.5,419.667 78.5,419.667 22.5,419C 20.0607,418.226 18.2273,416.726 17,414.5C 16.3333,400.833 16.3333,387.167 17,373.5C 18.7297,371.598 20.563,369.931 22.5,368.5 Z M 42.5,388.5 C 48.8302,387.666 51.6635,390.333 51,396.5C 47.2874,401.799 43.6207,401.799 40,396.5C 39.0182,393.225 39.8515,390.559 42.5,388.5 Z M 89.5,388.5 C 96.6929,387.847 99.1929,390.847 97,397.5C 93.1708,401.663 89.8375,401.329 87,396.5C 86.0228,393.183 86.8562,390.516 89.5,388.5 Z M 91.5,454.5 C 100.286,458.189 100.619,462.522 92.5,467.5C 87.1206,466.075 85.454,462.741 87.5,457.5C 88.9014,456.479 90.2347,455.479 91.5,454.5 Z M 42.5,455.5 C 48.8302,454.666 51.6635,457.333 51,463.5C 47.2874,468.799 43.6207,468.799 40,463.5C 39.0182,460.225 39.8515,457.559 42.5,455.5 Z"/></g>
<g><path style="opacity:0.928" fill="#000000" d="M 38.5,372.5 C 55.5117,370.034 65.1783,377.201 67.5,394C 64.9589,411.53 54.9589,418.53 37.5,415C 25.2679,408.692 21.1013,398.859 25,385.5C 28.101,379.563 32.601,375.23 38.5,372.5 Z M 42.5,388.5 C 39.8515,390.559 39.0182,393.225 40,396.5C 43.6207,401.799 47.2874,401.799 51,396.5C 51.6635,390.333 48.8302,387.666 42.5,388.5 Z"/></g>
<g><path style="opacity:0.924" fill="#000000" d="M 85.5,372.5 C 107.099,371.262 116.266,381.262 113,402.5C 106.847,414.22 97.3471,418.387 84.5,415C 71.5754,408.583 67.4088,398.417 72,384.5C 74.85,378.514 79.35,374.514 85.5,372.5 Z M 89.5,388.5 C 86.8562,390.516 86.0228,393.183 87,396.5C 89.8375,401.329 93.1708,401.663 97,397.5C 99.1929,390.847 96.6929,387.847 89.5,388.5 Z"/></g>
<g><path style="opacity:0.919" fill="#000000" d="M 131.5,386.5 C 148.837,386.333 166.17,386.5 183.5,387C 189.475,393.429 188.475,398.429 180.5,402C 164.833,402.667 149.167,402.667 133.5,402C 127.408,399.726 125.574,395.559 128,389.5C 129.145,388.364 130.312,387.364 131.5,386.5 Z"/></g>
<g><path style="opacity:0.927" fill="#000000" d="M 44.5,438.5 C 62.9199,441.08 70.0865,451.413 66,469.5C 59.1812,481.997 49.0146,485.831 35.5,481C 23.1058,472.799 20.2725,461.966 27,448.5C 31.589,442.694 37.4223,439.36 44.5,438.5 Z M 42.5,455.5 C 39.8515,457.559 39.0182,460.225 40,463.5C 43.6207,468.799 47.2874,468.799 51,463.5C 51.6635,457.333 48.8302,454.666 42.5,455.5 Z"/></g>
<g><path style="opacity:0.924" fill="#000000" d="M 91.5,438.5 C 111.853,442.369 118.353,454.036 111,473.5C 99.6341,485.951 87.6341,486.618 75,475.5C 69,465.833 69,456.167 75,446.5C 79.6231,441.804 85.1231,439.138 91.5,438.5 Z M 91.5,454.5 C 90.2347,455.479 88.9014,456.479 87.5,457.5C 85.454,462.741 87.1206,466.075 92.5,467.5C 100.619,462.522 100.286,458.189 91.5,454.5 Z"/></g>
<g><path style="opacity:0.918" fill="#000000" d="M 130.5,453.5 C 148.17,453.333 165.836,453.5 183.5,454C 189.475,460.429 188.475,465.429 180.5,469C 164.833,469.667 149.167,469.667 133.5,469C 125.725,465.17 124.725,460.004 130.5,453.5 Z"/></g>
</svg>
