<?xml version="1.0" standalone="no"?>
<!DOCTYPE svg PUBLIC "-//W3C//DTD SVG 20010904//EN"
 "http://www.w3.org/TR/2001/REC-SVG-20010904/DTD/svg10.dtd">
<svg version="1.0" xmlns="http://www.w3.org/2000/svg"
 width="512.000000pt" height="512.000000pt" viewBox="0 0 512.000000 512.000000"
 preserveAspectRatio="xMidYMid meet">

<g transform="translate(0.000000,512.000000) scale(0.100000,-0.100000)"
fill="#000000" stroke="none">
<path d="M193 5104 c-64 -32 -63 -20 -63 -673 l0 -592 83 3 82 3 3 558 2 557
400 0 399 0 6 -37 c12 -75 16 -86 45 -114 l28 -29 461 0 461 0 30 28 c24 21
33 40 41 90 l11 62 402 -2 401 -3 3 -202 2 -203 80 0 80 0 0 240 c0 196 -3
246 -15 270 -33 64 66 60 -1492 60 -1267 0 -1421 -2 -1450 -16z"/>
<path d="M4180 4035 l0 -395 397 0 396 0 -6 98 c-4 53 -7 231 -7 395 l0 297
-390 0 -390 0 0 -395z m518 262 c17 -20 1 -33 -47 -40 -61 -8 -83 -33 -89
-101 l-4 -55 58 -3 c51 -3 59 -6 59 -23 0 -17 -8 -20 -57 -23 l-58 -3 0 -159
c0 -160 -5 -185 -35 -160 -12 10 -15 44 -15 166 l0 153 -32 3 c-25 2 -33 8
-33 23 0 15 8 21 33 23 32 3 32 4 32 55 0 67 25 117 70 139 41 21 103 23 118
5z"/>
<path d="M2990 2968 c0 -1144 -1 -1153 -21 -1198 -31 -68 -108 -278 -115 -314
-5 -28 -1 -37 28 -61 75 -64 218 -103 330 -91 58 6 59 5 53 -17 -27 -94 -50
-158 -71 -196 -13 -24 -23 -45 -22 -46 2 -2 43 10 93 26 118 39 257 106 325
158 30 23 77 48 104 56 93 28 86 44 86 -200 l0 -215 -48 0 c-27 0 -74 5 -104
11 l-56 11 -38 -41 c-54 -60 -170 -151 -236 -186 l-58 -30 0 -312 0 -313 690
0 690 0 0 313 0 312 -72 40 c-44 24 -110 76 -168 132 l-97 92 -39 -11 c-21 -6
-80 -12 -129 -12 -79 0 -98 3 -148 27 -136 67 -128 148 28 250 l60 39 -53 -6
c-44 -4 -56 -2 -72 14 -54 54 9 96 140 94 76 -1 120 -17 225 -82 123 -76 200
-109 392 -167 6 -2 0 15 -13 38 -23 40 -74 185 -74 210 0 8 28 12 93 12 109 1
184 21 252 67 75 51 75 53 31 181 -21 61 -58 155 -83 207 -38 80 -58 108 -127
175 -104 103 -174 139 -394 205 -96 28 -179 53 -186 56 -10 4 -15 -16 -19 -71
-8 -93 -32 -149 -79 -191 -114 -100 -284 -77 -362 49 -25 41 -30 61 -34 131
l-4 83 -187 -55 c-185 -54 -242 -77 -313 -126 l-38 -25 0 1064 0 1065 -80 0
-80 0 0 -1152z m942 -1555 c10 -9 18 -23 18 -31 0 -20 -29 -52 -47 -52 -15 0
-53 35 -53 50 0 14 37 50 52 50 6 0 20 -7 30 -17z"/>
<path d="M3843 3405 c-74 -20 -148 -60 -198 -106 -32 -30 -49 -39 -64 -34 -49
15 -137 -114 -148 -219 -11 -109 41 -276 96 -307 l29 -17 6 82 c11 120 63 222
91 176 23 -38 155 -88 196 -75 16 5 18 13 13 45 l-6 39 61 -25 c80 -33 176
-40 266 -21 47 10 72 11 77 4 3 -5 11 -46 18 -91 17 -123 19 -131 33 -117 6 6
19 11 28 11 12 0 24 19 41 68 19 56 23 87 23 187 0 107 -3 125 -25 170 -86
175 -339 283 -537 230z"/>
<path d="M147 3322 c-16 -17 -17 -144 -17 -1621 0 -1439 2 -1606 16 -1636 33
-70 -72 -65 1499 -65 1266 0 1419 2 1446 16 54 27 59 56 59 335 l0 252 -32 -7
c-18 -4 -54 -10 -80 -13 l-48 -6 -2 -206 -3 -206 -1342 -3 -1343 -2 0 703 c0
387 -3 1103 -7 1590 l-6 887 -62 0 c-47 0 -66 -4 -78 -18z"/>
<path d="M1515 3311 c-98 -24 -192 -90 -244 -171 -105 -163 -90 -356 39 -494
203 -216 534 -160 663 112 29 60 32 76 31 157 0 105 -21 167 -81 246 -91 120
-266 184 -408 150z m223 -203 c8 -8 12 -66 12 -193 0 -188 -4 -205 -43 -205
-10 0 -86 39 -168 87 -150 88 -150 88 -147 122 3 32 10 37 148 117 145 83 175
95 198 72z"/>
<path d="M509 1772 c-41 -36 -50 -101 -24 -169 19 -50 136 -176 175 -188 26
-8 52 8 130 82 75 70 104 128 97 189 -12 107 -135 151 -184 66 l-17 -29 -36
38 c-47 50 -94 53 -141 11z"/>
<path d="M1162 1688 c-18 -22 -33 -98 -27 -131 14 -73 25 -87 65 -87 65 0 73
7 47 42 -26 36 -28 98 -4 144 16 31 16 32 -6 38 -35 9 -64 7 -75 -6z"/>
</g>
</svg>
