<?xml version="1.0" encoding="UTF-8"?>
<!DOCTYPE svg PUBLIC "-//W3C//DTD SVG 1.1//EN" "http://www.w3.org/Graphics/SVG/1.1/DTD/svg11.dtd">
<svg xmlns="http://www.w3.org/2000/svg" version="1.1" width="512px" height="512px" style="shape-rendering:geometricPrecision; text-rendering:geometricPrecision; image-rendering:optimizeQuality; fill-rule:evenodd; clip-rule:evenodd" xmlns:xlink="http://www.w3.org/1999/xlink">
<g><path style="opacity:0.942" fill="#000000" d="M 183.5,39.5 C 282.834,39.3333 382.167,39.5 481.5,40C 492.339,42.4952 499.506,48.9952 503,59.5C 504.651,134.797 504.985,210.131 504,285.5C 501.242,300.925 492.076,309.425 476.5,311C 444.162,311.167 411.828,311.667 379.5,312.5C 382.156,322.123 384.656,331.79 387,341.5C 393.251,350.999 399.251,360.666 405,370.5C 406.569,375.625 405.069,379.459 400.5,382C 355.167,382.667 309.833,382.667 264.5,382C 260.981,380.48 258.981,377.814 258.5,374C 264.348,362.472 270.848,351.305 278,340.5C 280.105,331.141 282.271,321.808 284.5,312.5C 273.186,311.501 261.853,311.168 250.5,311.5C 250.667,327.503 250.5,343.503 250,359.5C 247.501,370.352 241.001,377.519 230.5,381C 195.212,382.154 159.879,382.654 124.5,382.5C 90.5,382.333 56.5,382.167 22.5,382C 13.5864,380.085 8.4197,374.585 7,365.5C 6.33333,315.5 6.33333,265.5 7,215.5C 8.04169,208.245 11.875,203.079 18.5,200C 28.0862,198.58 37.7529,198.08 47.5,198.5C 47.3334,182.83 47.5001,167.163 48,151.5C 51.5,141.333 58.3333,134.5 68.5,131C 99.1649,130.5 129.832,130.333 160.5,130.5C 160.04,106.448 160.54,82.4479 162,58.5C 165.948,48.3775 173.115,42.0441 183.5,39.5 Z M 187.5,55.5 C 283.834,55.3333 380.167,55.5 476.5,56C 481.631,56.8158 485.131,59.6492 487,64.5C 487.667,138.167 487.667,211.833 487,285.5C 485.5,289.667 482.667,292.5 478.5,294C 402.501,294.5 326.501,294.667 250.5,294.5C 250.5,289.5 250.5,284.5 250.5,279.5C 325.224,279.991 399.891,279.491 474.5,278C 475.701,277.097 476.535,275.931 477,274.5C 477.667,208.167 477.667,141.833 477,75.5C 476.5,73.6667 475.333,72.5 473.5,72C 379.5,71.3333 285.5,71.3333 191.5,72C 188.898,72.935 187.398,74.7683 187,77.5C 186.5,95.1635 186.333,112.83 186.5,130.5C 183.167,130.5 179.833,130.5 176.5,130.5C 176.333,109.497 176.5,88.4974 177,67.5C 178.242,61.4299 181.742,57.4299 187.5,55.5 Z M 203.5,87.5 C 289.5,87.5 375.5,87.5 461.5,87.5C 461.5,145.833 461.5,204.167 461.5,262.5C 391.167,262.5 320.833,262.5 250.5,262.5C 250.975,224.785 250.475,187.118 249,149.5C 245.336,139.837 238.503,133.67 228.5,131C 220.173,130.5 211.84,130.334 203.5,130.5C 203.5,116.167 203.5,101.833 203.5,87.5 Z M 73.5,146.5 C 123.501,146.333 173.501,146.5 223.5,147C 229.864,148.702 233.364,152.868 234,159.5C 234.667,224.5 234.667,289.5 234,354.5C 233.184,359.631 230.351,363.131 225.5,365C 188.162,365.833 150.829,365.667 113.5,364.5C 114.162,339.875 114.495,315.208 114.5,290.5C 114.639,264.133 114.139,237.8 113,211.5C 110.737,204.903 106.237,200.736 99.5,199C 87.5046,198.5 75.5046,198.333 63.5,198.5C 63.3334,184.496 63.5001,170.496 64,156.5C 65.3499,151.319 68.5166,147.986 73.5,146.5 Z M 26.5,214.5 C 49.1691,214.333 71.8358,214.5 94.5,215C 95.4162,215.374 96.2496,215.874 97,216.5C 97.8304,266.071 97.6637,315.571 96.5,365C 72.2609,365.827 48.0942,365.661 24,364.5C 23.3333,315.167 23.3333,265.833 24,216.5C 24.9947,215.934 25.828,215.267 26.5,214.5 Z M 301.5,311.5 C 321.833,311.5 342.167,311.5 362.5,311.5C 364.112,319.449 366.112,327.282 368.5,335C 344.502,335.5 320.502,335.667 296.5,335.5C 298.166,327.501 299.833,319.501 301.5,311.5 Z M 290.5,352.5 C 318.502,352.333 346.502,352.5 374.5,353C 376.959,356.75 379.292,360.583 381.5,364.5C 348.505,365.667 315.505,365.833 282.5,365C 285.053,360.72 287.719,356.554 290.5,352.5 Z"/></g>
<g><path style="opacity:0.905" fill="#000000" d="M 385.5,102.5 C 387.086,103.148 388.753,103.648 390.5,104C 407,120.5 423.5,137 440,153.5C 442.654,164.509 438.487,168.343 427.5,165C 411.333,148.833 395.167,132.667 379,116.5C 376.085,109.334 378.252,104.667 385.5,102.5 Z"/></g>
<g><path style="opacity:0.91" fill="#000000" d="M 330.5,110.5 C 333.794,110.259 336.794,111.092 339.5,113C 369.667,143.167 399.833,173.333 430,203.5C 435.236,213.923 432.069,218.756 420.5,218C 389,186.5 357.5,155 326,123.5C 323.819,117.877 325.319,113.544 330.5,110.5 Z"/></g>
<g><path style="opacity:0.887" fill="#000000" d="M 141.5,154.5 C 148.391,153.901 155.058,154.735 161.5,157C 163.934,160.716 164.101,164.549 162,168.5C 161.097,169.701 159.931,170.535 158.5,171C 151.392,171.924 144.392,171.591 137.5,170C 134.028,166.627 133.195,162.793 135,158.5C 136.792,156.372 138.958,155.039 141.5,154.5 Z"/></g>
<g><path style="opacity:0.916" fill="#000000" d="M 51.5,222.5 C 58.6154,222.075 65.6154,222.575 72.5,224C 76.5878,228.982 76.2545,233.649 71.5,238C 64.5,238.667 57.5,238.667 50.5,238C 45.0344,232.434 45.3678,227.267 51.5,222.5 Z"/></g>
<g><path style="opacity:0.938" fill="#000000" d="M 40.5,341.5 C 54.1707,341.333 67.8374,341.5 81.5,342C 86.8981,345.555 87.7314,350.055 84,355.5C 83.2496,356.126 82.4162,356.626 81.5,357C 68.1667,357.667 54.8333,357.667 41.5,357C 36.7762,354.565 35.2762,350.731 37,345.5C 38.3756,344.295 39.5423,342.962 40.5,341.5 Z"/></g>
<g><path style="opacity:0.939" fill="#000000" d="M 128.5,341.5 C 142.171,341.333 155.837,341.5 169.5,342C 173.277,344.955 174.443,348.788 173,353.5C 171.786,355.049 170.286,356.215 168.5,357C 155.167,357.667 141.833,357.667 128.5,357C 121.923,351.792 121.923,346.626 128.5,341.5 Z"/></g>
<g><path style="opacity:0.945" fill="#000000" d="M 425.5,409.5 C 455.035,407.893 474.869,420.893 485,448.5C 486.065,453.122 486.899,457.789 487.5,462.5C 487.195,465.276 486.195,467.776 484.5,470C 450.919,471.652 417.252,471.986 383.5,471C 382.333,469.833 381.167,468.667 380,467.5C 379.685,435.985 394.852,416.652 425.5,409.5 Z M 430.5,425.5 C 450.557,426.579 463.557,436.579 469.5,455.5C 445.158,455.833 420.824,455.5 396.5,454.5C 401.961,437.792 413.294,428.126 430.5,425.5 Z"/></g>
<g><path style="opacity:0.964" fill="#000000" d="M 40.5,410.5 C 143.167,410.333 245.834,410.5 348.5,411C 356,413.167 360.833,418 363,425.5C 363.667,435.5 363.667,445.5 363,455.5C 360.5,463.333 355.333,468.5 347.5,471C 245.167,471.667 142.833,471.667 40.5,471C 27.0978,465.539 21.7644,455.539 24.5,441C 21.8933,426.37 27.2266,416.203 40.5,410.5 Z M 44.5,426.5 C 144.167,426.333 243.834,426.5 343.5,427C 345.333,427.5 346.5,428.667 347,430.5C 347.667,437.5 347.667,444.5 347,451.5C 346.167,453 345,454.167 343.5,455C 244.167,455.667 144.833,455.667 45.5,455C 44.0692,454.535 42.9025,453.701 42,452.5C 41.3333,444.5 41.3333,436.5 42,428.5C 42.9947,427.934 43.828,427.267 44.5,426.5 Z"/></g>
</svg>
