<?xml version="1.0" encoding="UTF-8"?>
<!DOCTYPE svg PUBLIC "-//W3C//DTD SVG 1.1//EN" "http://www.w3.org/Graphics/SVG/1.1/DTD/svg11.dtd">
<svg xmlns="http://www.w3.org/2000/svg" version="1.1" width="512px" height="512px" style="shape-rendering:geometricPrecision; text-rendering:geometricPrecision; image-rendering:optimizeQuality; fill-rule:evenodd; clip-rule:evenodd" xmlns:xlink="http://www.w3.org/1999/xlink">
<g><path style="opacity:0.966" fill="#000000" d="M 65.5,-0.5 C 152.833,-0.5 240.167,-0.5 327.5,-0.5C 350.337,6.69236 361.671,22.359 361.5,46.5C 369.507,46.3336 377.507,46.5003 385.5,47C 398.333,50.5 406.5,58.6667 410,71.5C 410.167,133.169 410.667,194.836 411.5,256.5C 435.749,269.574 456.916,286.574 475,307.5C 481.249,319.345 480.916,331.011 474,342.5C 455.991,362.996 434.991,379.663 411,392.5C 410.667,423.833 410.333,455.167 410,486.5C 406.317,499.349 398.15,507.682 385.5,511.5C 314.5,511.5 243.5,511.5 172.5,511.5C 162.9,509.375 153.9,505.541 145.5,500C 129.5,484.667 113.5,469.333 97.5,454C 86.4581,453.851 75.4581,453.184 64.5,452C 47.2602,447.093 36.4269,435.926 32,418.5C 31.3333,290.167 31.3333,161.833 32,33.5C 36.682,15.6521 47.8487,4.31874 65.5,-0.5 Z M 75.5,19.5 C 156.167,19.3333 236.834,19.5 317.5,20C 332.955,22.0777 340.622,30.9111 340.5,46.5C 262.166,46.3333 183.833,46.5 105.5,47C 92.6667,50.5 84.5,58.6667 81,71.5C 80.3333,140.5 80.3333,209.5 81,278.5C 84.6551,283.275 89.4884,284.775 95.5,283C 97.3333,281.833 98.8333,280.333 100,278.5C 100.333,212.167 100.667,145.833 101,79.5C 101.522,73.9544 104.356,70.1211 109.5,68C 200.914,67.0052 292.248,67.3385 383.5,69C 385.917,70.6626 387.75,72.8293 389,75.5C 389.5,132.166 389.667,188.832 389.5,245.5C 306.827,216.998 232.16,230.832 165.5,287C 160,292.5 154.5,298 149,303.5C 140.235,316.111 139.568,329.111 147,342.5C 200.433,400.872 266.599,425.039 345.5,415C 360.497,412.46 374.997,408.293 389,402.5C 389.667,429.167 389.667,455.833 389,482.5C 387.895,485.937 385.728,488.437 382.5,490C 316.203,491.649 249.87,491.983 183.5,491C 181.686,473.067 180.853,454.9 181,436.5C 178.41,422.951 170.244,415.451 156.5,414C 138.17,413.5 119.836,413.333 101.5,413.5C 100.699,391.864 100.199,370.197 100,348.5C 96.3449,343.725 91.5116,342.225 85.5,344C 83.6667,345.167 82.1667,346.667 81,348.5C 80.3333,372.833 80.3333,397.167 81,421.5C 81.7373,425.207 82.5707,428.873 83.5,432.5C 65.6001,434.657 55.1001,426.991 52,409.5C 51.3333,287.5 51.3333,165.5 52,43.5C 53.3441,28.9903 61.1774,20.9903 75.5,19.5 Z M 305.5,251.5 C 346.011,252.491 371.511,272.491 382,311.5C 386.064,344.868 373.897,370.368 345.5,388C 306.483,405.039 274.317,396.539 249,362.5C 233.025,332.256 235.358,303.59 256,276.5C 269.538,262.148 286.038,253.815 305.5,251.5 Z M 235.5,380.5 C 207.289,369.113 183.456,351.78 164,328.5C 162.925,324.142 163.592,320.142 166,316.5C 185.871,295.734 208.871,279.4 235,267.5C 229.35,276.813 224.683,286.813 221,297.5C 212.977,327.532 217.811,355.199 235.5,380.5 Z M 386.5,268.5 C 413.156,279.757 436.322,296.09 456,317.5C 459.438,322.749 459.105,327.749 455,332.5C 435.649,353.177 412.982,369.177 387,380.5C 386.5,380.333 386,380.167 385.5,380C 403.104,355.644 408.271,328.811 401,299.5C 397.746,288.33 392.912,277.996 386.5,268.5 Z M 304.5,294.5 C 322.308,292.985 334.142,300.652 340,317.5C 341.63,341.533 330.464,353.7 306.5,354C 288.352,349.531 279.852,338.031 281,319.5C 283.914,306.422 291.748,298.089 304.5,294.5 Z M 109.5,434.5 C 125.596,434.03 141.596,434.53 157.5,436C 158.333,436.833 159.167,437.667 160,438.5C 160.833,453.511 160.666,468.511 159.5,483.5C 149.017,474.184 138.683,464.684 128.5,455C 121.572,448.577 115.238,441.744 109.5,434.5 Z"/></g>
<g><path style="opacity:0.991" fill="#000000" d="M 145.5,103.5 C 207.168,103.333 268.834,103.5 330.5,104C 338.5,110.333 338.5,116.667 330.5,123C 268.833,123.667 207.167,123.667 145.5,123C 139.458,119.252 137.958,114.085 141,107.5C 142.397,105.93 143.897,104.596 145.5,103.5 Z"/></g>
<g><path style="opacity:0.989" fill="#000000" d="M 145.5,158.5 C 190.835,158.333 236.168,158.5 281.5,159C 289.5,165.333 289.5,171.667 281.5,178C 236.167,178.667 190.833,178.667 145.5,178C 139.458,174.252 137.958,169.085 141,162.5C 142.397,160.93 143.897,159.596 145.5,158.5 Z"/></g>
<g><path style="opacity:0.977" fill="#000000" d="M 145.5,213.5 C 166.503,213.333 187.503,213.5 208.5,214C 214.864,218.34 216.031,223.84 212,230.5C 211.097,231.701 209.931,232.535 208.5,233C 187.5,233.667 166.5,233.667 145.5,233C 139.458,229.252 137.958,224.085 141,217.5C 142.397,215.93 143.897,214.596 145.5,213.5 Z"/></g>
<g><path style="opacity:0.944" fill="#000000" d="M 301.5,273.5 C 332.858,271.38 352.692,285.38 361,315.5C 363.357,347.792 348.857,367.625 317.5,375C 286.222,376.377 267.055,361.877 260,331.5C 258.622,301.074 272.455,281.741 301.5,273.5 Z M 304.5,294.5 C 291.748,298.089 283.914,306.422 281,319.5C 279.852,338.031 288.352,349.531 306.5,354C 330.464,353.7 341.63,341.533 340,317.5C 334.142,300.652 322.308,292.985 304.5,294.5 Z"/></g>
<g><path style="opacity:0.906" fill="#000000" d="M 85.5,303.5 C 97.3244,301.824 102.158,306.824 100,318.5C 96.3449,323.275 91.5116,324.775 85.5,323C 80.7255,319.345 79.2255,314.512 81,308.5C 82.3657,306.638 83.8657,304.972 85.5,303.5 Z"/></g>
</svg>
