<?xml version="1.0" encoding="UTF-8"?>
<!DOCTYPE svg PUBLIC "-//W3C//DTD SVG 1.1//EN" "http://www.w3.org/Graphics/SVG/1.1/DTD/svg11.dtd">
<svg xmlns="http://www.w3.org/2000/svg" version="1.1" width="512px" height="512px" style="shape-rendering:geometricPrecision; text-rendering:geometricPrecision; image-rendering:optimizeQuality; fill-rule:evenodd; clip-rule:evenodd" xmlns:xlink="http://www.w3.org/1999/xlink">
<g><path style="opacity:0.936" fill="#000000" d="M 93.5,28.5 C 159.168,28.3333 224.834,28.5 290.5,29C 307.555,33.3881 317.722,44.2214 321,61.5C 321.333,135.5 321.667,209.5 322,283.5C 329.833,291.333 337.667,299.167 345.5,307C 352.007,311.977 358.674,312.31 365.5,308C 372.332,299.826 380.332,293.159 389.5,288C 397.543,285.873 405.21,286.873 412.5,291C 423,301.5 433.5,312 444,322.5C 450.522,334.179 449.522,345.179 441,355.5C 426.167,370.333 411.333,385.167 396.5,400C 383.652,410.616 369.652,412.283 354.5,405C 343.363,394.863 332.529,384.363 322,373.5C 321.956,400.541 321.289,427.541 320,454.5C 315.32,469.18 305.487,478.346 290.5,482C 224.833,482.667 159.167,482.667 93.5,482C 76.4447,477.612 66.2781,466.779 63,449.5C 62.3333,320.167 62.3333,190.833 63,61.5C 66.4641,44.206 76.6307,33.206 93.5,28.5 Z M 95.5,45.5 C 159.834,45.3333 224.168,45.5 288.5,46C 295.573,48.0724 300.406,52.5724 303,59.5C 304.348,66.7608 304.848,74.0941 304.5,81.5C 229.5,81.5 154.5,81.5 79.5,81.5C 79.152,74.0941 79.652,66.7608 81,59.5C 83.774,52.5569 88.6073,47.8903 95.5,45.5 Z M 79.5,98.5 C 154.5,98.5 229.5,98.5 304.5,98.5C 304.667,154.168 304.5,209.834 304,265.5C 294.969,256.804 286.303,247.804 278,238.5C 276,233.5 276,228.5 278,223.5C 281.632,218.866 285.632,214.533 290,210.5C 299.558,197.044 299.891,183.378 291,169.5C 284.167,162.667 277.333,155.833 270.5,149C 256.25,140.072 242.25,140.405 228.5,150C 214,164.5 199.5,179 185,193.5C 175,207.833 175,222.167 185,236.5C 224.667,276.167 264.333,315.833 304,355.5C 304.5,376.164 304.667,396.831 304.5,417.5C 229.5,417.5 154.5,417.5 79.5,417.5C 79.5,311.167 79.5,204.833 79.5,98.5 Z M 246.5,159.5 C 251.618,158.889 256.285,160.056 260.5,163C 265.667,168.167 270.833,173.333 276,178.5C 280.74,184.442 281.407,190.775 278,197.5C 274.034,202.467 269.701,207.134 265,211.5C 258.053,223.653 257.72,235.986 264,248.5C 287.472,272.972 311.305,297.139 335.5,321C 348.146,329.542 361.146,330.209 374.5,323C 381.136,317.366 387.469,311.366 393.5,305C 396.998,303.033 400.332,303.367 403.5,306C 412,314.5 420.5,323 429,331.5C 431.721,334.638 432.054,337.971 430,341.5C 413.833,357.667 397.667,373.833 381.5,390C 375.472,393.265 369.472,393.265 363.5,390C 308,334.5 252.5,279 197,223.5C 193.27,216.405 193.936,209.739 199,203.5C 211.833,190.667 224.667,177.833 237.5,165C 240.263,162.626 243.263,160.792 246.5,159.5 Z M 79.5,434.5 C 154.5,434.5 229.5,434.5 304.5,434.5C 306.077,444.709 303.41,453.542 296.5,461C 294.112,462.861 291.446,464.194 288.5,465C 224.167,465.667 159.833,465.667 95.5,465C 86.8142,462.313 81.6475,456.479 80,447.5C 79.501,443.179 79.3343,438.846 79.5,434.5 Z"/></g>
<g><path style="opacity:0.931" fill="#000000" d="M 144.5,54.5 C 176.168,54.3334 207.835,54.5 239.5,55C 246.413,58.0763 247.913,62.9097 244,69.5C 243.25,70.1258 242.416,70.6258 241.5,71C 208.5,71.6667 175.5,71.6667 142.5,71C 135.612,64.5178 136.279,59.0178 144.5,54.5 Z"/></g>
<g><path style="opacity:0.909" fill="#000000" d="M 137.5,385.5 C 150.098,382.932 155.265,387.932 153,400.5C 152.535,401.931 151.701,403.097 150.5,404C 136.854,408.351 131.354,403.518 134,389.5C 135.376,388.295 136.542,386.962 137.5,385.5 Z"/></g>
<g><path style="opacity:0.892" fill="#000000" d="M 180.5,385.5 C 193.847,383.214 198.681,388.547 195,401.5C 193.833,402.667 192.667,403.833 191.5,405C 178.863,408.028 173.696,403.195 176,390.5C 177.025,388.313 178.525,386.646 180.5,385.5 Z"/></g>
<g><path style="opacity:0.909" fill="#000000" d="M 222.5,385.5 C 235.098,382.932 240.265,387.932 238,400.5C 237.535,401.931 236.701,403.097 235.5,404C 221.854,408.351 216.354,403.518 219,389.5C 220.376,388.295 221.542,386.962 222.5,385.5 Z"/></g>
</svg>
