<?xml version="1.0" encoding="UTF-8"?>
<!DOCTYPE svg PUBLIC "-//W3C//DTD SVG 1.1//EN" "http://www.w3.org/Graphics/SVG/1.1/DTD/svg11.dtd">
<svg xmlns="http://www.w3.org/2000/svg" version="1.1" width="512px" height="512px" style="shape-rendering:geometricPrecision; text-rendering:geometricPrecision; image-rendering:optimizeQuality; fill-rule:evenodd; clip-rule:evenodd" xmlns:xlink="http://www.w3.org/1999/xlink">
<g><path style="opacity:0.968" fill="#000000" d="M 325.5,-0.5 C 329.5,-0.5 333.5,-0.5 337.5,-0.5C 341.479,1.31481 344.312,4.31481 346,8.5C 346.667,23.1667 346.667,37.8333 346,52.5C 340.848,61.4747 333.348,63.9747 323.5,60C 320.527,58.2352 318.36,55.7352 317,52.5C 316.333,37.8333 316.333,23.1667 317,8.5C 318.688,4.31481 321.521,1.31481 325.5,-0.5 Z"/></g>
<g><path style="opacity:0.935" fill="#000000" d="M 210.5,49.5 C 216.541,48.5928 221.874,50.0928 226.5,54C 233.333,60.8333 240.167,67.6667 247,74.5C 253.115,82.4679 252.948,90.3012 246.5,98C 240.339,102.167 234.006,102.501 227.5,99C 216.921,90.4234 207.755,80.5901 200,69.5C 198.031,59.7647 201.531,53.098 210.5,49.5 Z"/></g>
<g><path style="opacity:0.935" fill="#000000" d="M 443.5,49.5 C 457.984,48.4829 464.484,55.1496 463,69.5C 461.92,71.9962 460.586,74.3295 459,76.5C 452.167,83.3333 445.333,90.1667 438.5,97C 427.151,104.637 418.318,102.47 412,90.5C 410.595,84.4653 411.928,79.132 416,74.5C 424.465,65.1928 433.631,56.8595 443.5,49.5 Z"/></g>
<g><path style="opacity:0.984" fill="#000000" d="M 386.5,511.5 C 351.167,511.5 315.833,511.5 280.5,511.5C 246.847,502.628 213.014,493.961 179,485.5C 171.202,498.633 160.035,507.3 145.5,511.5C 119.833,511.5 94.1667,511.5 68.5,511.5C 64.5212,509.685 61.6878,506.685 60,502.5C 59.5004,495.508 59.3337,488.508 59.5,481.5C 42.4967,481.667 25.4967,481.5 8.5,481C 4.31481,479.312 1.31481,476.479 -0.5,472.5C -0.5,398.5 -0.5,324.5 -0.5,250.5C 1.31481,246.521 4.31481,243.688 8.5,242C 60.5,241.667 112.5,241.333 164.5,241C 195.129,232.457 225.129,222.124 254.5,210C 260.534,206.972 265.701,202.805 270,197.5C 290.037,168.387 300.704,136.054 302,100.5C 305.499,93.1663 311.332,90.1663 319.5,91.5C 352.94,94.0973 374.774,111.431 385,143.5C 387.79,154.431 388.123,165.431 386,176.5C 382.717,198.3 377.55,219.633 370.5,240.5C 395.827,241.333 421.16,241.833 446.5,242C 472.767,250.68 484.267,268.847 481,296.5C 479.146,303.871 475.98,310.538 471.5,316.5C 482.258,331.577 484.424,347.911 478,365.5C 472.267,378.073 462.767,386.073 449.5,389.5C 455.995,413.192 449.328,432.025 429.5,446C 426.395,447.868 423.062,449.035 419.5,449.5C 426.538,480.054 415.538,500.721 386.5,511.5 Z M 330.5,124.5 C 346.148,131.831 354.814,144.164 356.5,161.5C 353.32,192.89 345.153,222.89 332,251.5C 329.462,260.923 332.629,267.423 341.5,271C 373.167,271.333 404.833,271.667 436.5,272C 450.528,275.563 454.028,283.729 447,296.5C 444.044,299.227 440.544,300.727 436.5,301C 404.5,301.333 372.5,301.667 340.5,302C 331.525,307.152 329.025,314.652 333,324.5C 334.765,327.473 337.265,329.64 340.5,331C 374.206,331.035 407.873,331.702 441.5,333C 451.457,339.163 453.124,347.163 446.5,357C 443.624,359.437 440.29,360.77 436.5,361C 404.5,361.333 372.5,361.667 340.5,362C 332.085,366.348 329.252,373.181 332,382.5C 333.5,386.667 336.333,389.5 340.5,391C 362.5,391.333 384.5,391.667 406.5,392C 420.528,395.563 424.028,403.729 417,416.5C 415.167,417.667 413.333,418.833 411.5,420C 387.875,421.283 364.208,421.949 340.5,422C 332.085,426.348 329.252,433.181 332,442.5C 333.5,446.667 336.333,449.5 340.5,451C 352.5,451.333 364.5,451.667 376.5,452C 390.528,455.563 394.028,463.729 387,476.5C 385.167,477.667 383.333,478.833 381.5,480C 350.54,481.628 319.54,481.962 288.5,481C 252.856,472.006 217.19,463.172 181.5,454.5C 181.167,392.496 181.5,330.496 182.5,268.5C 212.533,259.878 241.867,249.378 270.5,237C 289.692,224.468 303.859,207.635 313,186.5C 321.985,166.713 327.818,146.046 330.5,124.5 Z M 29.5,271.5 C 39.5,271.5 49.5,271.5 59.5,271.5C 59.5,331.5 59.5,391.5 59.5,451.5C 49.5,451.5 39.5,451.5 29.5,451.5C 29.5,391.5 29.5,331.5 29.5,271.5 Z M 89.5,271.5 C 110.167,271.5 130.833,271.5 151.5,271.5C 151.983,338.204 151.483,404.87 150,471.5C 147.187,476.996 142.687,480.162 136.5,481C 120.837,481.5 105.17,481.667 89.5,481.5C 89.5,411.5 89.5,341.5 89.5,271.5 Z"/></g>
<g><path style="opacity:0.967" fill="#000000" d="M 160.5,166.5 C 174.504,166.333 188.504,166.5 202.5,167C 210.915,171.348 213.748,178.181 211,187.5C 209.5,191.667 206.667,194.5 202.5,196C 188.5,196.667 174.5,196.667 160.5,196C 151.525,190.848 149.025,183.348 153,173.5C 155.015,170.588 157.515,168.255 160.5,166.5 Z"/></g>
<g><path style="opacity:0.967" fill="#000000" d="M 511.5,175.5 C 511.5,179.5 511.5,183.5 511.5,187.5C 509.685,191.479 506.685,194.312 502.5,196C 488.5,196.667 474.5,196.667 460.5,196C 451.525,190.848 449.025,183.348 453,173.5C 454.765,170.527 457.265,168.36 460.5,167C 474.5,166.333 488.5,166.333 502.5,167C 506.685,168.688 509.685,171.521 511.5,175.5 Z"/></g>
</svg>
