<?xml version="1.0" encoding="UTF-8"?>
<!DOCTYPE svg PUBLIC "-//W3C//DTD SVG 1.1//EN" "http://www.w3.org/Graphics/SVG/1.1/DTD/svg11.dtd">
<svg xmlns="http://www.w3.org/2000/svg" version="1.1" width="512px" height="512px" style="shape-rendering:geometricPrecision; text-rendering:geometricPrecision; image-rendering:optimizeQuality; fill-rule:evenodd; clip-rule:evenodd" xmlns:xlink="http://www.w3.org/1999/xlink">
<g><path style="opacity:0.927" fill="#000000" d="M 176.5,16.5 C 230.168,16.3333 283.834,16.5 337.5,17C 340.102,17.8834 342.269,19.3834 344,21.5C 346.608,30.0568 348.941,38.7235 351,47.5C 358.563,66.0628 371.73,78.8962 390.5,86C 394.381,88.9276 396.881,92.7609 398,97.5C 393.483,169.026 364.983,228.859 312.5,277C 296.52,289.998 279.186,300.998 260.5,310C 257.833,310.667 255.167,310.667 252.5,310C 198.158,284.658 158.992,244.491 135,189.5C 123.927,163.874 116.593,137.207 113,109.5C 111.146,101.067 113.312,93.9002 119.5,88C 136.884,80.6158 149.717,68.4492 158,51.5C 160.759,41.8215 163.426,32.1549 166,22.5C 169.069,19.5545 172.569,17.5545 176.5,16.5 Z M 326.5,31.5 C 328.167,31.5 329.833,31.5 331.5,31.5C 335.161,64.1617 351.995,87.1617 382,100.5C 376.119,171.108 345.953,228.608 291.5,273C 280.459,280.868 268.793,287.701 256.5,293.5C 205.863,268.948 169.696,230.615 148,178.5C 137.541,153.802 131.208,128.136 129,101.5C 158.452,87.8693 174.952,64.8693 178.5,32.5C 228.003,32.8322 277.336,32.4989 326.5,31.5 Z"/></g>
<g><path style="opacity:0.926" fill="#000000" d="M 197.5,44.5 C 237.919,44.0116 278.252,44.5116 318.5,46C 319.667,47.1667 320.833,48.3333 322,49.5C 329.465,73.6367 343.965,92.1367 365.5,105C 368.331,109.441 369.164,114.274 368,119.5C 366.589,127.223 364.922,134.89 363,142.5C 359.58,146.753 355.413,147.587 350.5,145C 348.556,143.278 347.556,141.111 347.5,138.5C 349.168,131.157 350.835,123.824 352.5,116.5C 331.421,103.008 317.088,84.341 309.5,60.5C 273.494,60.1668 237.494,60.5001 201.5,61.5C 193.196,84.8028 178.863,103.47 158.5,117.5C 160.484,124.921 162.151,132.421 163.5,140C 161.924,147.451 157.591,149.451 150.5,146C 149.299,145.097 148.465,143.931 148,142.5C 144.643,132.056 142.976,121.389 143,110.5C 146.913,105.289 151.746,101.123 157.5,98C 172.128,85.0373 182.294,69.204 188,50.5C 190.551,47.3191 193.718,45.3191 197.5,44.5 Z"/></g>
<g><path style="opacity:0.915" fill="#000000" d="M 301.5,105.5 C 308.648,106.497 311.148,110.497 309,117.5C 292.12,144.097 274.62,170.264 256.5,196C 253.5,198 250.5,198 247.5,196C 236.333,185.5 225.167,175 214,164.5C 210.785,155.42 213.952,151.253 223.5,152C 232.949,159.612 241.949,167.779 250.5,176.5C 265.333,154.167 280.167,131.833 295,109.5C 296.792,107.372 298.958,106.039 301.5,105.5 Z"/></g>
<g><path style="opacity:0.919" fill="#000000" d="M 165.5,163.5 C 168.192,164.009 170.692,165.009 173,166.5C 189.921,208.022 217.755,240.022 256.5,262.5C 294.26,239.567 321.427,207.567 338,166.5C 341.719,163.098 345.886,162.598 350.5,165C 351.894,166.739 352.561,168.739 352.5,171C 336.32,215.522 307.986,250.188 267.5,275C 264.056,277.056 260.389,278.556 256.5,279.5C 243.917,274.21 232.251,267.376 221.5,259C 193.728,235.951 172.894,207.784 159,174.5C 158.103,168.953 160.27,165.287 165.5,163.5 Z"/></g>
<g><path style="opacity:0.938" fill="#000000" d="M 511.5,336.5 C 511.5,341.833 511.5,347.167 511.5,352.5C 508.401,361.131 503.068,368.297 495.5,374C 465.535,400.296 435.868,426.963 406.5,454C 395.994,463.754 383.661,470.087 369.5,473C 315.114,481.436 260.614,488.936 206,495.5C 198.549,496.032 191.382,494.865 184.5,492C 156.238,481.358 128.072,470.525 100,459.5C 100.374,470.945 95.2072,478.445 84.5,482C 60.8333,482.667 37.1667,482.667 13.5,482C 7.13581,480.127 2.46914,476.294 -0.5,470.5C -0.5,401.833 -0.5,333.167 -0.5,264.5C 1.01922,261.979 2.68589,259.479 4.5,257C 6.88772,255.139 9.55438,253.806 12.5,253C 37.8959,252.028 63.2293,252.362 88.5,254C 93.1474,256.106 96.314,259.606 98,264.5C 98.9734,273.037 99.8067,281.537 100.5,290C 113.25,290.75 125.583,293.417 137.5,298C 153.646,306.574 169.979,314.907 186.5,323C 190.363,324.732 194.363,326.066 198.5,327C 232.162,330.055 265.828,333.055 299.5,336C 327.189,339.189 342.189,354.689 344.5,382.5C 351.495,383.167 358.495,383.333 365.5,383C 397.833,361.333 430.167,339.667 462.5,318C 485.273,307.531 501.607,313.698 511.5,336.5 Z M 16.5,268.5 C 38.1692,268.333 59.8359,268.5 81.5,269C 82.1258,269.75 82.6258,270.584 83,271.5C 83.3333,290.167 83.6667,308.833 84,327.5C 88.6667,332.833 93.3333,332.833 98,327.5C 99.1823,320.229 99.8489,312.896 100,305.5C 110.736,306.808 121.236,309.308 131.5,313C 146.167,320.667 160.833,328.333 175.5,336C 180.678,338.393 186.012,340.393 191.5,342C 230.562,345.581 269.562,349.581 308.5,354C 320.81,359.486 327.476,368.986 328.5,382.5C 281.997,385.396 235.497,388.396 189,391.5C 182.465,390.649 176.965,387.816 172.5,383C 162.355,382.72 159.522,387.22 164,396.5C 170.731,403.281 178.898,406.947 188.5,407.5C 233.169,404.75 277.836,401.917 322.5,399C 338.507,398.699 354.507,398.699 370.5,399C 405.167,376 439.833,353 474.5,330C 484.11,327.054 490.943,330.22 495,339.5C 496.041,344.44 495.374,349.106 493,353.5C 457.798,385.704 422.298,417.537 386.5,449C 378.731,453.59 370.398,456.59 361.5,458C 309.345,465.594 257.179,473.094 205,480.5C 200.012,479.969 195.178,478.802 190.5,477C 160.539,465.402 130.539,453.902 100.5,442.5C 99.6668,413.839 99.1668,385.172 99,356.5C 97.4443,349.828 93.2777,347.661 86.5,350C 85.6667,350.833 84.8333,351.667 84,352.5C 83.9879,390.251 83.3212,427.918 82,465.5C 60.2395,466.66 38.4062,466.827 16.5,466C 15.8742,465.25 15.3742,464.416 15,463.5C 14.3333,399.5 14.3333,335.5 15,271.5C 15.5133,270.473 16.0133,269.473 16.5,268.5 Z M 45.5,415.5 C 55.3112,415.81 59.4778,420.81 58,430.5C 54.2303,437.414 48.7303,439.247 41.5,436C 34.1819,427.459 35.5152,420.625 45.5,415.5 Z"/></g>
<g><path style="opacity:0.927" fill="#000000" d="M 44.5,399.5 C 65.8234,400.32 75.6568,411.32 74,432.5C 68.787,448.864 57.6204,455.697 40.5,453C 25.7988,447.623 19.2988,437.123 21,421.5C 24.5608,409.434 32.3942,402.101 44.5,399.5 Z M 45.5,415.5 C 35.5152,420.625 34.1819,427.459 41.5,436C 48.7303,439.247 54.2303,437.414 58,430.5C 59.4778,420.81 55.3112,415.81 45.5,415.5 Z"/></g>
</svg>
