<?xml version="1.0" encoding="UTF-8"?>
<!DOCTYPE svg PUBLIC "-//W3C//DTD SVG 1.1//EN" "http://www.w3.org/Graphics/SVG/1.1/DTD/svg11.dtd">
<svg xmlns="http://www.w3.org/2000/svg" version="1.1" width="512px" height="512px" style="shape-rendering:geometricPrecision; text-rendering:geometricPrecision; image-rendering:optimizeQuality; fill-rule:evenodd; clip-rule:evenodd" xmlns:xlink="http://www.w3.org/1999/xlink">
<g><path style="opacity:0.931" fill="#000000" d="M 32.5,23.5 C 161.167,23.3333 289.834,23.5 418.5,24C 428.443,26.942 434.609,33.442 437,43.5C 437.333,108.167 437.667,172.833 438,237.5C 439.385,238.551 440.385,239.884 441,241.5C 446.401,257.204 451.901,272.871 457.5,288.5C 487.95,290.44 501.117,306.44 497,336.5C 495.861,340.112 494.194,343.446 492,346.5C 488.434,350.066 484.934,353.566 481.5,357C 486.527,372.219 491.694,387.386 497,402.5C 499.5,417.662 493.167,426.328 478,428.5C 468.364,427.862 461.864,423.028 458.5,414C 428.806,412.022 399.14,410.855 369.5,410.5C 373.964,426.058 379.13,441.391 385,456.5C 389.012,474.647 381.845,484.98 363.5,487.5C 355.314,487.49 348.814,484.157 344,477.5C 340.402,468.205 336.902,458.872 333.5,449.5C 232.835,448.667 132.168,448.167 31.5,448C 21.5664,445.067 15.3998,438.567 13,428.5C 12.3333,300.167 12.3333,171.833 13,43.5C 15.691,32.977 22.191,26.3104 32.5,23.5 Z M 35.5,37.5 C 161.834,37.3333 288.167,37.5 414.5,38C 418.641,39.4741 421.474,42.3074 423,46.5C 423.5,72.8312 423.667,99.1646 423.5,125.5C 335.833,125.667 248.166,125.5 160.5,125C 149.53,113.029 138.196,101.362 126.5,90C 124.608,89.0266 122.608,88.3599 120.5,88C 103.833,87.3333 87.1667,87.3333 70.5,88C 63.6667,89.5 59.5,93.6667 58,100.5C 57.8173,108.745 57.3173,116.912 56.5,125C 46.5056,125.5 36.5056,125.666 26.5,125.5C 26.3334,99.1646 26.5,72.8312 27,46.5C 28.6878,42.3148 31.5212,39.3148 35.5,37.5 Z M 270.5,71.5 C 278.761,72.0326 282.261,76.3659 281,84.5C 277.608,90.4667 272.774,91.9667 266.5,89C 260.72,81.5128 262.053,75.6795 270.5,71.5 Z M 325.5,71.5 C 335.432,73.1526 338.266,78.4859 334,87.5C 327.597,92.1569 322.263,91.1569 318,84.5C 316.91,78.0047 319.41,73.6714 325.5,71.5 Z M 379.5,71.5 C 388.014,71.843 391.514,76.1763 390,84.5C 387.367,89.7315 383.201,91.5649 377.5,90C 369.242,82.9231 369.909,76.7564 379.5,71.5 Z M 73.5,101.5 C 88.5037,101.333 103.504,101.5 118.5,102C 129.47,113.971 140.804,125.638 152.5,137C 154.087,137.862 155.754,138.529 157.5,139C 246.166,139.5 334.833,139.667 423.5,139.5C 423.5,169.833 423.5,200.167 423.5,230.5C 407.566,232.693 401.232,241.693 404.5,257.5C 402.167,260.5 399.5,263.167 396.5,265.5C 395.667,238.506 395.167,211.506 395,184.5C 394.4,174.894 389.567,168.394 380.5,165C 276.833,164.333 173.167,164.333 69.5,165C 63,167.5 58.5,172 56,178.5C 55.3333,250.5 55.3333,322.5 56,394.5C 58.5936,401.428 63.4269,405.928 70.5,408C 139.5,408.333 208.5,408.667 277.5,409C 290.314,423.271 306.148,428.771 325,425.5C 326.069,428.208 327.236,430.875 328.5,433.5C 230.835,434.667 133.168,434.833 35.5,434C 31.3333,432.5 28.5,429.667 27,425.5C 26.5,330.167 26.3333,234.834 26.5,139.5C 37.8382,139.667 49.1716,139.5 60.5,139C 65.5732,137.594 69.0732,134.428 71,129.5C 71.3333,120.833 71.6667,112.167 72,103.5C 72.7172,102.956 73.2172,102.289 73.5,101.5 Z M 73.5,178.5 C 174.501,178.333 275.501,178.5 376.5,179C 377.416,179.374 378.25,179.874 379,180.5C 380.652,213.415 380.985,246.415 380,279.5C 367.167,291 354.333,302.5 341.5,314C 325.833,319.667 310.167,325.333 294.5,331C 269.7,345.447 261.033,366.614 268.5,394.5C 203.832,394.667 139.166,394.5 74.5,394C 72.714,393.215 71.214,392.049 70,390.5C 69.3333,321.167 69.3333,251.833 70,182.5C 70.6897,180.65 71.8564,179.316 73.5,178.5 Z M 247.5,213.5 C 259.167,213.5 270.833,213.5 282.5,213.5C 282.5,237.167 282.5,260.833 282.5,284.5C 270.86,285.388 259.193,285.721 247.5,285.5C 247.5,261.5 247.5,237.5 247.5,213.5 Z M 421.5,244.5 C 424.099,244.549 426.266,245.549 428,247.5C 446.333,299.833 464.667,352.167 483,404.5C 484.648,412.187 481.814,415.021 474.5,413C 454.808,359.091 435.808,304.924 417.5,250.5C 417.67,247.674 419.003,245.674 421.5,244.5 Z M 408.5,273.5 C 409.497,273.47 410.164,273.97 410.5,275C 424.932,316.129 439.265,357.296 453.5,398.5C 452.167,398.833 450.833,399.167 449.5,399.5C 427.181,398.128 404.848,396.961 382.5,396C 380.567,395.749 378.734,395.249 377,394.5C 368.636,371.075 360.469,347.575 352.5,324C 370.95,306.939 389.617,290.106 408.5,273.5 Z M 462.5,304.5 C 472.102,303.851 478.935,308.184 483,317.5C 486.016,326.946 483.849,334.946 476.5,341.5C 471.807,329.077 467.141,316.744 462.5,304.5 Z M 337.5,330.5 C 338.496,330.414 339.329,330.748 340,331.5C 347.444,353.834 355.278,376.001 363.5,398C 349.621,403.071 335.621,407.737 321.5,412C 296.723,413.064 282.723,401.231 279.5,376.5C 280.624,362.736 286.957,352.236 298.5,345C 311.637,340.236 324.637,335.402 337.5,330.5 Z M 352.5,416.5 C 354.911,416.137 356.411,417.137 357,419.5C 362.306,434.614 367.473,449.781 372.5,465C 369.123,474.312 363.623,475.812 356,469.5C 350.58,453.736 345.08,438.069 339.5,422.5C 343.732,420.098 348.065,418.098 352.5,416.5 Z"/></g>
<g><path style="opacity:0.918" fill="#000000" d="M 268.5,57.5 C 288.172,58.0022 297.005,68.0022 295,87.5C 289.88,101.149 280.047,106.649 265.5,104C 252.929,99.0918 247.429,89.9251 249,76.5C 251.562,65.9947 258.062,59.6614 268.5,57.5 Z M 270.5,71.5 C 262.053,75.6795 260.72,81.5128 266.5,89C 272.774,91.9667 277.608,90.4667 281,84.5C 282.261,76.3659 278.761,72.0326 270.5,71.5 Z"/></g>
<g><path style="opacity:0.919" fill="#000000" d="M 323.5,57.5 C 341.802,57.9664 350.635,67.2997 350,85.5C 345.605,100.955 335.438,107.122 319.5,104C 304.321,96.7938 299.821,85.2938 306,69.5C 310.133,62.8624 315.967,58.8624 323.5,57.5 Z M 325.5,71.5 C 319.41,73.6714 316.91,78.0047 318,84.5C 322.263,91.1569 327.597,92.1569 334,87.5C 338.266,78.4859 335.432,73.1526 325.5,71.5 Z"/></g>
<g><path style="opacity:0.915" fill="#000000" d="M 377.5,57.5 C 393.713,57.2171 403.046,65.0505 405.5,81C 401.703,101.765 389.703,108.765 369.5,102C 356.964,92.6895 354.464,81.1895 362,67.5C 366.205,62.4922 371.372,59.1589 377.5,57.5 Z M 379.5,71.5 C 369.909,76.7564 369.242,82.9231 377.5,90C 383.201,91.5649 387.367,89.7315 390,84.5C 391.514,76.1763 388.014,71.843 379.5,71.5 Z"/></g>
<g><path style="opacity:0.911" fill="#000000" d="M 123.5,199.5 C 144.706,199.871 155.206,210.538 155,231.5C 150.667,236.833 146.333,236.833 142,231.5C 141.692,221.53 136.692,215.53 127,213.5C 114.469,216.896 110.803,224.562 116,236.5C 120.74,241.416 126.573,243.582 133.5,243C 149.615,248.392 156.782,259.559 155,276.5C 151.092,290.381 141.925,298.047 127.5,299.5C 110.407,297.574 100.741,288.074 98.5,271C 100.109,264.196 104.109,262.196 110.5,265C 112.681,268.872 114.181,273.039 115,277.5C 119.904,284.506 126.404,286.339 134.5,283C 144.079,274.179 143.745,265.846 133.5,258C 125.824,257.248 118.491,255.248 111.5,252C 98.4593,240.639 95.9593,227.139 104,211.5C 109.187,205.104 115.687,201.104 123.5,199.5 Z"/></g>
<g><path style="opacity:0.919" fill="#000000" d="M 179.5,199.5 C 192.171,199.333 204.838,199.5 217.5,200C 223.353,203.451 224.019,207.785 219.5,213C 207.505,213.5 195.505,213.667 183.5,213.5C 183.5,223.167 183.5,232.833 183.5,242.5C 195.171,242.333 206.838,242.5 218.5,243C 223.808,247.237 223.808,251.571 218.5,256C 206.838,256.5 195.171,256.667 183.5,256.5C 183.5,265.833 183.5,275.167 183.5,284.5C 194.505,284.333 205.505,284.5 216.5,285C 222.292,287.09 223.792,290.924 221,296.5C 219.829,297.893 218.329,298.727 216.5,299C 203.443,299.922 190.443,299.589 177.5,298C 174.667,296.5 172.5,294.333 171,291.5C 169.359,264.229 169.026,236.895 170,209.5C 171.35,204.319 174.517,200.986 179.5,199.5 Z"/></g>
<g><path style="opacity:0.928" fill="#000000" d="M 244.5,199.5 C 258.171,199.333 271.837,199.5 285.5,200C 290.681,200.831 294.181,203.664 296,208.5C 296.667,235.833 296.667,263.167 296,290.5C 294.719,294.237 292.219,296.737 288.5,298C 274.222,299.597 259.889,299.93 245.5,299C 239.9,298.459 236.066,295.626 234,290.5C 233.333,263.167 233.333,235.833 234,208.5C 236.103,203.722 239.603,200.722 244.5,199.5 Z M 247.5,213.5 C 247.5,237.5 247.5,261.5 247.5,285.5C 259.193,285.721 270.86,285.388 282.5,284.5C 282.5,260.833 282.5,237.167 282.5,213.5C 270.833,213.5 259.167,213.5 247.5,213.5 Z"/></g>
<g><path style="opacity:0.933" fill="#000000" d="M 103.5,326.5 C 144.835,326.333 186.168,326.5 227.5,327C 233.487,330.943 233.821,335.276 228.5,340C 186.5,340.667 144.5,340.667 102.5,340C 97.194,335.102 97.5274,330.602 103.5,326.5 Z"/></g>
<g><path style="opacity:0.932" fill="#000000" d="M 103.5,354.5 C 132.502,354.333 161.502,354.5 190.5,355C 195.626,357.553 196.793,361.386 194,366.5C 193.25,367.126 192.416,367.626 191.5,368C 161.833,368.667 132.167,368.667 102.5,368C 97.2264,363.059 97.5597,358.559 103.5,354.5 Z"/></g>
</svg>
