<?xml version="1.0" encoding="UTF-8"?>
<!DOCTYPE svg PUBLIC "-//W3C//DTD SVG 1.1//EN" "http://www.w3.org/Graphics/SVG/1.1/DTD/svg11.dtd">
<svg xmlns="http://www.w3.org/2000/svg" version="1.1" width="512px" height="512px" style="shape-rendering:geometricPrecision; text-rendering:geometricPrecision; image-rendering:optimizeQuality; fill-rule:evenodd; clip-rule:evenodd" xmlns:xlink="http://www.w3.org/1999/xlink">
<g><path style="opacity:0.916" fill="#000000" d="M 36.5,7.5 C 182.5,7.33333 328.5,7.5 474.5,8C 489.56,10.7266 498.726,19.5599 502,34.5C 502.667,182.167 502.667,329.833 502,477.5C 498.605,492.228 489.438,500.728 474.5,503C 328.5,503.667 182.5,503.667 36.5,503C 21.4402,500.273 12.2735,491.44 9,476.5C 8.33333,329.167 8.33333,181.833 9,34.5C 12.4529,19.5496 21.6196,10.5496 36.5,7.5 Z M 36.5,22.5 C 182.5,22.3333 328.5,22.5 474.5,23C 480.247,25.0789 484.414,28.9122 487,34.5C 487.5,49.8297 487.667,65.163 487.5,80.5C 332.833,80.5 178.167,80.5 23.5,80.5C 23.3334,65.163 23.5001,49.8297 24,34.5C 26.769,28.8947 30.9356,24.8947 36.5,22.5 Z M 68.5,43.5 C 77.5868,44.0174 80.2535,48.3507 76.5,56.5C 69.7368,61.129 65.0702,59.4623 62.5,51.5C 63.4058,47.9383 65.4058,45.2716 68.5,43.5 Z M 124.5,43.5 C 132.357,44.1648 135.19,48.1648 133,55.5C 126.325,61.4288 121.492,60.0955 118.5,51.5C 119.401,47.9421 121.401,45.2754 124.5,43.5 Z M 180.5,43.5 C 188.179,44.0177 191.012,48.0177 189,55.5C 185.336,60.1238 181.169,60.6238 176.5,57C 173.029,50.9195 174.362,46.4195 180.5,43.5 Z M 23.5,95.5 C 178.5,95.5 333.5,95.5 488.5,95.5C 488.667,220.834 488.5,346.167 488,471.5C 486.919,479.843 482.419,485.343 474.5,488C 328.5,488.667 182.5,488.667 36.5,488C 30.7531,485.921 26.5864,482.088 24,476.5C 23.5,349.5 23.3333,222.5 23.5,95.5 Z M 141.5,135.5 C 143.833,135.5 146.167,135.5 148.5,135.5C 148.832,145.19 148.498,154.856 147.5,164.5C 115.432,170.401 96.5985,189.401 91,221.5C 89.0409,239.501 93.5409,255.667 104.5,270C 97.6667,276.833 90.8333,283.667 84,290.5C 61.0971,262.427 55.4304,231.093 67,196.5C 81.2109,163.116 106.044,142.783 141.5,135.5 Z M 162.5,135.5 C 200.227,139.775 227.06,159.108 243,193.5C 246.764,202.82 248.93,212.487 249.5,222.5C 239.81,222.832 230.144,222.498 220.5,221.5C 214.502,189.502 195.502,170.502 163.5,164.5C 162.502,154.856 162.168,145.19 162.5,135.5 Z M 312.5,146.5 C 321.167,146.5 329.833,146.5 338.5,146.5C 338.5,155.167 338.5,163.833 338.5,172.5C 329.833,172.5 321.167,172.5 312.5,172.5C 312.5,163.833 312.5,155.167 312.5,146.5 Z M 154.5,178.5 C 185.666,181.166 202.666,198 205.5,229C 204.804,251.029 194.47,266.695 174.5,276C 143.484,284.906 121.317,274.739 108,245.5C 101.087,214.49 112.254,192.99 141.5,181C 145.965,180.126 150.298,179.293 154.5,178.5 Z M 312.5,212.5 C 321.167,212.5 329.833,212.5 338.5,212.5C 338.5,221.167 338.5,229.833 338.5,238.5C 329.833,238.5 321.167,238.5 312.5,238.5C 312.5,229.833 312.5,221.167 312.5,212.5 Z M 220.5,236.5 C 230.167,236.5 239.833,236.5 249.5,236.5C 243.002,284.499 216.002,313.332 168.5,323C 140.483,326.501 115.816,319.168 94.5,301C 101.333,294.167 108.167,287.333 115,280.5C 144.347,300.059 172.847,298.892 200.5,277C 211.818,265.864 218.484,252.364 220.5,236.5 Z M 407.5,290.5 C 417.167,290.5 426.833,290.5 436.5,290.5C 436.5,343.167 436.5,395.833 436.5,448.5C 426.833,448.5 417.167,448.5 407.5,448.5C 407.5,395.833 407.5,343.167 407.5,290.5 Z M 273.5,332.5 C 283.5,332.5 293.5,332.5 303.5,332.5C 303.5,371.167 303.5,409.833 303.5,448.5C 293.5,448.5 283.5,448.5 273.5,448.5C 273.5,409.833 273.5,371.167 273.5,332.5 Z M 139.5,387.5 C 149.5,387.5 159.5,387.5 169.5,387.5C 169.5,407.833 169.5,428.167 169.5,448.5C 159.5,448.5 149.5,448.5 139.5,448.5C 139.5,428.167 139.5,407.833 139.5,387.5 Z M 340.5,399.5 C 350.5,399.5 360.5,399.5 370.5,399.5C 370.5,415.833 370.5,432.167 370.5,448.5C 360.5,448.5 350.5,448.5 340.5,448.5C 340.5,432.167 340.5,415.833 340.5,399.5 Z M 206.5,418.5 C 216.5,418.5 226.5,418.5 236.5,418.5C 236.5,428.5 236.5,438.5 236.5,448.5C 226.5,448.5 216.5,448.5 206.5,448.5C 206.5,438.5 206.5,428.5 206.5,418.5 Z"/></g>
<g><path style="opacity:0.92" fill="#000000" d="M 63.5,29.5 C 85.5772,27.7408 95.0772,37.7408 92,59.5C 84.061,74.0319 72.561,77.5319 57.5,70C 48.7012,62.5973 46.2012,53.4306 50,42.5C 53.0762,36.5887 57.5762,32.2554 63.5,29.5 Z M 68.5,43.5 C 65.4058,45.2716 63.4058,47.9383 62.5,51.5C 65.0702,59.4623 69.7368,61.129 76.5,56.5C 80.2535,48.3507 77.5868,44.0174 68.5,43.5 Z"/></g>
<g><path style="opacity:0.931" fill="#000000" d="M 119.5,29.5 C 132.891,27.2775 142.391,32.2775 148,44.5C 150.717,57.9001 145.884,67.4001 133.5,73C 120.1,75.717 110.6,70.8836 105,58.5C 102.414,45.0057 107.247,35.339 119.5,29.5 Z M 124.5,43.5 C 121.401,45.2754 119.401,47.9421 118.5,51.5C 121.492,60.0955 126.325,61.4288 133,55.5C 135.19,48.1648 132.357,44.1648 124.5,43.5 Z"/></g>
<g><path style="opacity:0.918" fill="#000000" d="M 175.5,29.5 C 192.749,27.1028 202.416,34.4361 204.5,51.5C 201.628,70.1182 190.961,76.9516 172.5,72C 161.349,65.5234 157.516,56.0234 161,43.5C 163.774,36.5569 168.607,31.8903 175.5,29.5 Z M 180.5,43.5 C 174.362,46.4195 173.029,50.9195 176.5,57C 181.169,60.6238 185.336,60.1238 189,55.5C 191.012,48.0177 188.179,44.0177 180.5,43.5 Z"/></g>
<g><path style="opacity:0.922" fill="#000000" d="M 143.5,120.5 C 199.442,118.366 237.942,143.033 259,194.5C 271.775,238.904 261.941,277.404 229.5,310C 189.632,342.357 146.632,347.024 100.5,324C 62.1514,299.472 44.3181,264.305 47,218.5C 56.2194,163.115 88.386,130.448 143.5,120.5 Z M 141.5,135.5 C 106.044,142.783 81.2109,163.116 67,196.5C 55.4304,231.093 61.0971,262.427 84,290.5C 90.8333,283.667 97.6667,276.833 104.5,270C 93.5409,255.667 89.0409,239.501 91,221.5C 96.5985,189.401 115.432,170.401 147.5,164.5C 148.498,154.856 148.832,145.19 148.5,135.5C 146.167,135.5 143.833,135.5 141.5,135.5 Z M 162.5,135.5 C 162.168,145.19 162.502,154.856 163.5,164.5C 195.502,170.502 214.502,189.502 220.5,221.5C 230.144,222.498 239.81,222.832 249.5,222.5C 248.93,212.487 246.764,202.82 243,193.5C 227.06,159.108 200.227,139.775 162.5,135.5 Z M 154.5,178.5 C 150.298,179.293 145.965,180.126 141.5,181C 112.254,192.99 101.087,214.49 108,245.5C 121.317,274.739 143.484,284.906 174.5,276C 194.47,266.695 204.804,251.029 205.5,229C 202.666,198 185.666,181.166 154.5,178.5 Z M 220.5,236.5 C 218.484,252.364 211.818,265.864 200.5,277C 172.847,298.892 144.347,300.059 115,280.5C 108.167,287.333 101.333,294.167 94.5,301C 115.816,319.168 140.483,326.501 168.5,323C 216.002,313.332 243.002,284.499 249.5,236.5C 239.833,236.5 230.167,236.5 220.5,236.5 Z"/></g>
<g><path style="opacity:0.937" fill="#000000" d="M 303.5,131.5 C 317.837,131.333 332.171,131.5 346.5,132C 348.848,132.346 350.681,133.513 352,135.5C 352.667,151.5 352.667,167.5 352,183.5C 351.167,184.333 350.333,185.167 349.5,186C 333.5,186.667 317.5,186.667 301.5,186C 299.741,184.992 298.574,183.492 298,181.5C 297.333,166.833 297.333,152.167 298,137.5C 298.683,134.321 300.516,132.321 303.5,131.5 Z M 312.5,146.5 C 312.5,155.167 312.5,163.833 312.5,172.5C 321.167,172.5 329.833,172.5 338.5,172.5C 338.5,163.833 338.5,155.167 338.5,146.5C 329.833,146.5 321.167,146.5 312.5,146.5 Z"/></g>
<g><path style="opacity:0.901" fill="#000000" d="M 369.5,141.5 C 398.835,141.333 428.169,141.5 457.5,142C 461.577,145.139 462.41,148.972 460,153.5C 458.352,154.717 456.519,155.55 454.5,156C 426.833,156.667 399.167,156.667 371.5,156C 365.552,153.567 364.052,149.4 367,143.5C 367.995,142.934 368.828,142.267 369.5,141.5 Z"/></g>
<g><path style="opacity:0.95" fill="#000000" d="M 398.5,165.5 C 418.169,165.333 437.836,165.5 457.5,166C 462.815,170.286 462.815,174.619 457.5,179C 437.833,179.667 418.167,179.667 398.5,179C 394.304,176.019 393.471,172.186 396,167.5C 396.995,166.934 397.828,166.267 398.5,165.5 Z"/></g>
<g><path style="opacity:0.937" fill="#000000" d="M 301.5,198.5 C 317.503,198.333 333.503,198.5 349.5,199C 350.333,199.833 351.167,200.667 352,201.5C 352.667,217.5 352.667,233.5 352,249.5C 351.167,250.333 350.333,251.167 349.5,252C 334.259,253.634 318.926,253.968 303.5,253C 301.671,252.727 300.171,251.893 299,250.5C 297.38,234.901 297.047,219.234 298,203.5C 298.697,201.416 299.864,199.749 301.5,198.5 Z M 312.5,212.5 C 312.5,221.167 312.5,229.833 312.5,238.5C 321.167,238.5 329.833,238.5 338.5,238.5C 338.5,229.833 338.5,221.167 338.5,212.5C 329.833,212.5 321.167,212.5 312.5,212.5 Z"/></g>
<g><path style="opacity:0.902" fill="#000000" d="M 370.5,207.5 C 398.835,207.333 427.169,207.5 455.5,208C 460.907,210.211 462.407,214.045 460,219.5C 459.097,220.701 457.931,221.535 456.5,222C 427.833,222.667 399.167,222.667 370.5,222C 365.857,219.928 364.357,216.428 366,211.5C 367.397,209.93 368.897,208.596 370.5,207.5 Z"/></g>
<g><path style="opacity:0.951" fill="#000000" d="M 398.5,231.5 C 418.169,231.333 437.836,231.5 457.5,232C 462.815,236.381 462.815,240.714 457.5,245C 437.5,245.667 417.5,245.667 397.5,245C 393.285,240.134 393.618,235.634 398.5,231.5 Z"/></g>
<g><path style="opacity:0.935" fill="#000000" d="M 397.5,275.5 C 414.17,275.333 430.837,275.5 447.5,276C 448.667,277.167 449.833,278.333 451,279.5C 451.5,335.832 451.667,392.166 451.5,448.5C 456.447,447.628 460.613,448.961 464,452.5C 465.361,457.274 463.861,460.774 459.5,463C 345.5,463.667 231.5,463.667 117.5,463C 111.241,458.833 110.908,454.167 116.5,449C 119.482,448.502 122.482,448.335 125.5,448.5C 125.333,424.498 125.5,400.498 126,376.5C 127.214,374.951 128.714,373.785 130.5,373C 146.833,372.333 163.167,372.333 179.5,373C 181.333,373.5 182.5,374.667 183,376.5C 183.5,400.498 183.667,424.498 183.5,448.5C 186.5,448.5 189.5,448.5 192.5,448.5C 192.333,434.829 192.5,421.163 193,407.5C 193.833,406.667 194.667,405.833 195.5,405C 212.833,404.333 230.167,404.333 247.5,405C 248.333,405.833 249.167,406.667 250,407.5C 250.5,421.163 250.667,434.829 250.5,448.5C 253.5,448.5 256.5,448.5 259.5,448.5C 259.333,406.165 259.5,363.832 260,321.5C 261.214,319.951 262.714,318.785 264.5,318C 280.5,317.333 296.5,317.333 312.5,318C 314.286,318.785 315.786,319.951 317,321.5C 317.5,363.832 317.667,406.165 317.5,448.5C 320.167,448.5 322.833,448.5 325.5,448.5C 325.048,428.446 325.548,408.446 327,388.5C 327.903,387.299 329.069,386.465 330.5,386C 347.167,385.333 363.833,385.333 380.5,386C 382.333,386.5 383.5,387.667 384,389.5C 384.5,409.164 384.667,428.831 384.5,448.5C 387.167,448.5 389.833,448.5 392.5,448.5C 392.333,392.832 392.5,337.166 393,281.5C 393.599,278.746 395.099,276.746 397.5,275.5 Z M 407.5,290.5 C 407.5,343.167 407.5,395.833 407.5,448.5C 417.167,448.5 426.833,448.5 436.5,448.5C 436.5,395.833 436.5,343.167 436.5,290.5C 426.833,290.5 417.167,290.5 407.5,290.5 Z M 273.5,332.5 C 273.5,371.167 273.5,409.833 273.5,448.5C 283.5,448.5 293.5,448.5 303.5,448.5C 303.5,409.833 303.5,371.167 303.5,332.5C 293.5,332.5 283.5,332.5 273.5,332.5 Z M 139.5,387.5 C 139.5,407.833 139.5,428.167 139.5,448.5C 149.5,448.5 159.5,448.5 169.5,448.5C 169.5,428.167 169.5,407.833 169.5,387.5C 159.5,387.5 149.5,387.5 139.5,387.5 Z M 340.5,399.5 C 340.5,415.833 340.5,432.167 340.5,448.5C 350.5,448.5 360.5,448.5 370.5,448.5C 370.5,432.167 370.5,415.833 370.5,399.5C 360.5,399.5 350.5,399.5 340.5,399.5 Z M 206.5,418.5 C 206.5,428.5 206.5,438.5 206.5,448.5C 216.5,448.5 226.5,448.5 236.5,448.5C 236.5,438.5 236.5,428.5 236.5,418.5C 226.5,418.5 216.5,418.5 206.5,418.5 Z"/></g>
</svg>
