<?xml version="1.0" encoding="UTF-8"?>
<!DOCTYPE svg PUBLIC "-//W3C//DTD SVG 1.1//EN" "http://www.w3.org/Graphics/SVG/1.1/DTD/svg11.dtd">
<svg xmlns="http://www.w3.org/2000/svg" version="1.1" width="512px" height="512px" style="shape-rendering:geometricPrecision; text-rendering:geometricPrecision; image-rendering:optimizeQuality; fill-rule:evenodd; clip-rule:evenodd" xmlns:xlink="http://www.w3.org/1999/xlink">
<g><path style="opacity:0.939" fill="#000000" d="M 194.5,7.5 C 205.116,6.20775 215.116,8.04108 224.5,13C 228.145,15.9582 230.812,19.6249 232.5,24C 261.874,37.2446 277.874,60.078 280.5,92.5C 293.368,101.947 294.702,112.781 284.5,125C 281.395,126.868 278.062,128.035 274.5,128.5C 270.303,148.518 259.636,164.018 242.5,175C 277.673,186.18 304.506,207.68 323,239.5C 323.667,202.5 323.667,165.5 323,128.5C 302.715,114.986 295.381,96.3192 301,72.5C 305.196,58.9693 313.696,49.1359 326.5,43C 331.274,41.6392 334.774,43.1392 337,47.5C 337.167,60.5128 337.667,73.5128 338.5,86.5C 341.58,87.7885 344.414,89.4552 347,91.5C 349.916,89.9594 352.749,88.2927 355.5,86.5C 356.333,73.8465 356.833,61.1798 357,48.5C 359.314,43.5935 363.147,41.7602 368.5,43C 390.262,55.2476 398.762,73.7476 394,98.5C 390.498,111.332 383.165,121.332 372,128.5C 371.333,173.833 371.333,219.167 372,264.5C 375.167,267 378.333,269.5 381.5,272C 393.162,272.5 404.829,272.667 416.5,272.5C 416.333,258.496 416.5,244.496 417,230.5C 419.032,225.635 422.532,222.302 427.5,220.5C 428.667,181.504 428.833,142.504 428,103.5C 424.888,96.944 422.055,90.2773 419.5,83.5C 422.509,69.7973 425.676,56.1307 429,42.5C 429.346,40.1523 430.513,38.3189 432.5,37C 444.546,36.1875 456.546,36.3542 468.5,37.5C 469.333,38.5 470.167,39.5 471,40.5C 474,53.1667 477,65.8333 480,78.5C 480.667,81.5 480.667,84.5 480,87.5C 477.14,93.0813 474.474,98.7479 472,104.5C 471.167,143.171 471.333,181.838 472.5,220.5C 478.199,222.699 482.033,226.699 484,232.5C 484.667,270.5 484.667,308.5 484,346.5C 483.167,349.333 481.333,351.167 478.5,352C 459.5,352.667 440.5,352.667 421.5,352C 419.36,351.027 417.693,349.527 416.5,347.5C 414.085,348.305 411.751,349.305 409.5,350.5C 405.273,365.118 399.273,378.952 391.5,392C 396.069,400.973 400.236,410.14 404,419.5C 404.743,422.783 404.076,425.783 402,428.5C 389.471,441.363 376.638,453.863 363.5,466C 360.833,466.667 358.167,466.667 355.5,466C 347.059,462.03 338.559,458.196 330,454.5C 316.679,461.44 302.845,467.106 288.5,471.5C 284.709,480.037 281.209,488.704 278,497.5C 277.315,500.057 275.815,501.891 273.5,503C 253.833,503.667 234.167,503.667 214.5,503C 213.069,502.535 211.903,501.701 211,500.5C 207.5,491.333 204,482.167 200.5,473C 198.933,471.19 196.933,470.023 194.5,469.5C 188.681,474.818 183.015,480.318 177.5,486C 175.863,486.601 174.197,487.101 172.5,487.5C 167.95,485.976 163.45,484.309 159,482.5C 154.207,484.598 149.374,486.598 144.5,488.5C 142.299,493.615 139.632,498.449 136.5,503C 125.833,503.667 115.167,503.667 104.5,503C 103.333,501.833 102.167,500.667 101,499.5C 99.986,495.622 98.486,491.956 96.5,488.5C 91.3823,486.774 86.3823,484.774 81.5,482.5C 77.245,484.363 72.9117,486.03 68.5,487.5C 66.8034,487.101 65.1368,486.601 63.5,486C 56.6349,479.469 50.1349,472.636 44,465.5C 43.3333,463.167 43.3333,460.833 44,458.5C 45.6446,455.378 47.1446,452.212 48.5,449C 46.1147,444.515 44.1147,439.848 42.5,435C 38.8378,432.502 34.8378,430.502 30.5,429C 28.9512,427.786 27.7845,426.286 27,424.5C 26.3333,414.833 26.3333,405.167 27,395.5C 27.4652,394.069 28.2986,392.903 29.5,392C 33.6838,390.163 37.8505,388.329 42,386.5C 43.6802,381.294 45.8469,376.294 48.5,371.5C 45.1859,366.237 43.6859,360.571 44,354.5C 47.4651,350.033 51.2984,345.867 55.5,342C 51.8139,340.911 48.9806,338.745 47,335.5C 46.3333,315.833 46.3333,296.167 47,276.5C 48.1667,275.333 49.3333,274.167 50.5,273C 56.7482,272.812 62.9149,272.312 69,271.5C 83.5652,223.268 114.732,191.101 162.5,175C 145.5,163.826 134.833,148.326 130.5,128.5C 120.052,127.051 114.386,121.051 113.5,110.5C 113.862,102.431 117.696,96.7639 125,93.5C 127.072,60.8378 142.905,37.6711 172.5,24C 177.152,14.8389 184.485,9.3389 194.5,7.5 Z M 196.5,24.5 C 202.81,23.8563 208.81,24.8563 214.5,27.5C 214.833,28.1667 215.167,28.8333 215.5,29.5C 214.252,37.8179 213.085,46.1512 212,54.5C 211.682,56.0609 210.849,57.2276 209.5,58C 204.833,58.6667 200.167,58.6667 195.5,58C 195,57.5 194.5,57 194,56.5C 192.255,47.5353 190.755,38.5353 189.5,29.5C 191.37,27.0756 193.703,25.4089 196.5,24.5 Z M 172.5,42.5 C 173.649,42.7911 174.316,43.6244 174.5,45C 174.589,69.8959 186.922,79.8959 211.5,75C 218.272,73.8645 223.438,70.3645 227,64.5C 228.663,57.1972 230.163,49.8638 231.5,42.5C 250.401,53.5876 261.068,70.0876 263.5,92C 223.168,92.5 182.835,92.6667 142.5,92.5C 143.854,70.5136 153.854,53.8469 172.5,42.5 Z M 444.5,52.5 C 448.5,52.5 452.5,52.5 456.5,52.5C 458.518,62.4286 460.852,72.2619 463.5,82C 460.538,88.0916 457.705,94.2582 455,100.5C 454.5,140.499 454.333,180.499 454.5,220.5C 451.5,220.5 448.5,220.5 445.5,220.5C 445.667,180.165 445.5,139.832 445,99.5C 442.221,93.6097 439.721,87.6097 437.5,81.5C 439.686,71.7574 442.019,62.0907 444.5,52.5 Z M 373.5,70.5 C 381.772,86.2735 379.106,100.107 365.5,112C 361.131,113.421 357.631,115.921 355,119.5C 354.333,170.833 354.333,222.167 355,273.5C 355.465,274.931 356.299,276.097 357.5,277C 377.269,286.972 382.769,302.138 374,322.5C 373.942,313.732 373.275,305.065 372,296.5C 365.25,292.208 358.417,288.041 351.5,284C 348.833,283.333 346.167,283.333 343.5,284C 335.801,287.709 328.634,292.209 322,297.5C 320.73,305.397 320.063,313.397 320,321.5C 311.832,301.677 317.332,286.844 336.5,277C 338.049,275.786 339.215,274.286 340,272.5C 340.667,221.833 340.667,171.167 340,120.5C 339.215,118.714 338.049,117.214 336.5,116C 317.332,106.156 311.832,91.3226 320,71.5C 320.333,78.8333 320.667,86.1667 321,93.5C 322.122,95.6238 323.622,97.4571 325.5,99C 331.5,102.333 337.5,105.667 343.5,109C 346.167,109.667 348.833,109.667 351.5,109C 358.417,104.959 365.25,100.792 372,96.5C 373.441,87.9422 373.941,79.2756 373.5,70.5 Z M 131.5,109.5 C 179.171,109.167 226.838,109.5 274.5,110.5C 250.667,110.833 226.833,111.167 203,111.5C 178.824,111.5 154.991,110.833 131.5,109.5 Z M 148.5,128.5 C 184.835,128.333 221.168,128.5 257.5,129C 245.013,159.581 222.346,172.581 189.5,168C 168.401,162.399 154.734,149.232 148.5,128.5 Z M 191.5,186.5 C 252.073,185.282 294.073,212.449 317.5,268C 311.7,272.794 307.033,278.46 303.5,285C 243.834,285.5 184.168,285.667 124.5,285.5C 126.447,280.239 125.114,276.072 120.5,273C 109.167,272.667 97.8333,272.333 86.5,272C 100.474,232.693 127.141,206.026 166.5,192C 174.874,189.695 183.207,187.861 191.5,186.5 Z M 433.5,236.5 C 444.833,236.5 456.167,236.5 467.5,236.5C 467.5,269.5 467.5,302.5 467.5,335.5C 456.167,335.5 444.833,335.5 433.5,335.5C 433.5,302.5 433.5,269.5 433.5,236.5 Z M 63.5,289.5 C 77.8333,289.5 92.1667,289.5 106.5,289.5C 105.388,298.394 105.388,307.227 106.5,316C 104.91,317.046 103.41,318.213 102,319.5C 100.163,323.684 98.3293,327.85 96.5,332C 93.3819,332.873 90.3819,334.039 87.5,335.5C 79.6195,332.097 71.6195,329.097 63.5,326.5C 63.5,314.167 63.5,301.833 63.5,289.5 Z M 392.5,289.5 C 400.5,289.5 408.5,289.5 416.5,289.5C 416.833,302.85 416.499,316.183 415.5,329.5C 408.325,331.832 401.492,334.832 395,338.5C 390.201,356.097 383.201,372.764 374,388.5C 373.416,391.257 373.75,393.923 375,396.5C 378.951,404.382 382.284,412.382 385,420.5C 376.167,429.333 367.333,438.167 358.5,447C 349.939,444.564 341.606,441.231 333.5,437C 330.5,436.333 327.5,436.333 324.5,437C 310.262,445.86 294.929,452.194 278.5,456C 275.619,457.251 273.786,459.417 273,462.5C 269.931,470.54 266.765,478.54 263.5,486.5C 250.271,487.822 237.104,487.822 224,486.5C 220.529,477.088 216.863,467.754 213,458.5C 206.433,455.686 199.766,453.02 193,450.5C 194.037,445.728 195.704,441.061 198,436.5C 262.295,455.4 315.295,438.733 357,386.5C 365.801,373.564 372.467,359.564 377,344.5C 394.126,329.677 399.293,311.344 392.5,289.5 Z M 346.5,301.5 C 349.634,302.901 352.634,304.568 355.5,306.5C 356.333,319.154 356.833,331.82 357,344.5C 357.374,345.416 357.874,346.25 358.5,347C 337.359,397.837 299.193,424.671 244,427.5C 234.088,427.637 224.421,426.303 215,423.5C 214.667,414.5 214.333,405.5 214,396.5C 213.293,394.919 212.46,393.419 211.5,392C 207.316,390.163 203.15,388.329 199,386.5C 196.833,381.333 194.667,376.167 192.5,371C 194.138,367.558 195.638,364.058 197,360.5C 197.706,358.029 197.373,355.695 196,353.5C 189.5,347 183,340.5 176.5,334C 170.131,333.259 164.298,334.759 159,338.5C 154.435,335.755 149.602,333.589 144.5,332C 142.359,327.246 140.025,322.579 137.5,318C 132.909,316.947 128.242,316.114 123.5,315.5C 122.561,311.235 122.228,306.902 122.5,302.5C 181.5,302.5 240.5,302.5 299.5,302.5C 297.845,325.869 307.845,341.869 329.5,350.5C 333.104,350.451 335.604,348.784 337,345.5C 337.167,332.487 337.667,319.487 338.5,306.5C 341.568,305.309 344.235,303.642 346.5,301.5 Z M 114.5,333.5 C 118.5,333.5 122.5,333.5 126.5,333.5C 127.257,338.277 129.257,342.443 132.5,346C 140.547,348.525 148.214,351.859 155.5,356C 160.598,356.217 165.431,355.051 170,352.5C 172.951,354.447 175.618,356.781 178,359.5C 177.626,362.275 176.626,364.942 175,367.5C 174.333,370.167 174.333,372.833 175,375.5C 178.977,382.431 181.977,389.764 184,397.5C 187.535,400.855 191.702,403.188 196.5,404.5C 197.795,408.38 197.795,412.214 196.5,416C 191.799,417.227 187.632,419.394 184,422.5C 182.093,430.309 179.093,437.642 175,444.5C 173.917,450.17 175.084,455.337 178.5,460C 175.667,462.833 172.833,465.667 170,468.5C 165.345,465.059 160.178,463.893 154.5,465C 147.592,468.971 140.258,471.971 132.5,474C 129.658,478.015 127.325,482.348 125.5,487C 121.848,487.499 118.182,487.665 114.5,487.5C 113.524,483.073 111.857,478.907 109.5,475C 101.463,472.48 93.796,469.147 86.5,465C 80.6426,463.744 75.3093,464.911 70.5,468.5C 67.8494,466.35 65.3494,464.017 63,461.5C 63.3605,458.076 64.3605,454.742 66,451.5C 66.6667,449.5 66.6667,447.5 66,445.5C 61.8831,437.813 58.5497,429.813 56,421.5C 52.3645,419.266 48.5311,417.432 44.5,416C 43.2052,412.214 43.2052,408.38 44.5,404.5C 48.6957,403.153 52.529,401.153 56,398.5C 58.3689,390.386 61.7023,382.72 66,375.5C 66.6667,373.167 66.6667,370.833 66,368.5C 64.1683,365.672 63.1683,362.672 63,359.5C 65.3822,356.781 68.0488,354.447 71,352.5C 74.4623,354.398 78.1289,355.731 82,356.5C 90.5591,352.422 99.3924,348.922 108.5,346C 111.441,342.284 113.441,338.117 114.5,333.5 Z M 114.5,378.5 C 136.626,377.961 149.293,388.628 152.5,410.5C 150.642,426.083 142.309,436.25 127.5,441C 102.159,442.657 89.3256,430.824 89,405.5C 92.2484,391.421 100.748,382.421 114.5,378.5 Z"/></g>
<g><path style="opacity:0.929" fill="#000000" d="M 113.5,361.5 C 146.872,360.706 165.538,376.873 169.5,410C 165.1,444.731 145.433,460.731 110.5,458C 79.3493,447.876 67.1827,426.709 74,394.5C 81.0144,375.974 94.1811,364.974 113.5,361.5 Z M 114.5,378.5 C 100.748,382.421 92.2484,391.421 89,405.5C 89.3256,430.824 102.159,442.657 127.5,441C 142.309,436.25 150.642,426.083 152.5,410.5C 149.293,388.628 136.626,377.961 114.5,378.5 Z"/></g>
</svg>
