<?xml version="1.0" encoding="UTF-8"?>
<!DOCTYPE svg PUBLIC "-//W3C//DTD SVG 1.1//EN" "http://www.w3.org/Graphics/SVG/1.1/DTD/svg11.dtd">
<svg xmlns="http://www.w3.org/2000/svg" version="1.1" width="512px" height="512px" style="shape-rendering:geometricPrecision; text-rendering:geometricPrecision; image-rendering:optimizeQuality; fill-rule:evenodd; clip-rule:evenodd" xmlns:xlink="http://www.w3.org/1999/xlink">
<g><path style="opacity:0.916" fill="#000000" d="M 289.5,65.5 C 309.836,65.3334 330.169,65.5 350.5,66C 364.74,72.7181 368.24,83.2181 361,97.5C 357.122,101.856 352.289,104.189 346.5,104.5C 346.5,112.5 346.5,120.5 346.5,128.5C 369.601,132.032 390.768,140.365 410,153.5C 415,148.5 420,143.5 425,138.5C 422.966,133.857 421.8,128.857 421.5,123.5C 423.503,108.309 432.17,102.143 447.5,105C 449.5,106 451.5,107 453.5,108C 468,121.167 481.833,135 495,149.5C 499.544,161.505 496.377,170.672 485.5,177C 478.046,179.551 471.046,178.718 464.5,174.5C 458.649,179.517 453.316,185.017 448.5,191C 479.053,234.148 487.22,281.315 473,332.5C 453.016,390.152 413.516,426.652 354.5,442C 347.898,443.434 341.232,444.434 334.5,445C 289.5,445.667 244.5,445.667 199.5,445C 195.044,439.957 195.711,435.957 201.5,433C 219.167,432.667 236.833,432.333 254.5,432C 194.12,402.062 162.453,353.228 159.5,285.5C 162.57,216.99 194.904,168.156 256.5,139C 237.5,138.667 218.5,138.333 199.5,138C 195.014,133.098 195.681,129.098 201.5,126C 232.165,125.5 262.832,125.333 293.5,125.5C 293.5,118.5 293.5,111.5 293.5,104.5C 282.011,103.176 275.677,96.676 274.5,85C 275.324,75.1458 280.324,68.6458 289.5,65.5 Z M 292.5,78.5 C 310.836,78.3334 329.17,78.5001 347.5,79C 351.629,81.6311 352.462,85.1311 350,89.5C 348.829,90.8932 347.329,91.7265 345.5,92C 328.5,92.6667 311.5,92.6667 294.5,92C 286.117,88.4539 285.45,83.9539 292.5,78.5 Z M 306.5,105.5 C 315.5,105.5 324.5,105.5 333.5,105.5C 333.5,112.5 333.5,119.5 333.5,126.5C 324.5,125.167 315.5,125.167 306.5,126.5C 306.5,119.5 306.5,112.5 306.5,105.5 Z M 437.5,117.5 C 439.857,117.337 442.19,117.503 444.5,118C 457.638,130.137 470.471,142.637 483,155.5C 484.257,164.127 480.757,166.96 472.5,164C 460.638,151.804 448.471,139.97 436,128.5C 433.842,124.461 434.342,120.794 437.5,117.5 Z M 312.5,138.5 C 373.708,138.629 419.541,164.962 450,217.5C 476.891,275.023 471.225,329.023 433,379.5C 391.42,425.69 340.253,441.523 279.5,427C 226.297,409.797 192.13,374.297 177,320.5C 164.315,251.392 187.148,197.558 245.5,159C 266.403,147.031 288.736,140.198 312.5,138.5 Z M 435.5,146.5 C 441.965,152.464 448.298,158.631 454.5,165C 450.033,170.468 445.2,175.635 440,180.5C 434.323,173.657 428.156,167.323 421.5,161.5C 426.188,156.48 430.855,151.48 435.5,146.5 Z M 307.5,162.5 C 364.443,160.372 405.943,184.372 432,234.5C 454.373,293.175 441.873,343.009 394.5,384C 349.609,414.922 303.276,417.256 255.5,391C 205.564,356.216 187.731,309.049 202,249.5C 220.175,199.82 255.341,170.82 307.5,162.5 Z M 316.5,274.5 C 324.788,273.946 329.788,277.779 331.5,286C 328.85,295.992 322.85,298.992 313.5,295C 306.209,286.916 307.209,280.083 316.5,274.5 Z"/></g>
<g><path style="opacity:0.908" fill="#000000" d="M 116.5,125.5 C 135.503,125.333 154.503,125.5 173.5,126C 179.319,129.098 179.986,133.098 175.5,138C 155.5,138.667 135.5,138.667 115.5,138C 111.4,133.445 111.733,129.278 116.5,125.5 Z"/></g>
<g><path style="opacity:0.909" fill="#000000" d="M 307.5,149.5 C 372.122,147.543 418.289,175.543 446,233.5C 465.05,285.832 457.05,333.499 422,376.5C 379.22,420.152 328.72,432.319 270.5,413C 219.491,391.164 190.658,352.664 184,297.5C 181.471,241.385 203.638,198.219 250.5,168C 268.357,157.88 287.357,151.713 307.5,149.5 Z M 307.5,162.5 C 255.341,170.82 220.175,199.82 202,249.5C 187.731,309.049 205.564,356.216 255.5,391C 303.276,417.256 349.609,414.922 394.5,384C 441.873,343.009 454.373,293.175 432,234.5C 405.943,184.372 364.443,160.372 307.5,162.5 Z M 316.5,274.5 C 307.209,280.083 306.209,286.916 313.5,295C 322.85,298.992 328.85,295.992 331.5,286C 329.788,277.779 324.788,273.946 316.5,274.5 Z"/></g>
<g><path style="opacity:0.874" fill="#000000" d="M 316.5,168.5 C 320.684,167.704 323.85,169.037 326,172.5C 326.667,179.5 326.667,186.5 326,193.5C 322.399,198.321 318.399,198.654 314,194.5C 313.333,186.833 313.333,179.167 314,171.5C 315.045,170.627 315.878,169.627 316.5,168.5 Z"/></g>
<g><path style="opacity:0.877" fill="#000000" d="M 261.5,183.5 C 265.594,182.705 268.761,184.038 271,187.5C 273.333,191.833 275.667,196.167 278,200.5C 279.875,207.282 277.375,210.448 270.5,210C 268,208.833 266.167,207 265,204.5C 262.11,199.886 259.61,195.053 257.5,190C 258.226,187.366 259.559,185.199 261.5,183.5 Z"/></g>
<g><path style="opacity:0.872" fill="#000000" d="M 372.5,183.5 C 379.825,182.992 382.658,186.326 381,193.5C 378,198.5 375,203.5 372,208.5C 366.169,211.671 362.336,210.005 360.5,203.5C 363.519,196.108 367.519,189.442 372.5,183.5 Z"/></g>
<g><path style="opacity:0.91" fill="#000000" d="M 78.5,187.5 C 106.169,187.333 133.835,187.5 161.5,188C 165.802,192.797 165.136,196.797 159.5,200C 133.167,200.667 106.833,200.667 80.5,200C 74.6696,196.672 74.003,192.505 78.5,187.5 Z"/></g>
<g><path style="opacity:0.914" fill="#000000" d="M 317.5,213.5 C 321.273,212.822 324.106,214.156 326,217.5C 326.167,232.511 326.667,247.511 327.5,262.5C 335.392,265.558 340.725,271.058 343.5,279C 355.5,279.333 367.5,279.667 379.5,280C 382.349,282.559 383.183,285.726 382,289.5C 381.097,290.701 379.931,291.535 378.5,292C 366.833,292.333 355.167,292.667 343.5,293C 336.788,308.244 325.455,313.244 309.5,308C 297.166,300.821 292.999,290.321 297,276.5C 300.236,269.136 305.736,264.47 313.5,262.5C 313.333,247.496 313.5,232.496 314,217.5C 314.69,215.65 315.856,214.316 317.5,213.5 Z M 316.5,274.5 C 307.209,280.083 306.209,286.916 313.5,295C 322.85,298.992 328.85,295.992 331.5,286C 329.788,277.779 324.788,273.946 316.5,274.5 Z"/></g>
<g><path style="opacity:0.874" fill="#000000" d="M 222.5,223.5 C 228.861,225.513 234.861,228.346 240.5,232C 245.268,235.706 245.601,239.706 241.5,244C 239.167,244.667 236.833,244.667 234.5,244C 229.833,241.333 225.167,238.667 220.5,236C 217.136,232.974 216.636,229.474 219,225.5C 220.302,224.915 221.469,224.249 222.5,223.5 Z"/></g>
<g><path style="opacity:0.877" fill="#000000" d="M 414.5,223.5 C 421.326,224.491 423.493,228.158 421,234.5C 416.084,238.043 410.917,241.21 405.5,244C 397.468,245.47 394.468,242.303 396.5,234.5C 402.263,230.293 408.263,226.626 414.5,223.5 Z"/></g>
<g><path style="opacity:0.908" fill="#000000" d="M 17.5,248.5 C 35.1698,248.333 52.8365,248.5 70.5,249C 74.2916,251.053 75.4582,254.219 74,258.5C 73.1667,259.333 72.3333,260.167 71.5,261C 53.5,261.667 35.5,261.667 17.5,261C 13.5471,256.835 13.5471,252.669 17.5,248.5 Z"/></g>
<g><path style="opacity:0.898" fill="#000000" d="M 105.5,248.5 C 116.505,248.333 127.505,248.5 138.5,249C 143.833,253 143.833,257 138.5,261C 127.5,261.667 116.5,261.667 105.5,261C 100.232,256.837 100.232,252.671 105.5,248.5 Z"/></g>
<g><path style="opacity:0.879" fill="#000000" d="M 205.5,279.5 C 213.174,279.334 220.841,279.5 228.5,280C 232.654,284.399 232.321,288.399 227.5,292C 219.754,292.896 212.087,292.563 204.5,291C 201.751,286.908 202.084,283.075 205.5,279.5 Z"/></g>
<g><path style="opacity:0.887" fill="#000000" d="M 411.5,279.5 C 418.841,279.334 426.174,279.5 433.5,280C 439.059,284.368 438.726,288.368 432.5,292C 425.833,292.667 419.167,292.667 412.5,292C 408.708,289.947 407.542,286.781 409,282.5C 409.698,281.309 410.531,280.309 411.5,279.5 Z"/></g>
<g><path style="opacity:0.914" fill="#000000" d="M 53.5,309.5 C 80.5021,309.333 107.502,309.5 134.5,310C 140.232,311.468 141.898,314.968 139.5,320.5C 138.975,321.192 138.308,321.692 137.5,322C 108.5,322.667 79.5,322.667 50.5,322C 46.465,316.608 47.465,312.441 53.5,309.5 Z"/></g>
<g><path style="opacity:0.869" fill="#000000" d="M 235.5,326.5 C 239.317,325.826 242.15,327.159 244,330.5C 244.706,332.971 244.373,335.305 243,337.5C 237.582,340.793 232.082,343.96 226.5,347C 218.252,347.742 215.752,344.242 219,336.5C 224.647,333.267 230.147,329.933 235.5,326.5 Z"/></g>
<g><path style="opacity:0.869" fill="#000000" d="M 399.5,326.5 C 401.199,326.34 402.866,326.506 404.5,327C 409.167,329.667 413.833,332.333 418.5,335C 423.738,339.184 423.738,343.184 418.5,347C 416.5,347.667 414.5,347.667 412.5,347C 407.833,344.333 403.167,341.667 398.5,339C 394.4,334.445 394.733,330.278 399.5,326.5 Z"/></g>
<g><path style="opacity:0.876" fill="#000000" d="M 269.5,361.5 C 277.166,360.668 279.999,364.002 278,371.5C 275.333,376.167 272.667,380.833 270,385.5C 264.029,390.106 259.863,388.773 257.5,381.5C 260.507,374.139 264.507,367.472 269.5,361.5 Z"/></g>
<g><path style="opacity:0.869" fill="#000000" d="M 364.5,361.5 C 366.527,361.338 368.527,361.505 370.5,362C 375.344,367.857 379.011,374.357 381.5,381.5C 380.61,387.778 377.277,389.611 371.5,387C 366.797,381.26 363.13,374.926 360.5,368C 360.722,365.038 362.056,362.871 364.5,361.5 Z"/></g>
<g><path style="opacity:0.914" fill="#000000" d="M 59.5,371.5 C 91.5017,371.333 123.502,371.5 155.5,372C 158.349,374.559 159.183,377.726 158,381.5C 157.097,382.701 155.931,383.535 154.5,384C 123.167,384.667 91.8333,384.667 60.5,384C 54.2654,380.278 53.932,376.111 59.5,371.5 Z"/></g>
<g><path style="opacity:0.894" fill="#000000" d="M 316.5,374.5 C 318.857,374.337 321.19,374.503 323.5,375C 324.701,375.903 325.535,377.069 326,378.5C 326.667,385.167 326.667,391.833 326,398.5C 322.379,404.496 318.379,404.83 314,399.5C 313.333,392.167 313.333,384.833 314,377.5C 314.698,376.309 315.531,375.309 316.5,374.5 Z"/></g>
<g><path style="opacity:0.905" fill="#000000" d="M 113.5,432.5 C 129.17,432.333 144.837,432.5 160.5,433C 166.726,436.632 167.059,440.632 161.5,445C 145.167,445.667 128.833,445.667 112.5,445C 110.185,443.704 109.185,441.704 109.5,439C 109.434,435.913 110.768,433.746 113.5,432.5 Z"/></g>
</svg>
