<?xml version="1.0" encoding="UTF-8"?>
<!DOCTYPE svg PUBLIC "-//W3C//DTD SVG 1.1//EN" "http://www.w3.org/Graphics/SVG/1.1/DTD/svg11.dtd">
<svg xmlns="http://www.w3.org/2000/svg" version="1.1" width="512px" height="512px" style="shape-rendering:geometricPrecision; text-rendering:geometricPrecision; image-rendering:optimizeQuality; fill-rule:evenodd; clip-rule:evenodd" xmlns:xlink="http://www.w3.org/1999/xlink">
<g><path style="opacity:0.945" fill="#000000" d="M 179.5,27.5 C 208.835,27.3334 238.169,27.5 267.5,28C 295.53,34.2533 313.697,51.0867 322,78.5C 323.44,98.7875 323.94,119.121 323.5,139.5C 331.108,140.892 336.274,145.225 339,152.5C 339.667,162.5 339.667,172.5 339,182.5C 336.833,188.667 332.667,192.833 326.5,195C 320.175,195.5 313.842,195.666 307.5,195.5C 304.893,226.433 288.893,246.767 259.5,256.5C 259.5,260.167 259.5,263.833 259.5,267.5C 264.5,267.5 269.5,267.5 274.5,267.5C 274.5,270.167 274.5,272.833 274.5,275.5C 269.5,275.5 264.5,275.5 259.5,275.5C 257.243,291.26 248.576,301.76 233.5,307C 242.014,315.348 250.348,323.848 258.5,332.5C 256.833,334.833 254.833,336.833 252.5,338.5C 249.516,336.016 246.682,333.35 244,330.5C 243.5,378.832 243.333,427.166 243.5,475.5C 272.833,475.5 302.167,475.5 331.5,475.5C 331.5,466.5 331.5,457.5 331.5,448.5C 334.167,448.5 336.833,448.5 339.5,448.5C 339.5,457.5 339.5,466.5 339.5,475.5C 352.833,475.5 366.167,475.5 379.5,475.5C 379.5,468.5 379.5,461.5 379.5,454.5C 382.167,454.5 384.833,454.5 387.5,454.5C 387.818,464.083 387.485,473.583 386.5,483C 277.833,483.667 169.167,483.667 60.5,483C 59.3364,434.904 59.1697,386.737 60,338.5C 65.8049,307.719 82.9715,285.886 111.5,273C 117.63,270.551 123.963,268.884 130.5,268C 149.497,267.5 168.497,267.333 187.5,267.5C 187.5,263.833 187.5,260.167 187.5,256.5C 173.73,252.775 162.396,245.275 153.5,234C 136.039,227.027 125.706,214.193 122.5,195.5C 115.3,193.8 110.467,189.466 108,182.5C 107.333,172.5 107.333,162.5 108,152.5C 110.726,145.225 115.892,140.892 123.5,139.5C 123.333,120.83 123.5,102.164 124,83.5C 130.68,52.9866 149.18,34.32 179.5,27.5 Z M 190.5,35.5 C 215.86,35.1014 241.193,35.6014 266.5,37C 296.525,45.0243 312.692,64.5243 315,95.5C 315.5,110.163 315.667,124.83 315.5,139.5C 312.833,139.5 310.167,139.5 307.5,139.5C 307.667,121.497 307.5,103.497 307,85.5C 301.833,63 288,49.1667 265.5,44C 237.5,43.3333 209.5,43.3333 181.5,44C 158.996,49.1705 145.163,63.0039 140,85.5C 139.5,103.497 139.333,121.497 139.5,139.5C 136.833,139.5 134.167,139.5 131.5,139.5C 131.167,121.139 131.667,102.806 133,84.5C 141.059,54.9291 160.225,38.5958 190.5,35.5 Z M 195.5,51.5 C 218.529,51.1004 241.529,51.6004 264.5,53C 282.333,57.5 293.5,68.6667 298,86.5C 299.363,104.135 299.863,121.802 299.5,139.5C 276.471,139.9 253.471,139.4 230.5,138C 212.667,133.5 201.5,122.333 197,104.5C 195.637,86.8651 195.137,69.1985 195.5,51.5 Z M 182.5,52.5 C 184.167,52.5 185.833,52.5 187.5,52.5C 187.667,66.8372 187.5,81.1705 187,95.5C 185.085,120.246 171.918,134.58 147.5,138.5C 147.333,124.163 147.5,109.829 148,95.5C 150.025,73.3991 161.525,59.0658 182.5,52.5 Z M 190.5,118.5 C 195.209,124.391 200.209,130.225 205.5,136C 211.123,140.609 217.457,143.943 224.5,146C 249.456,147.452 274.456,147.952 299.5,147.5C 299.848,165.529 299.348,183.529 298,201.5C 291.948,227.219 276.115,243.385 250.5,250C 231.106,252.23 211.772,251.897 192.5,249C 183.317,246.744 175.317,242.41 168.5,236C 174.833,235.333 181.167,235.333 187.5,236C 189.167,239 191.5,241.333 194.5,243C 203.167,243.667 211.833,243.667 220.5,243C 223.333,241.5 225.5,239.333 227,236.5C 227.667,227.833 227.667,219.167 227,210.5C 225.5,207.667 223.333,205.5 220.5,204C 211.833,203.333 203.167,203.333 194.5,204C 191.5,205.667 189.167,208 187.5,211C 178.787,211.798 170.12,211.464 161.5,210C 152.981,206.804 148.481,200.637 148,191.5C 147.5,176.837 147.333,162.17 147.5,147.5C 167.476,146.024 181.809,136.358 190.5,118.5 Z M 127.5,147.5 C 131.5,147.5 135.5,147.5 139.5,147.5C 139.5,160.833 139.5,174.167 139.5,187.5C 123.158,190.475 115.158,183.808 115.5,167.5C 113.966,157.199 117.966,150.532 127.5,147.5 Z M 307.5,147.5 C 323.842,144.525 331.842,151.192 331.5,167.5C 331.842,183.808 323.842,190.475 307.5,187.5C 307.5,174.167 307.5,160.833 307.5,147.5 Z M 132.5,195.5 C 134.833,195.5 137.167,195.5 139.5,195.5C 141.274,207.444 147.941,215.278 159.5,219C 168.827,219.5 178.161,219.666 187.5,219.5C 187.5,222.167 187.5,224.833 187.5,227.5C 178.126,227.731 168.792,227.231 159.5,226C 144.278,221.281 135.278,211.114 132.5,195.5 Z M 199.5,211.5 C 204.844,211.334 210.177,211.501 215.5,212C 216.416,212.374 217.25,212.874 218,213.5C 219.576,219.388 219.909,225.388 219,231.5C 218.626,232.416 218.126,233.25 217.5,234C 211.612,235.576 205.612,235.909 199.5,235C 198.584,234.626 197.75,234.126 197,233.5C 195.424,227.612 195.091,221.612 196,215.5C 196.69,213.65 197.856,212.316 199.5,211.5 Z M 195.5,258.5 C 214,259.827 232.5,259.827 251,258.5C 253.63,272.548 249.796,284.381 239.5,294C 221.555,303.127 207.721,298.961 198,281.5C 196.023,273.97 195.19,266.303 195.5,258.5 Z M 142.5,275.5 C 152.167,275.5 161.833,275.5 171.5,275.5C 171.022,296.925 171.522,318.258 173,339.5C 178.471,345.039 184.638,345.872 191.5,342C 195.333,338.167 199.167,334.333 203,330.5C 203.5,378.832 203.667,427.166 203.5,475.5C 174.167,475.5 144.833,475.5 115.5,475.5C 115.5,434.167 115.5,392.833 115.5,351.5C 112.833,351.5 110.167,351.5 107.5,351.5C 107.5,392.833 107.5,434.167 107.5,475.5C 94.1667,475.5 80.8333,475.5 67.5,475.5C 67.3333,434.165 67.5,392.832 68,351.5C 72.5424,306.125 97.3757,280.792 142.5,275.5 Z M 179.5,275.5 C 182.167,275.5 184.833,275.5 187.5,275.5C 189.757,291.26 198.424,301.76 213.5,307C 203.926,317.077 193.926,326.577 183.5,335.5C 181.222,335.219 180.055,333.885 180,331.5C 179.5,312.836 179.333,294.17 179.5,275.5 Z M 222.5,310.5 C 227.072,313.563 231.239,317.23 235,321.5C 235.5,372.832 235.667,424.166 235.5,475.5C 227.5,475.5 219.5,475.5 211.5,475.5C 211.333,424.166 211.5,372.832 212,321.5C 215.704,317.964 219.204,314.298 222.5,310.5 Z"/></g>
<g><path style="opacity:0.899" fill="#000000" d="M 360.5,227.5 C 408.093,223.548 444.593,241.548 470,281.5C 486.086,313.406 487.753,346.073 475,379.5C 448.273,430.279 406.44,450.779 349.5,441C 303.735,427.569 276.568,397.402 268,350.5C 263.558,302.887 281.392,266.387 321.5,241C 333.894,234.37 346.894,229.87 360.5,227.5 Z M 374.5,235.5 C 419.833,237.9 451.333,259.9 469,301.5C 481.877,342.803 473.044,378.637 442.5,409C 433.406,416.586 423.406,422.752 412.5,427.5C 411.334,410.843 411.167,394.177 412,377.5C 439.206,358.233 448.873,332.233 441,299.5C 436.049,282.887 426.215,270.054 411.5,261C 405.187,256.043 398.52,255.376 391.5,259C 389.951,260.214 388.785,261.714 388,263.5C 387.667,284.833 387.333,306.167 387,327.5C 386.5,329.333 385.333,330.5 383.5,331C 378.167,331.667 372.833,331.667 367.5,331C 365.667,330.5 364.5,329.333 364,327.5C 363.667,306.167 363.333,284.833 363,263.5C 359.434,257.636 354.267,255.47 347.5,257C 317.435,272.621 304.268,297.454 308,331.5C 311.894,351.32 322.227,366.653 339,377.5C 339.833,394.177 339.666,410.843 338.5,427.5C 298.92,409.697 278.253,379.03 276.5,335.5C 278.667,287.661 302.333,255.828 347.5,240C 356.502,237.611 365.502,236.111 374.5,235.5 Z M 349.5,265.5 C 352.86,264.79 354.693,266.124 355,269.5C 355.333,290.5 355.667,311.5 356,332.5C 357.5,335.333 359.667,337.5 362.5,339C 371.167,339.667 379.833,339.667 388.5,339C 391.333,337.5 393.5,335.333 395,332.5C 395.333,311.5 395.667,290.5 396,269.5C 396.329,265.96 398.162,264.794 401.5,266C 432.345,284.863 441.511,311.363 429,345.5C 423.073,356.261 414.906,364.927 404.5,371.5C 403.667,391.158 403.167,410.825 403,430.5C 400.699,431.867 398.199,432.534 395.5,432.5C 395.667,419.163 395.5,405.829 395,392.5C 388.318,379.296 378.151,375.796 364.5,382C 360.61,384.596 357.777,388.096 356,392.5C 355.5,405.829 355.333,419.163 355.5,432.5C 352.801,432.534 350.301,431.867 348,430.5C 347.833,410.825 347.333,391.158 346.5,371.5C 322.14,355.609 312.64,333.276 318,304.5C 323.185,287.154 333.685,274.154 349.5,265.5 Z M 371.5,388.5 C 378.128,387.231 382.961,389.564 386,395.5C 387.422,408.439 387.922,421.439 387.5,434.5C 379.5,434.5 371.5,434.5 363.5,434.5C 363.333,422.829 363.5,411.162 364,399.5C 364.764,394.582 367.264,390.916 371.5,388.5 Z"/></g>
</svg>
