<?xml version="1.0" encoding="UTF-8"?>
<!DOCTYPE svg PUBLIC "-//W3C//DTD SVG 1.1//EN" "http://www.w3.org/Graphics/SVG/1.1/DTD/svg11.dtd">
<svg xmlns="http://www.w3.org/2000/svg" version="1.1" width="512px" height="512px" style="shape-rendering:geometricPrecision; text-rendering:geometricPrecision; image-rendering:optimizeQuality; fill-rule:evenodd; clip-rule:evenodd" xmlns:xlink="http://www.w3.org/1999/xlink">
<g><path style="opacity:0.936" fill="#000000" d="M 223.5,7.5 C 245.899,7.03198 268.233,7.53198 290.5,9C 292.815,10.1094 294.315,11.9427 295,14.5C 298.975,25.4285 303.142,36.2618 307.5,47C 324.74,51.5225 341.074,58.1892 356.5,67C 358.167,67.6667 359.833,67.6667 361.5,67C 372.502,61.7775 383.669,56.9441 395,52.5C 396.5,53 398,53.5 399.5,54C 415,69.5 430.5,85 446,100.5C 446.5,102 447,103.5 447.5,105C 442.692,117.095 437.692,129.095 432.5,141C 441.281,157.335 448.115,174.502 453,192.5C 455.333,193.5 457.667,194.5 460,195.5C 461.415,192.295 463.915,190.628 467.5,190.5C 494.955,203.395 506.788,225.062 503,255.5C 499.383,274.071 489.383,288.071 473,297.5C 472.333,330.5 472.333,363.5 473,396.5C 496.978,411.129 506.978,432.463 503,460.5C 498.633,481.031 486.8,495.364 467.5,503.5C 462.599,502.976 459.766,500.309 459,495.5C 458.833,479.49 458.333,463.49 457.5,447.5C 452.843,444.162 447.843,441.996 442.5,441C 438.25,443.374 434.084,445.874 430,448.5C 429.667,465.167 429.333,481.833 429,498.5C 427.279,501.281 424.779,502.948 421.5,503.5C 398.051,493.166 385.718,474.999 384.5,449C 385.5,425.813 395.833,408.313 415.5,396.5C 416.5,374.177 416.833,351.843 416.5,329.5C 400.833,329.5 385.167,329.5 369.5,329.5C 369.333,343.837 369.5,358.171 370,372.5C 377.313,374.817 381.313,379.817 382,387.5C 382.667,423.5 382.667,459.5 382,495.5C 381.5,500 379,502.5 374.5,503C 355.781,503.948 337.114,503.614 318.5,502C 316.951,500.786 315.785,499.286 315,497.5C 314.333,459.833 314.333,422.167 315,384.5C 316.911,378.921 320.577,374.921 326,372.5C 326.667,334.167 326.667,295.833 326,257.5C 324.274,253.047 322.274,248.714 320,244.5C 319.065,242.091 318.565,239.591 318.5,237C 321.271,222.749 324.438,208.582 328,194.5C 330.866,191.652 334.366,190.152 338.5,190C 307.848,149.45 268.181,136.784 219.5,152C 201.032,159.552 186.032,171.385 174.5,187.5C 218.055,201.07 239.721,230.737 239.5,276.5C 252.92,277.652 259.087,284.986 258,298.5C 254.288,310.342 246.121,315.676 233.5,314.5C 228.53,336.617 216.53,353.783 197.5,366C 259.104,386.694 294.77,429.194 304.5,493.5C 304.649,497.035 303.316,499.868 300.5,502C 205.223,503.659 109.89,503.993 14.5,503C 8.82505,501.834 6.49172,498.334 7.5,492.5C 15.3925,437.185 44.3925,397.352 94.5,373C 100.964,370.102 107.63,367.769 114.5,366C 95.3281,354 82.9948,337 77.5,315C 63.2554,315.247 54.922,308.414 52.5,294.5C 42.1667,290.333 31.8333,286.167 21.5,282C 20.283,280.352 19.4497,278.519 19,276.5C 18.0323,254.103 18.3656,231.77 20,209.5C 21.1094,207.185 22.9427,205.685 25.5,205C 36.4285,201.025 47.2618,196.858 58,192.5C 62.5225,175.26 69.1892,158.926 78,143.5C 78.6667,141.833 78.6667,140.167 78,138.5C 72.7775,127.498 67.9441,116.331 63.5,105C 64,103.5 64.5,102 65,100.5C 80.5,85 96,69.5 111.5,54C 113,53.5 114.5,53 116,52.5C 128.095,57.3083 140.095,62.3083 152,67.5C 168.335,58.7185 185.502,51.8852 203.5,47C 208.133,34.7707 212.966,22.6041 218,10.5C 219.876,9.39127 221.709,8.39127 223.5,7.5 Z M 230.5,24.5 C 247.18,24.1672 263.847,24.5005 280.5,25.5C 284.837,37.6671 289.837,49.5005 295.5,61C 316.657,66.5791 336.657,74.9124 355.5,86C 358.257,86.5837 360.923,86.2504 363.5,85C 373.289,80.3547 383.122,75.8547 393,71.5C 404.833,83.3333 416.667,95.1667 428.5,107C 424.145,116.878 419.645,126.711 415,136.5C 413.75,139.077 413.416,141.743 414,144.5C 425.088,163.343 433.421,183.343 439,204.5C 445.127,207.879 451.461,210.879 458,213.5C 458.832,224.515 458.666,235.515 457.5,246.5C 452.843,249.838 447.843,252.004 442.5,253C 438.25,250.626 434.084,248.126 430,245.5C 429.667,228.833 429.333,212.167 429,195.5C 424.985,190.28 420.152,189.446 414.5,193C 387.692,211.422 379.192,236.255 389,267.5C 394.8,280.472 403.8,290.472 416,297.5C 416.499,302.489 416.666,307.489 416.5,312.5C 400.833,312.5 385.167,312.5 369.5,312.5C 369.333,294.497 369.5,276.497 370,258.5C 373.399,251.706 376.232,244.706 378.5,237.5C 375.649,223.43 372.483,209.43 369,195.5C 366.442,191.97 362.942,190.137 358.5,190C 330.656,143.58 289.656,123.58 235.5,130C 200.883,136.96 174.216,155.293 155.5,185C 112.963,188.554 85.7958,210.72 74,251.5C 72.7133,259.781 72.2133,268.114 72.5,276.5C 68.4238,276.121 64.7571,277.121 61.5,279.5C 53.1667,276.167 44.8333,272.833 36.5,269.5C 35.1667,252.833 35.1667,236.167 36.5,219.5C 48.6671,215.163 60.5005,210.163 72,204.5C 77.5791,183.343 85.9124,163.343 97,144.5C 97.5837,141.743 97.2504,139.077 96,136.5C 91.3547,126.711 86.8547,116.878 82.5,107C 94.3333,95.1667 106.167,83.3333 118,71.5C 129.432,77.0492 141.098,82.0492 153,86.5C 162.185,82.1581 171.351,77.6581 180.5,73C 191.965,68.4007 203.631,64.4007 215.5,61C 221.453,49.2563 226.453,37.0896 230.5,24.5 Z M 151.5,202.5 C 184.211,203.072 206.711,218.405 219,248.5C 221.799,257.629 222.966,266.962 222.5,276.5C 178.167,276.5 133.833,276.5 89.5,276.5C 89.5693,234.44 110.236,209.774 151.5,202.5 Z M 342.5,207.5 C 346.5,207.5 350.5,207.5 354.5,207.5C 356.496,216.821 358.496,226.154 360.5,235.5C 358.567,242.037 356.067,248.37 353,254.5C 352.5,293.832 352.333,333.165 352.5,372.5C 349.5,372.5 346.5,372.5 343.5,372.5C 343.667,332.499 343.5,292.499 343,252.5C 340.112,247.168 337.612,241.668 335.5,236C 337.776,226.447 340.109,216.947 342.5,207.5 Z M 475.5,216.5 C 486.737,229.375 489.57,244.042 484,260.5C 479.167,272 471,280.167 459.5,285C 457.951,286.214 456.785,287.714 456,289.5C 455.333,327.833 455.333,366.167 456,404.5C 456.785,406.286 457.951,407.786 459.5,409C 482.777,420.728 490.944,439.228 484,464.5C 482.086,469.335 479.419,473.669 476,477.5C 475.964,464.072 475.297,450.739 474,437.5C 465.426,431.934 456.593,426.768 447.5,422C 445.5,421.333 443.5,421.333 441.5,422C 431.753,426.62 422.587,432.12 414,438.5C 412.725,451.097 412.058,463.764 412,476.5C 396.738,454.224 398.904,433.724 418.5,415C 422.007,412.746 425.673,410.746 429.5,409C 431.487,407.681 432.654,405.848 433,403.5C 433.667,365.833 433.667,328.167 433,290.5C 432.654,288.152 431.487,286.319 429.5,285C 405.62,273.039 397.454,254.206 405,228.5C 407.084,224.664 409.417,220.997 412,217.5C 412.058,230.236 412.725,242.903 414,255.5C 422.905,261.398 432.071,266.898 441.5,272C 443.5,272.667 445.5,272.667 447.5,272C 456.593,267.232 465.426,262.066 474,256.5C 475.463,243.265 475.963,229.932 475.5,216.5 Z M 70.5,293.5 C 127.643,293.004 184.643,293.504 241.5,295C 240.833,295.667 240.167,296.333 239.5,297C 183.833,297.667 128.167,297.667 72.5,297C 71.0267,296.29 70.3601,295.124 70.5,293.5 Z M 95.5,314.5 C 135.5,314.5 175.5,314.5 215.5,314.5C 206.036,343.265 186.036,358.598 155.5,360.5C 125.306,358.29 105.306,342.957 95.5,314.5 Z M 141.5,377.5 C 196.19,374.429 238.69,395.429 269,440.5C 277.284,454.516 283.118,469.516 286.5,485.5C 199.503,486.5 112.503,486.833 25.5,486.5C 35.9606,436.201 65.294,402.034 113.5,384C 122.822,381.167 132.155,379 141.5,377.5 Z M 331.5,389.5 C 342.833,389.5 354.167,389.5 365.5,389.5C 365.5,421.833 365.5,454.167 365.5,486.5C 354.167,486.5 342.833,486.5 331.5,486.5C 331.5,454.167 331.5,421.833 331.5,389.5 Z"/></g>
</svg>
