<?xml version="1.0" encoding="UTF-8"?>
<!DOCTYPE svg PUBLIC "-//W3C//DTD SVG 1.1//EN" "http://www.w3.org/Graphics/SVG/1.1/DTD/svg11.dtd">
<svg xmlns="http://www.w3.org/2000/svg" version="1.1" width="512px" height="512px" style="shape-rendering:geometricPrecision; text-rendering:geometricPrecision; image-rendering:optimizeQuality; fill-rule:evenodd; clip-rule:evenodd" xmlns:xlink="http://www.w3.org/1999/xlink">
<g><path style="opacity:0.951" fill="#000000" d="M -0.5,332.5 C -0.5,232.5 -0.5,132.5 -0.5,32.5C 4.10015,16.0685 14.7668,5.90179 31.5,2C 146.833,1.33333 262.167,1.33333 377.5,2C 397.829,6.32798 408.995,18.828 411,39.5C 411.167,53.6667 411.333,67.8333 411.5,82C 411.643,97.2313 411.143,112.398 410,127.5C 408.471,130.516 405.971,131.849 402.5,131.5C 399.209,131.721 396.709,130.387 395,127.5C 394.667,97.5 394.333,67.5 394,37.5C 391.918,27.7518 386.084,21.5852 376.5,19C 261.833,18.3333 147.167,18.3333 32.5,19C 23.0444,22.1244 17.5444,28.6244 16,38.5C 15.3333,134.5 15.3333,230.5 16,326.5C 18.1667,338 25,344.833 36.5,347C 106.5,347.333 176.5,347.667 246.5,348C 251.518,351.722 252.351,356.222 249,361.5C 248.25,362.126 247.416,362.626 246.5,363C 174.5,363.667 102.5,363.667 30.5,363C 14.3186,358.651 3.98523,348.484 -0.5,332.5 Z"/></g>
<g><path style="opacity:0.938" fill="#000000" d="M 152.5,32.5 C 157.956,32.0262 161.456,34.3595 163,39.5C 163.333,63.5 163.667,87.5 164,111.5C 174.167,102.667 184.333,93.8333 194.5,85C 201.833,80.3333 209.167,80.3333 216.5,85C 226.648,93.6474 236.648,102.481 246.5,111.5C 247.333,86.8401 247.833,62.1734 248,37.5C 251.071,32.7012 255.238,31.5345 260.5,34C 261.701,34.9025 262.535,36.0692 263,37.5C 263.667,64.8333 263.667,92.1667 263,119.5C 257.866,129.386 250.032,132.219 239.5,128C 228.314,117.98 216.981,108.147 205.5,98.5C 193.98,108.521 182.313,118.355 170.5,128C 159.56,132.029 151.726,128.862 147,118.5C 146.333,91.5 146.333,64.5 147,37.5C 148.352,35.251 150.185,33.5844 152.5,32.5 Z"/></g>
<g><path style="opacity:0.94" fill="#000000" d="M 511.5,169.5 C 511.5,275.167 511.5,380.833 511.5,486.5C 507.791,499.704 499.125,507.537 485.5,510C 421.5,510.667 357.5,510.667 293.5,510C 279.591,507.808 270.757,499.975 267,486.5C 266.333,381.167 266.333,275.833 267,170.5C 270.167,158 278,150.167 290.5,147C 356.5,146.333 422.5,146.333 488.5,147C 500.016,150.684 507.683,158.184 511.5,169.5 Z M 292.5,163.5 C 357.168,163.333 421.834,163.5 486.5,164C 491.266,166.429 494.1,170.263 495,175.5C 495.5,184.494 495.666,193.494 495.5,202.5C 424.833,202.5 354.167,202.5 283.5,202.5C 283.334,192.494 283.5,182.494 284,172.5C 285.688,168.315 288.521,165.315 292.5,163.5 Z M 283.5,219.5 C 354.167,219.5 424.833,219.5 495.5,219.5C 495.5,292.167 495.5,364.833 495.5,437.5C 424.833,437.5 354.167,437.5 283.5,437.5C 283.5,364.833 283.5,292.167 283.5,219.5 Z M 283.5,455.5 C 354.167,455.5 424.833,455.5 495.5,455.5C 495.666,463.84 495.5,472.173 495,480.5C 494.367,485.612 491.867,489.445 487.5,492C 454.726,493.156 421.892,493.656 389,493.5C 357.167,493.333 325.333,493.167 293.5,493C 289.173,491.427 286.007,488.593 284,484.5C 283.5,474.839 283.334,465.172 283.5,455.5 Z"/></g>
<g><path style="opacity:0.919" fill="#000000" d="M 45.5,167.5 C 60.837,167.333 76.1703,167.5 91.5,168C 98.665,170.131 100.665,174.631 97.5,181.5C 96.5,182.333 95.5,183.167 94.5,184C 81.5043,184.5 68.5043,184.667 55.5,184.5C 55.9428,197.574 55.4428,210.574 54,223.5C 52.4714,226.516 49.9714,227.849 46.5,227.5C 43.2089,227.721 40.7089,226.387 39,223.5C 38.3333,206.5 38.3333,189.5 39,172.5C 40.6027,169.965 42.7694,168.298 45.5,167.5 Z"/></g>
<g><path style="opacity:0.941" fill="#000000" d="M 139.5,167.5 C 154.504,167.333 169.504,167.5 184.5,168C 186.519,168.45 188.352,169.283 190,170.5C 191.639,188.076 191.972,205.742 191,223.5C 186,228.833 181,228.833 176,223.5C 175.5,210.504 175.333,197.504 175.5,184.5C 162.496,184.667 149.496,184.5 136.5,184C 132.068,180.709 130.901,176.542 133,171.5C 134.792,169.372 136.958,168.039 139.5,167.5 Z"/></g>
<g><path style="opacity:0.911" fill="#000000" d="M 360.5,174.5 C 379.503,174.333 398.503,174.5 417.5,175C 423.619,179.6 423.952,184.6 418.5,190C 417.167,190.333 415.833,190.667 414.5,191C 397.5,191.667 380.5,191.667 363.5,191C 358.623,190.289 355.957,187.456 355.5,182.5C 356.179,179.127 357.846,176.46 360.5,174.5 Z"/></g>
<g><path style="opacity:0.921" fill="#000000" d="M 64.5,198.5 C 84.9254,198.024 105.259,198.524 125.5,200C 126.701,200.903 127.535,202.069 128,203.5C 128.667,213.833 128.667,224.167 128,234.5C 123.357,240.663 118.357,240.996 113,235.5C 111.671,228.908 111.171,222.241 111.5,215.5C 95.4427,215.938 79.4427,215.438 63.5,214C 58.1533,208.506 58.4866,203.339 64.5,198.5 Z"/></g>
<g><path style="opacity:0.909" fill="#000000" d="M 151.5,202.5 C 157.521,201.37 161.354,203.703 163,209.5C 163.667,221.833 163.667,234.167 163,246.5C 160.51,253.16 156.01,254.993 149.5,252C 148.299,251.097 147.465,249.931 147,248.5C 146.333,234.833 146.333,221.167 147,207.5C 148.025,205.313 149.525,203.646 151.5,202.5 Z"/></g>
<g><path style="opacity:0.962" fill="#000000" d="M 75.5,223.5 C 80.2225,222.553 84.0558,223.886 87,227.5C 87.6667,245.833 87.6667,264.167 87,282.5C 83.2783,287.518 78.7783,288.351 73.5,285C 72.8742,284.25 72.3742,283.416 72,282.5C 71.3333,264.167 71.3333,245.833 72,227.5C 73.3756,226.295 74.5423,224.962 75.5,223.5 Z"/></g>
<g><path style="opacity:0.913" fill="#000000" d="M 116.5,246.5 C 121.635,245.426 125.468,247.093 128,251.5C 128.5,259.159 128.666,266.826 128.5,274.5C 140.838,274.333 153.171,274.5 165.5,275C 171.619,279.6 171.952,284.6 166.5,290C 165.167,290.333 163.833,290.667 162.5,291C 146.779,291.937 131.112,291.603 115.5,290C 113.232,288.442 112.066,286.276 112,283.5C 111.333,273.5 111.333,263.5 112,253.5C 112.545,250.473 114.045,248.14 116.5,246.5 Z"/></g>
<g><path style="opacity:0.917" fill="#000000" d="M 320.5,251.5 C 335.504,251.333 350.504,251.5 365.5,252C 371.467,253.643 373.634,257.476 372,263.5C 371.167,265.667 369.667,267.167 367.5,268C 354.838,268.5 342.171,268.667 329.5,268.5C 329.667,281.171 329.5,293.838 329,306.5C 326.565,311.224 322.731,312.724 317.5,311C 316.069,310.535 314.903,309.701 314,308.5C 312.376,291.567 312.043,274.567 313,257.5C 314.542,254.108 317.042,252.108 320.5,251.5 Z"/></g>
<g><path style="opacity:0.917" fill="#000000" d="M 412.5,251.5 C 427.837,251.333 443.17,251.5 458.5,252C 460.848,252.346 462.681,253.513 464,255.5C 465.638,272.409 465.971,289.409 465,306.5C 462.565,311.224 458.731,312.724 453.5,311C 450.898,310.065 449.398,308.232 449,305.5C 448.5,293.171 448.333,280.838 448.5,268.5C 435.829,268.667 423.162,268.5 410.5,268C 405.465,264.987 404.298,260.82 407,255.5C 408.5,253.531 410.333,252.198 412.5,251.5 Z"/></g>
<g><path style="opacity:0.919" fill="#000000" d="M 44.5,260.5 C 49.9565,260.026 53.4565,262.359 55,267.5C 55.4999,279.829 55.6665,292.162 55.5,304.5C 67.8378,304.333 80.1712,304.5 92.5,305C 98.5925,307.274 100.426,311.441 98,317.5C 96.786,319.049 95.286,320.215 93.5,321C 76.0755,321.971 58.7421,321.638 41.5,320C 40.2986,319.097 39.4652,317.931 39,316.5C 38.3333,299.5 38.3333,282.5 39,265.5C 40.3516,263.251 42.1849,261.584 44.5,260.5 Z"/></g>
<g><path style="opacity:0.941" fill="#000000" d="M 181.5,260.5 C 185.794,260.198 188.961,261.864 191,265.5C 191.667,282.833 191.667,300.167 191,317.5C 189.786,319.049 188.286,320.215 186.5,321C 170.167,321.667 153.833,321.667 137.5,321C 132.223,318.167 130.723,314 133,308.5C 134.319,306.513 136.152,305.346 138.5,305C 150.829,304.5 163.162,304.333 175.5,304.5C 175.333,291.496 175.5,278.496 176,265.5C 177.107,262.887 178.94,261.22 181.5,260.5 Z"/></g>
<g><path style="opacity:0.918" fill="#000000" d="M 339.5,282.5 C 359.169,282.333 378.836,282.5 398.5,283C 401.108,284.378 402.608,286.545 403,289.5C 403.895,299.561 403.562,309.561 402,319.5C 396.643,324.996 391.643,324.663 387,318.5C 386.5,312.175 386.334,305.842 386.5,299.5C 370.429,299.954 354.429,299.454 338.5,298C 334.251,294.623 333.418,290.457 336,285.5C 337.145,284.364 338.312,283.364 339.5,282.5 Z"/></g>
<g><path style="opacity:0.908" fill="#000000" d="M 425.5,285.5 C 430.28,284.641 433.78,286.308 436,290.5C 436.667,304.5 436.667,318.5 436,332.5C 432.987,337.535 428.82,338.702 423.5,336C 421.513,334.681 420.346,332.848 420,330.5C 419.333,317.833 419.333,305.167 420,292.5C 420.938,289.402 422.772,287.069 425.5,285.5 Z"/></g>
<g><path style="opacity:0.912" fill="#000000" d="M 349.5,307.5 C 354.742,306.271 358.575,307.937 361,312.5C 361.667,330.167 361.667,347.833 361,365.5C 355.73,373.214 350.396,373.214 345,365.5C 344.333,348.167 344.333,330.833 345,313.5C 345.599,310.746 347.099,308.746 349.5,307.5 Z"/></g>
<g><path style="opacity:0.918" fill="#000000" d="M 391.5,330.5 C 395.954,329.617 399.454,330.95 402,334.5C 403.396,342.08 403.896,349.747 403.5,357.5C 415.171,357.333 426.838,357.5 438.5,358C 443.224,360.435 444.724,364.269 443,369.5C 442.065,372.102 440.232,373.602 437.5,374C 422.5,374.667 407.5,374.667 392.5,374C 389.943,373.315 388.109,371.815 387,369.5C 386.333,358.167 386.333,346.833 387,335.5C 388.025,333.313 389.525,331.646 391.5,330.5 Z"/></g>
<g><path style="opacity:0.917" fill="#000000" d="M 318.5,344.5 C 323.46,344.06 326.96,346.06 329,350.5C 329.5,363.162 329.667,375.829 329.5,388.5C 341.838,388.333 354.171,388.5 366.5,389C 371.924,391.017 373.758,394.85 372,400.5C 371.167,402.667 369.667,404.167 367.5,405C 351.167,405.667 334.833,405.667 318.5,405C 315.667,404.167 313.833,402.333 313,399.5C 312.333,383.167 312.333,366.833 313,350.5C 314.36,347.977 316.193,345.977 318.5,344.5 Z"/></g>
<g><path style="opacity:0.916" fill="#000000" d="M 454.5,344.5 C 459.46,344.06 462.96,346.06 465,350.5C 465.971,367.925 465.638,385.258 464,402.5C 463.097,403.701 461.931,404.535 460.5,405C 443.833,405.667 427.167,405.667 410.5,405C 405.173,401.564 404.173,397.064 407.5,391.5C 408.665,390.416 409.998,389.583 411.5,389C 423.829,388.5 436.162,388.333 448.5,388.5C 448.333,375.829 448.5,363.162 449,350.5C 450.36,347.977 452.193,345.977 454.5,344.5 Z"/></g>
<g><path style="opacity:0.892" fill="#000000" d="M 379.5,465.5 C 386.615,465.075 393.615,465.575 400.5,467C 403.902,470.719 404.402,474.886 402,479.5C 400.829,480.893 399.329,481.727 397.5,482C 391.833,482.667 386.167,482.667 380.5,482C 375.076,479.983 373.242,476.15 375,470.5C 376.025,468.313 377.525,466.646 379.5,465.5 Z"/></g>
</svg>
