<?xml version="1.0" encoding="UTF-8"?>
<!DOCTYPE svg PUBLIC "-//W3C//DTD SVG 1.1//EN" "http://www.w3.org/Graphics/SVG/1.1/DTD/svg11.dtd">
<svg xmlns="http://www.w3.org/2000/svg" version="1.1" width="512px" height="512px" style="shape-rendering:geometricPrecision; text-rendering:geometricPrecision; image-rendering:optimizeQuality; fill-rule:evenodd; clip-rule:evenodd" xmlns:xlink="http://www.w3.org/1999/xlink">
<g><path style="opacity:0.976" fill="#cf81f7" d="M 484.5,-0.5 C 488.833,-0.5 493.167,-0.5 497.5,-0.5C 504.5,1.83333 509.167,6.5 511.5,13.5C 511.5,18.1667 511.5,22.8333 511.5,27.5C 503.181,74.7422 494.848,122.076 486.5,169.5C 485.793,163.964 485.126,158.298 484.5,152.5C 485.703,101.865 485.703,51.1987 484.5,0.5C 484.5,0.166667 484.5,-0.166667 484.5,-0.5 Z"/></g>
<g><path style="opacity:0.987" fill="#cc86f7" d="M 484.5,0.5 C 485.703,51.1987 485.703,101.865 484.5,152.5C 485.126,158.298 485.793,163.964 486.5,169.5C 474.654,242.378 462.321,315.044 449.5,387.5C 449.833,308.665 449.499,229.998 448.5,151.5C 453.508,119.787 458.841,88.1204 464.5,56.5C 464.167,55.8333 463.833,55.1667 463.5,54.5C 458.891,56.7007 454.225,58.7007 449.5,60.5C 449.5,45.5 449.5,30.5 449.5,15.5C 461.051,10.2246 472.717,5.22458 484.5,0.5 Z"/></g>
<g><path style="opacity:0.986" fill="#c98cf8" d="M 449.5,15.5 C 449.5,30.5 449.5,45.5 449.5,60.5C 437.804,66.3443 425.804,71.6777 413.5,76.5C 414.483,61.5781 414.816,46.5781 414.5,31.5C 426.167,26.1667 437.833,20.8333 449.5,15.5 Z"/></g>
<g><path style="opacity:0.986" fill="#c592f8" d="M 414.5,31.5 C 414.816,46.5781 414.483,61.5781 413.5,76.5C 402.459,82.0172 391.126,87.0172 379.5,91.5C 380.15,76.7943 379.483,62.461 377.5,48.5C 389.649,42.5944 401.983,36.9277 414.5,31.5 Z"/></g>
<g><path style="opacity:0.987" fill="#c297f8" d="M 377.5,48.5 C 379.483,62.461 380.15,76.7943 379.5,91.5C 372.473,95.3438 365.14,98.6772 357.5,101.5C 358.822,86.7354 358.822,72.0688 357.5,57.5C 363.861,53.9893 370.528,50.9893 377.5,48.5 Z"/></g>
<g><path style="opacity:0.99" fill="#c09af9" d="M 357.5,57.5 C 358.822,72.0688 358.822,86.7354 357.5,101.5C 351.139,105.011 344.472,108.011 337.5,110.5C 337.5,95.8333 337.5,81.1667 337.5,66.5C 343.766,62.739 350.433,59.739 357.5,57.5 Z"/></g>
<g><path style="opacity:0.988" fill="#bd9ff9" d="M 337.5,66.5 C 337.5,81.1667 337.5,95.8333 337.5,110.5C 326.017,116.072 314.35,121.406 302.5,126.5C 302.184,111.422 302.517,96.4219 303.5,81.5C 314.541,75.9828 325.874,70.9828 337.5,66.5 Z"/></g>
<g><path style="opacity:0.989" fill="#baa5f9" d="M 303.5,81.5 C 302.517,96.4219 302.184,111.422 302.5,126.5C 291.172,131.499 279.838,136.499 268.5,141.5C 267.504,127.01 267.171,112.343 267.5,97.5C 279.196,91.6557 291.196,86.3223 303.5,81.5 Z"/></g>
<g><path style="opacity:0.99" fill="#b6abf9" d="M 267.5,97.5 C 267.171,112.343 267.504,127.01 268.5,141.5C 256.324,147.344 243.99,153.011 231.5,158.5C 231.816,143.422 231.483,128.422 230.5,113.5C 242.712,107.894 255.046,102.561 267.5,97.5 Z"/></g>
<g><path style="opacity:0.989" fill="#b2b2fa" d="M 230.5,113.5 C 231.483,128.422 231.816,143.422 231.5,158.5C 217.838,164.499 204.172,170.499 190.5,176.5C 189.86,161.424 190.526,146.59 192.5,132C 192.272,131.601 191.938,131.435 191.5,131.5C 204.316,125.261 217.316,119.261 230.5,113.5 Z"/></g>
<g><path style="opacity:0.989" fill="#c396f8" d="M 359.5,196.5 C 358.503,178.007 358.17,159.341 358.5,140.5C 364.919,131.467 373.586,128.3 384.5,131C 395.752,136.343 399.919,145.176 397,157.5C 395.92,159.996 394.586,162.33 393,164.5C 382.267,175.735 371.101,186.402 359.5,196.5 Z"/></g>
<g><path style="opacity:0.992" fill="#afb7fa" d="M 191.5,131.5 C 191.938,131.435 192.272,131.601 192.5,132C 190.526,146.59 189.86,161.424 190.5,176.5C 184.323,179.558 177.989,182.225 171.5,184.5C 171.5,169.833 171.5,155.167 171.5,140.5C 177.861,136.989 184.528,133.989 191.5,131.5 Z"/></g>
<g><path style="opacity:0.993" fill="#adbafa" d="M 171.5,140.5 C 171.5,155.167 171.5,169.833 171.5,184.5C 166.48,187.677 161.146,190.343 155.5,192.5C 155.816,177.422 155.483,162.422 154.5,147.5C 160.048,144.893 165.715,142.56 171.5,140.5 Z"/></g>
<g><path style="opacity:0.988" fill="#c09af8" d="M 358.5,140.5 C 358.17,159.341 358.503,178.007 359.5,196.5C 352.5,204.167 345.167,211.5 337.5,218.5C 337.5,199.5 337.5,180.5 337.5,161.5C 344.167,154.167 351.167,147.167 358.5,140.5 Z"/></g>
<g><path style="opacity:0.984" fill="#abbefa" d="M 154.5,147.5 C 155.483,162.422 155.816,177.422 155.5,192.5C 144.609,197.446 133.609,202.113 122.5,206.5C 120.517,192.539 119.85,178.206 120.5,163.5C 131.675,157.989 143.008,152.656 154.5,147.5 Z"/></g>
<g><path style="opacity:0.985" fill="#c98cf8" d="M 448.5,151.5 C 449.499,229.998 449.833,308.665 449.5,387.5C 443.875,424.248 437.709,460.915 431,497.5C 429.24,504.762 424.74,509.095 417.5,510.5C 417.832,453.998 417.499,397.664 416.5,341.5C 426.736,278.087 437.402,214.754 448.5,151.5 Z"/></g>
<g><path style="opacity:0.986" fill="#bd9ff8" d="M 337.5,161.5 C 337.5,180.5 337.5,199.5 337.5,218.5C 327.5,229.167 317.167,239.5 306.5,249.5C 304.983,249.511 303.816,250.177 303,251.5C 302.5,233.17 302.333,214.836 302.5,196.5C 313.833,184.5 325.5,172.833 337.5,161.5 Z"/></g>
<g><path style="opacity:0.986" fill="#a7c4fb" d="M 120.5,163.5 C 119.85,178.206 120.517,192.539 122.5,206.5C 110.127,212.684 97.4608,218.35 84.5,223.5C 84.5,208.833 84.5,194.167 84.5,179.5C 96.2066,173.65 108.207,168.316 120.5,163.5 Z"/></g>
<g><path style="opacity:0.988" fill="#a4cafb" d="M 84.5,179.5 C 84.5,194.167 84.5,208.833 84.5,223.5C 77.3792,227.225 70.0459,230.725 62.5,234C 69.7361,239.419 77.0695,244.585 84.5,249.5C 84.8297,265.675 84.4964,281.675 83.5,297.5C 73.0249,291.093 62.6916,284.426 52.5,277.5C 53.4911,249.574 53.8244,221.574 53.5,193.5C 63.4086,188.048 73.7419,183.382 84.5,179.5 Z"/></g>
<g><path style="opacity:0.994" fill="#a2cdfb" d="M 53.5,193.5 C 53.8244,221.574 53.4911,249.574 52.5,277.5C 49.5,275.5 46.5,273.5 43.5,271.5C 43.5,246.833 43.5,222.167 43.5,197.5C 46.6142,195.609 49.9475,194.276 53.5,193.5 Z"/></g>
<g><path style="opacity:0.987" fill="#9fd1fc" d="M 43.5,197.5 C 43.5,222.167 43.5,246.833 43.5,271.5C 31.1952,263.344 18.8619,255.177 6.5,247C 3.53498,244.21 1.20165,241.043 -0.5,237.5C -0.5,233.167 -0.5,228.833 -0.5,224.5C 1.40566,219.878 4.40566,216.045 8.5,213C 20.1882,207.821 31.8549,202.655 43.5,197.5 Z"/></g>
<g><path style="opacity:0.988" fill="#b9a5f9" d="M 302.5,196.5 C 302.333,214.836 302.5,233.17 303,251.5C 303.816,250.177 304.983,249.511 306.5,249.5C 293.833,262.833 280.833,275.833 267.5,288.5C 267.5,269.5 267.5,250.5 267.5,231.5C 278.833,219.5 290.5,207.833 302.5,196.5 Z"/></g>
<g><path style="opacity:0.99" fill="#b6abf9" d="M 267.5,231.5 C 267.5,250.5 267.5,269.5 267.5,288.5C 256.135,300.865 244.135,312.532 231.5,323.5C 231.83,304.659 231.497,285.993 230.5,267.5C 242.219,254.78 254.552,242.78 267.5,231.5 Z"/></g>
<g><path style="opacity:0.981" fill="#a7c4fb" d="M 84.5,249.5 C 96.7949,257.141 108.795,265.141 120.5,273.5C 120.83,289.675 120.496,305.675 119.5,321.5C 107.205,313.859 95.2051,305.859 83.5,297.5C 84.4964,281.675 84.8297,265.675 84.5,249.5 Z"/></g>
<g><path style="opacity:0.991" fill="#b2b2fa" d="M 230.5,267.5 C 231.497,285.993 231.83,304.659 231.5,323.5C 227.188,328.146 222.855,332.813 218.5,337.5C 222.852,340.857 227.185,344.191 231.5,347.5C 231.5,385.833 231.5,424.167 231.5,462.5C 221.578,476.936 211.411,491.269 201,505.5C 198.522,507.82 195.689,509.486 192.5,510.5C 190.503,443.175 189.837,375.508 190.5,307.5C 203.5,293.833 216.833,280.5 230.5,267.5 Z M 205.5,379.5 C 213.913,384.415 221.913,389.915 229.5,396C 222.04,407.081 214.206,417.915 206,428.5C 205.5,412.17 205.333,395.837 205.5,379.5 Z"/></g>
<g><path style="opacity:0.982" fill="#abbefb" d="M 120.5,273.5 C 132.795,281.141 144.795,289.141 156.5,297.5C 155.504,313.325 155.17,329.325 155.5,345.5C 143.205,337.859 131.205,329.859 119.5,321.5C 120.496,305.675 120.83,289.675 120.5,273.5 Z"/></g>
<g><path style="opacity:0.996" fill="#aeb9fa" d="M 156.5,297.5 C 162.024,300.092 167.024,303.425 171.5,307.5C 171.832,373.669 171.499,439.669 170.5,505.5C 167.059,501.94 165.226,497.607 165,492.5C 164.667,445.5 164.333,398.5 164,351.5C 161.012,349.601 158.179,347.601 155.5,345.5C 155.17,329.325 155.504,313.325 156.5,297.5 Z"/></g>
<g><path style="opacity:0.997" fill="#afb7fa" d="M 171.5,307.5 C 175.43,309.581 179.264,311.914 183,314.5C 185.37,311.961 187.87,309.628 190.5,307.5C 189.837,375.508 190.503,443.175 192.5,510.5C 192.5,510.833 192.5,511.167 192.5,511.5C 187.833,511.5 183.167,511.5 178.5,511.5C 175.55,509.885 172.884,507.885 170.5,505.5C 171.499,439.669 171.832,373.669 171.5,307.5 Z"/></g>
<g><path style="opacity:0.99" fill="#b6abf9" d="M 231.5,347.5 C 244.517,355.339 257.184,363.673 269.5,372.5C 267.838,387.973 266.838,403.64 266.5,419.5C 265.12,418.294 263.953,418.627 263,420.5C 253.021,434.967 242.521,448.967 231.5,462.5C 231.5,424.167 231.5,385.833 231.5,347.5 Z"/></g>
<g><path style="opacity:0.984" fill="#c691f8" d="M 416.5,341.5 C 417.499,397.664 417.832,453.998 417.5,510.5C 417.5,510.833 417.5,511.167 417.5,511.5C 413.167,511.5 408.833,511.5 404.5,511.5C 395.893,506.224 387.559,500.558 379.5,494.5C 379.17,478.325 379.504,462.325 380.5,446.5C 385.723,449.698 390.89,453.031 396,456.5C 402.853,418.042 409.686,379.708 416.5,341.5 Z"/></g>
<g><path style="opacity:0.99" fill="#baa5f9" d="M 269.5,372.5 C 281.216,379.685 292.549,387.351 303.5,395.5C 302.504,411.325 302.17,427.325 302.5,443.5C 290.205,435.859 278.205,427.859 266.5,419.5C 266.838,403.64 267.838,387.973 269.5,372.5 Z"/></g>
<g><path style="opacity:0.986" fill="#bd9ff9" d="M 303.5,395.5 C 315.085,402.413 326.418,409.747 337.5,417.5C 338.151,433.868 337.485,449.868 335.5,465.5C 324.291,458.402 313.291,451.068 302.5,443.5C 302.17,427.325 302.504,411.325 303.5,395.5 Z"/></g>
<g><path style="opacity:0.99" fill="#c09bf9" d="M 337.5,417.5 C 344.5,422.167 351.5,426.833 358.5,431.5C 358.5,447.833 358.5,464.167 358.5,480.5C 350.558,475.886 342.892,470.886 335.5,465.5C 337.485,449.868 338.151,433.868 337.5,417.5 Z"/></g>
<g><path style="opacity:0.987" fill="#c397f8" d="M 358.5,431.5 C 365.87,436.513 373.204,441.513 380.5,446.5C 379.504,462.325 379.17,478.325 379.5,494.5C 371.976,490.575 364.976,485.908 358.5,480.5C 358.5,464.167 358.5,447.833 358.5,431.5 Z"/></g>
</svg>
