<?xml version="1.0" encoding="UTF-8"?>
<!DOCTYPE svg PUBLIC "-//W3C//DTD SVG 1.1//EN" "http://www.w3.org/Graphics/SVG/1.1/DTD/svg11.dtd">
<svg xmlns="http://www.w3.org/2000/svg" version="1.1" width="512px" height="512px" style="shape-rendering:geometricPrecision; text-rendering:geometricPrecision; image-rendering:optimizeQuality; fill-rule:evenodd; clip-rule:evenodd" xmlns:xlink="http://www.w3.org/1999/xlink">
<g><path style="opacity:0.923" fill="#000000" d="M 463.5,52.5 C 490.891,52.0612 502.391,65.3945 498,92.5C 493.333,97.8333 488.667,97.8333 484,92.5C 485.683,70.7448 476.183,63.5782 455.5,71C 321.662,126.724 187.662,182.057 53.5,237C 46.5545,239.806 39.8878,243.139 33.5,247C 30.93,249.067 28.93,251.567 27.5,254.5C 28.2531,256.753 29.5864,258.587 31.5,260C 57.635,269.267 83.9684,277.934 110.5,286C 115.818,290.713 115.818,295.38 110.5,300C 107.5,300.667 104.5,300.667 101.5,300C 75.7092,292.07 50.0426,283.736 24.5,275C 8.36006,263.161 7.36006,250.161 21.5,236C 25.8981,232.606 30.5648,229.606 35.5,227C 171.948,170.943 308.281,114.61 444.5,58C 450.817,55.6753 457.15,53.842 463.5,52.5 Z"/></g>
<g><path style="opacity:0.924" fill="#000000" d="M 481.5,127.5 C 488.253,125.772 492.253,128.272 493.5,135C 478.038,233.232 462.205,331.399 446,429.5C 438.645,452.533 423.145,461.7 399.5,457C 386.802,453.65 374.802,448.65 363.5,442C 320.806,414.322 278.806,385.656 237.5,356C 232.699,352.201 228.199,348.034 224,343.5C 215.333,331.167 215.333,318.833 224,306.5C 270.273,263.563 315.939,219.896 361,175.5C 362.5,173.333 364,171.167 365.5,169C 361.619,169.427 357.953,170.76 354.5,173C 345.167,178.667 335.833,184.333 326.5,190C 274.559,224.943 222.892,260.276 171.5,296C 166.561,299.805 161.394,300.305 156,297.5C 153.598,292.886 154.098,288.719 157.5,285C 220.167,243 282.833,201 345.5,159C 353.488,153.949 362.155,150.782 371.5,149.5C 377.195,149.59 381.028,152.257 383,157.5C 384.405,164.717 383.071,171.384 379,177.5C 376.667,180.833 374.333,184.167 372,187.5C 327.273,231.563 281.939,274.896 236,317.5C 232.667,322.5 232.667,327.5 236,332.5C 245.04,340.93 254.54,348.764 264.5,356C 299.894,380.392 335.56,404.392 371.5,428C 382.169,434.336 393.502,439.003 405.5,442C 415.595,444.035 423.095,440.535 428,431.5C 429.732,427.637 431.066,423.637 432,419.5C 447.147,323.469 462.481,227.469 478,131.5C 479.376,130.295 480.542,128.962 481.5,127.5 Z"/></g>
</svg>
