<?xml version="1.0" standalone="no"?>
<!DOCTYPE svg PUBLIC "-//W3C//DTD SVG 20010904//EN"
 "http://www.w3.org/TR/2001/REC-SVG-20010904/DTD/svg10.dtd">
<svg version="1.0" xmlns="http://www.w3.org/2000/svg"
 width="512.000000pt" height="512.000000pt" viewBox="0 0 512.000000 512.000000"
 preserveAspectRatio="xMidYMid meet">

<g transform="translate(0.000000,512.000000) scale(0.100000,-0.100000)"
fill="#000000" stroke="none">
<path d="M345 4135 c-30 -30 -32 -72 -10 -317 82 -927 387 -1711 859 -2206
391 -409 880 -621 1497 -649 l137 -6 26 26 26 26 0 576 0 575 43 -6 c292 -40
514 -144 711 -333 204 -196 327 -453 362 -755 5 -43 13 -66 30 -83 l23 -23
351 0 351 0 26 26 c26 26 26 26 19 149 -22 414 -188 818 -463 1128 -82 93
-206 206 -285 260 -26 17 -47 34 -47 37 0 3 21 19 47 37 26 18 85 66 131 106
365 322 591 792 617 1282 7 123 7 123 -19 149 l-26 26 -351 0 -351 0 -23 -23
c-17 -17 -25 -40 -30 -83 -34 -298 -144 -532 -346 -735 -201 -203 -426 -312
-727 -353 l-43 -6 0 575 0 576 -25 24 -24 25 -351 0 -351 0 -24 -25 -25 -24 0
-1001 c0 -701 -3 -1000 -11 -1000 -23 0 -160 70 -235 120 -107 71 -265 233
-343 350 -168 252 -277 558 -330 925 -23 157 -41 385 -41 518 0 80 -2 90 -25
112 l-24 25 -351 0 -351 0 -24 -25z m624 -325 c41 -644 209 -1130 509 -1476
160 -184 391 -338 593 -394 95 -26 115 -25 144 5 l25 24 0 1016 0 1015 240 0
240 0 0 -575 0 -576 25 -24 c28 -29 73 -32 220 -14 260 32 499 136 709 310
237 197 407 486 462 790 l17 89 243 0 c147 0 244 -4 244 -9 0 -6 -7 -61 -15
-124 -65 -497 -332 -920 -758 -1200 -133 -88 -133 -126 0 -214 425 -279 693
-704 758 -1200 8 -63 15 -118 15 -124 0 -5 -97 -9 -244 -9 l-243 0 -17 88
c-105 578 -586 1030 -1171 1101 -147 18 -192 15 -220 -14 l-25 -24 0 -577 0
-576 -82 6 c-556 45 -967 230 -1324 597 -436 449 -734 1201 -813 2049 -6 63
-14 141 -17 173 l-5 57 239 0 238 0 13 -190z"/>
</g>
</svg>
