<?xml version="1.0" encoding="UTF-8"?>
<!DOCTYPE svg PUBLIC "-//W3C//DTD SVG 1.1//EN" "http://www.w3.org/Graphics/SVG/1.1/DTD/svg11.dtd">
<svg xmlns="http://www.w3.org/2000/svg" version="1.1" width="512px" height="512px" style="shape-rendering:geometricPrecision; text-rendering:geometricPrecision; image-rendering:optimizeQuality; fill-rule:evenodd; clip-rule:evenodd" xmlns:xlink="http://www.w3.org/1999/xlink">
<g><path style="opacity:0.883" fill="#000000" d="M 28.5,52.5 C 157.834,52.3333 287.167,52.5 416.5,53C 425.237,55.4035 431.071,60.9035 434,69.5C 434.667,120.5 434.667,171.5 434,222.5C 431.667,225.167 429.333,225.167 427,222.5C 426.667,173.167 426.333,123.833 426,74.5C 424.702,68.5315 421.202,64.3648 415.5,62C 286.833,61.3333 158.167,61.3333 29.5,62C 24.5723,63.9268 21.4056,67.4268 20,72.5C 19.5,150.499 19.3333,228.499 19.5,306.5C 96.1696,306.167 172.836,306.5 249.5,307.5C 251.007,309.969 250.673,312.135 248.5,314C 172.167,314.5 95.8341,314.667 19.5,314.5C 19.3334,327.504 19.5001,340.504 20,353.5C 21.5733,357.827 24.4067,360.993 28.5,363C 101.776,364.324 175.11,364.991 248.5,365C 251.399,368.156 251.065,370.822 247.5,373C 220.169,373.5 192.835,373.667 165.5,373.5C 165.5,381.5 165.5,389.5 165.5,397.5C 193.169,397.333 220.835,397.5 248.5,398C 250.648,400.075 250.982,402.408 249.5,405C 211.584,406.321 173.584,406.988 135.5,407C 126.553,410.365 121.553,416.865 120.5,426.5C 163.168,426.333 205.835,426.5 248.5,427C 251.631,429.239 251.964,431.739 249.5,434.5C 204.541,435.661 159.541,435.828 114.5,435C 109.87,421.87 113.203,410.87 124.5,402C 127.674,400.275 131.007,398.942 134.5,398C 141.826,397.5 149.159,397.334 156.5,397.5C 156.5,389.5 156.5,381.5 156.5,373.5C 114.832,373.667 73.1653,373.5 31.5,373C 22.0588,371.561 15.5588,366.395 12,357.5C 10.3429,262.21 10.0096,166.877 11,71.5C 13.2506,61.7535 19.0839,55.4201 28.5,52.5 Z M 73.5,110.5 C 78.6646,110.162 80.8313,112.495 80,117.5C 75.9552,121.577 72.7885,120.91 70.5,115.5C 71.2599,113.64 72.2599,111.973 73.5,110.5 Z M 138.5,110.5 C 146.045,111.062 147.378,114.229 142.5,120C 136.96,120.443 135.127,117.943 137,112.5C 137.717,111.956 138.217,111.289 138.5,110.5 Z M 204.5,110.5 C 210.132,110.793 211.965,113.459 210,118.5C 205.477,121.656 202.644,120.49 201.5,115C 201.557,112.791 202.557,111.291 204.5,110.5 Z M 140.5,184.5 C 147.152,187.79 147.152,191.123 140.5,194.5C 135.199,191.075 135.199,187.742 140.5,184.5 Z M 298.5,185.5 C 299.458,185.953 300.292,186.619 301,187.5C 307.454,199.579 314.288,211.412 321.5,223C 306.833,223.667 292.167,223.667 277.5,223C 284.756,210.594 291.756,198.094 298.5,185.5 Z M 74.5,186.5 C 79.5,187.155 81.1666,189.822 79.5,194.5C 75.2143,197.675 72.2143,196.675 70.5,191.5C 71.1598,189.185 72.4931,187.519 74.5,186.5 Z M 204.5,186.5 C 211.304,187.593 212.637,190.759 208.5,196C 203.333,196.833 201.167,194.667 202,189.5C 203.045,188.627 203.878,187.627 204.5,186.5 Z"/></g>
<g><path style="opacity:0.902" fill="#000000" d="M 36.5,76.5 C 160.5,76.3333 284.5,76.5 408.5,77C 409,77.5 409.5,78 410,78.5C 410.667,133.833 410.667,189.167 410,244.5C 407.667,247.167 405.333,247.167 403,244.5C 402.5,191.501 402.333,138.501 402.5,85.5C 282.833,85.5 163.167,85.5 43.5,85.5C 43.5,151.167 43.5,216.833 43.5,282.5C 112.17,282.167 180.837,282.5 249.5,283.5C 251.007,285.969 250.673,288.135 248.5,290C 177.833,290.667 107.167,290.667 36.5,290C 36,289.5 35.5,289 35,288.5C 34.3333,218.5 34.3333,148.5 35,78.5C 35.7172,77.9558 36.2172,77.2891 36.5,76.5 Z M 73.5,110.5 C 72.2599,111.973 71.2599,113.64 70.5,115.5C 72.7885,120.91 75.9552,121.577 80,117.5C 80.8313,112.495 78.6646,110.162 73.5,110.5 Z M 138.5,110.5 C 138.217,111.289 137.717,111.956 137,112.5C 135.127,117.943 136.96,120.443 142.5,120C 147.378,114.229 146.045,111.062 138.5,110.5 Z M 204.5,110.5 C 202.557,111.291 201.557,112.791 201.5,115C 202.644,120.49 205.477,121.656 210,118.5C 211.965,113.459 210.132,110.793 204.5,110.5 Z M 135.5,158.5 C 136.817,164.678 136.817,171.012 135.5,177.5C 127.488,182.38 125.654,189.047 130,197.5C 135.854,203.077 142.354,203.91 149.5,200C 154.368,195.291 155.535,189.791 153,183.5C 151.636,180.637 149.47,178.637 146.5,177.5C 145.336,171.193 145.169,164.859 146,158.5C 154.772,174.378 163.272,190.378 171.5,206.5C 166.073,217.103 160.407,227.603 154.5,238C 145.5,238.667 136.5,238.667 127.5,238C 121.593,227.603 115.927,217.103 110.5,206.5C 118.841,190.483 127.175,174.483 135.5,158.5 Z M 140.5,184.5 C 135.199,187.742 135.199,191.075 140.5,194.5C 147.152,191.123 147.152,187.79 140.5,184.5 Z M 298.5,185.5 C 291.756,198.094 284.756,210.594 277.5,223C 292.167,223.667 306.833,223.667 321.5,223C 314.288,211.412 307.454,199.579 301,187.5C 300.292,186.619 299.458,185.953 298.5,185.5 Z M 74.5,186.5 C 72.4931,187.519 71.1598,189.185 70.5,191.5C 72.2143,196.675 75.2143,197.675 79.5,194.5C 81.1666,189.822 79.5,187.155 74.5,186.5 Z M 204.5,186.5 C 203.878,187.627 203.045,188.627 202,189.5C 201.167,194.667 203.333,196.833 208.5,196C 212.637,190.759 211.304,187.593 204.5,186.5 Z"/></g>
<g><path style="opacity:0.874" fill="#000000" d="M 72.5,101.5 C 79.6888,100.927 85.0222,103.76 88.5,110C 101.846,110.833 115.179,110.666 128.5,109.5C 132.934,102.077 139.267,99.9101 147.5,103C 149.684,105.016 151.684,107.183 153.5,109.5C 166.833,110.833 180.167,110.833 193.5,109.5C 198.836,101.286 205.836,99.4526 214.5,104C 220.284,110.344 220.951,117.177 216.5,124.5C 211.85,128.313 206.516,129.48 200.5,128C 197.305,126.305 194.972,123.805 193.5,120.5C 187.528,119.336 181.528,119.17 175.5,120C 197.13,133.406 208.963,152.906 211,178.5C 219.881,183.821 221.881,191.154 217,200.5C 208.732,207.585 201.065,206.918 194,198.5C 190.669,189.832 193.002,183.165 201,178.5C 198.66,149.147 183.326,130.147 155,121.5C 152.551,122.944 150.385,124.778 148.5,127C 143.5,130.333 138.5,130.333 133.5,127C 131.615,124.778 129.449,122.944 127,121.5C 106.672,127.501 92.3382,140.168 84,159.5C 81.5461,165.637 80.5461,171.971 81,178.5C 91.1767,185.725 92.0101,193.891 83.5,203C 68.3557,207.857 61.5223,202.357 63,186.5C 64.3333,182.5 67,179.833 71,178.5C 73.0187,152.949 84.852,133.449 106.5,120C 100.472,119.17 94.4724,119.336 88.5,120.5C 84.5435,127.639 78.5435,130.139 70.5,128C 62.9579,124.061 60.4579,117.895 63,109.5C 65.1608,105.495 68.3275,102.829 72.5,101.5 Z M 73.5,110.5 C 72.2599,111.973 71.2599,113.64 70.5,115.5C 72.7885,120.91 75.9552,121.577 80,117.5C 80.8313,112.495 78.6646,110.162 73.5,110.5 Z M 138.5,110.5 C 138.217,111.289 137.717,111.956 137,112.5C 135.127,117.943 136.96,120.443 142.5,120C 147.378,114.229 146.045,111.062 138.5,110.5 Z M 204.5,110.5 C 202.557,111.291 201.557,112.791 201.5,115C 202.644,120.49 205.477,121.656 210,118.5C 211.965,113.459 210.132,110.793 204.5,110.5 Z M 140.5,184.5 C 135.199,187.742 135.199,191.075 140.5,194.5C 147.152,191.123 147.152,187.79 140.5,184.5 Z M 74.5,186.5 C 72.4931,187.519 71.1598,189.185 70.5,191.5C 72.2143,196.675 75.2143,197.675 79.5,194.5C 81.1666,189.822 79.5,187.155 74.5,186.5 Z M 204.5,186.5 C 203.878,187.627 203.045,188.627 202,189.5C 201.167,194.667 203.333,196.833 208.5,196C 212.637,190.759 211.304,187.593 204.5,186.5 Z"/></g>
<g><path style="opacity:0.877" fill="#000000" d="M 138.5,135.5 C 141.044,135.104 143.211,135.771 145,137.5C 157,159.5 169,181.5 181,203.5C 181.667,205.167 181.667,206.833 181,208.5C 175.833,218.167 170.667,227.833 165.5,237.5C 168.497,238.248 171.497,238.915 174.5,239.5C 174.833,243.667 175.167,247.833 175.5,252C 175.464,256.589 174.798,260.923 173.5,265C 151.457,265.822 129.457,265.655 107.5,264.5C 106.167,256.167 106.167,247.833 107.5,239.5C 110.503,238.915 113.503,238.248 116.5,237.5C 111.333,227.833 106.167,218.167 101,208.5C 100.333,206.833 100.333,205.167 101,203.5C 113.258,180.645 125.758,157.979 138.5,135.5 Z M 135.5,158.5 C 127.175,174.483 118.841,190.483 110.5,206.5C 115.927,217.103 121.593,227.603 127.5,238C 136.5,238.667 145.5,238.667 154.5,238C 160.407,227.603 166.073,217.103 171.5,206.5C 163.272,190.378 154.772,174.378 146,158.5C 145.169,164.859 145.336,171.193 146.5,177.5C 149.47,178.637 151.636,180.637 153,183.5C 155.535,189.791 154.368,195.291 149.5,200C 142.354,203.91 135.854,203.077 130,197.5C 125.654,189.047 127.488,182.38 135.5,177.5C 136.817,171.012 136.817,164.678 135.5,158.5 Z M 140.5,184.5 C 135.199,187.742 135.199,191.075 140.5,194.5C 147.152,191.123 147.152,187.79 140.5,184.5 Z M 114.5,247.5 C 132.167,247.5 149.833,247.5 167.5,247.5C 167.5,250.5 167.5,253.5 167.5,256.5C 149.833,256.5 132.167,256.5 114.5,256.5C 114.5,253.5 114.5,250.5 114.5,247.5 Z"/></g>
<g><path style="opacity:0.899" fill="#000000" d="M 297.5,171.5 C 301.09,171.544 303.59,173.211 305,176.5C 314.08,192.996 323.414,209.329 333,225.5C 333.667,257.5 333.667,289.5 333,321.5C 329.844,324.399 327.178,324.065 325,320.5C 324.5,291.169 324.333,261.835 324.5,232.5C 307.5,232.5 290.5,232.5 273.5,232.5C 273.667,282.501 273.5,332.501 273,382.5C 270.667,385.167 268.333,385.167 266,382.5C 265.333,329.833 265.333,277.167 266,224.5C 276.022,206.44 286.522,188.773 297.5,171.5 Z M 298.5,185.5 C 291.756,198.094 284.756,210.594 277.5,223C 292.167,223.667 306.833,223.667 321.5,223C 314.288,211.412 307.454,199.579 301,187.5C 300.292,186.619 299.458,185.953 298.5,185.5 Z"/></g>
<g><path style="opacity:0.84" fill="#000000" d="M 427.5,247.5 C 429.199,247.34 430.866,247.506 432.5,248C 446.667,262.167 460.833,276.333 475,290.5C 477,292.833 477,295.167 475,297.5C 449.5,323 424,348.5 398.5,374C 392.601,376.765 390.101,374.932 391,368.5C 415.833,343.667 440.667,318.833 465.5,294C 453.653,281.986 441.653,270.152 429.5,258.5C 424.681,262.818 420.015,267.318 415.5,272C 419.393,275.39 422.727,279.223 425.5,283.5C 424.01,287.751 421.344,288.918 417.5,287C 414.667,284.167 411.833,281.333 409,278.5C 404.5,283 400,287.5 395.5,292C 399.601,295.427 402.934,299.427 405.5,304C 403.743,307.892 401.077,308.892 397.5,307C 394.667,304.167 391.833,301.333 389,298.5C 384.5,303 380,307.5 375.5,312C 378.667,315.167 381.833,318.333 385,321.5C 385.664,326.496 383.498,328.33 378.5,327C 375.651,323.984 372.651,321.15 369.5,318.5C 364.285,322.53 360.119,327.197 357,332.5C 360.038,335.203 362.705,338.203 365,341.5C 365.829,346.59 363.662,348.424 358.5,347C 355.651,343.984 352.651,341.15 349.5,338.5C 344.285,342.53 340.119,347.197 337,352.5C 339.667,355.167 342.333,357.833 345,360.5C 346.833,366.667 344.667,368.833 338.5,367C 335.651,363.984 332.651,361.15 329.5,358.5C 323.681,363.818 318.015,369.318 312.5,375C 306.434,375.714 304.6,373.214 307,367.5C 347.062,327.271 387.228,287.271 427.5,247.5 Z"/></g>
<g><path style="opacity:0.952" fill="#000000" d="M 297.5,253.5 C 299.722,253.178 301.556,253.845 303,255.5C 303.667,285.833 303.667,316.167 303,346.5C 300.667,347.833 298.333,347.833 296,346.5C 295.333,316.167 295.333,285.833 296,255.5C 296.717,254.956 297.217,254.289 297.5,253.5 Z"/></g>
<g><path style="opacity:0.866" fill="#000000" d="M 218.5,327.5 C 228.283,326.121 233.95,330.287 235.5,340C 232.52,350.824 225.853,354.157 215.5,350C 209.957,344.49 209.124,338.323 213,331.5C 214.812,330.023 216.645,328.69 218.5,327.5 Z M 220.5,336.5 C 227.399,337.277 228.066,339.61 222.5,343.5C 219.497,341.822 218.831,339.489 220.5,336.5 Z"/></g>
<g><path style="opacity:0.894" fill="#000000" d="M 291.5,390.5 C 352.501,390.333 413.501,390.5 474.5,391C 496.763,399.088 504.596,414.588 498,437.5C 492.896,448.479 484.396,455.312 472.5,458C 412.5,458.667 352.5,458.667 292.5,458C 270.138,450.789 261.638,435.623 267,412.5C 271.926,401.4 280.092,394.067 291.5,390.5 Z M 296.5,398.5 C 353.834,398.333 411.168,398.5 468.5,399C 485.196,402.365 492.696,412.532 491,429.5C 488.609,439.558 482.443,446.058 472.5,449C 412.833,449.667 353.167,449.667 293.5,449C 276.895,442.956 271.061,431.456 276,414.5C 280.371,405.957 287.204,400.624 296.5,398.5 Z M 296.5,417.5 C 304.783,417.419 307.45,421.086 304.5,428.5C 301.845,431.512 298.845,432.012 295.5,430C 291.48,425.552 291.813,421.385 296.5,417.5 Z"/></g>
<g><path style="opacity:0.865" fill="#000000" d="M 296.5,408.5 C 311.148,408.97 316.981,416.303 314,430.5C 308.848,439.475 301.348,441.975 291.5,438C 282.957,431.583 281.457,423.749 287,414.5C 289.843,411.837 293.009,409.837 296.5,408.5 Z M 296.5,417.5 C 291.813,421.385 291.48,425.552 295.5,430C 298.845,432.012 301.845,431.512 304.5,428.5C 307.45,421.086 304.783,417.419 296.5,417.5 Z"/></g>
</svg>
