<?xml version="1.0" encoding="UTF-8"?>
<!DOCTYPE svg PUBLIC "-//W3C//DTD SVG 1.1//EN" "http://www.w3.org/Graphics/SVG/1.1/DTD/svg11.dtd">
<svg xmlns="http://www.w3.org/2000/svg" version="1.1" width="512px" height="512px" style="shape-rendering:geometricPrecision; text-rendering:geometricPrecision; image-rendering:optimizeQuality; fill-rule:evenodd; clip-rule:evenodd" xmlns:xlink="http://www.w3.org/1999/xlink">
<g><path style="opacity:0.908" fill="#000000" d="M 37.5,13.5 C 182.834,13.3333 328.167,13.5 473.5,14C 491.873,18.3739 502.707,29.8739 506,48.5C 506.667,158.5 506.667,268.5 506,378.5C 502.5,398 491,409.5 471.5,413C 439.5,413.333 407.5,413.667 375.5,414C 379.333,417.833 383.167,421.667 387,425.5C 387.706,427.971 387.373,430.305 386,432.5C 372.805,446.029 359.305,459.196 345.5,472C 343.833,472.667 342.167,472.667 340.5,472C 334.319,465.652 327.986,459.485 321.5,453.5C 311.018,459.245 300.018,463.578 288.5,466.5C 288.666,475.839 288.5,485.173 288,494.5C 287.167,495.333 286.333,496.167 285.5,497C 265.5,497.667 245.5,497.667 225.5,497C 224.667,496.167 223.833,495.333 223,494.5C 222.5,485.173 222.334,475.839 222.5,466.5C 211.049,463.69 200.215,459.357 190,453.5C 183.543,458.955 177.376,464.788 171.5,471C 169.635,472.301 167.635,472.635 165.5,472C 151.695,459.196 138.195,446.029 125,432.5C 123,429.833 123,427.167 125,424.5C 128.5,421 132,417.5 135.5,414C 103.5,413.667 71.5,413.333 39.5,413C 20,409.5 8.5,398 5,378.5C 4.33333,268.5 4.33333,158.5 5,48.5C 8.47856,29.8593 19.3119,18.1926 37.5,13.5 Z M 41.5,25.5 C 184.167,25.3333 326.834,25.5 469.5,26C 481.344,28.1735 489.177,35.0068 493,46.5C 493.5,64.4969 493.667,82.4969 493.5,100.5C 334.833,100.5 176.167,100.5 17.5,100.5C 17.3334,82.4969 17.5001,64.4969 18,46.5C 21.9952,34.995 29.8285,27.995 41.5,25.5 Z M 66.5,51.5 C 78.9087,52.7289 82.742,59.0623 78,70.5C 71.3799,76.0617 65.0466,75.7284 59,69.5C 55.7711,60.9709 58.2711,54.9709 66.5,51.5 Z M 129.5,51.5 C 140.321,51.4879 144.821,56.8212 143,67.5C 138.377,74.9397 132.211,76.4397 124.5,72C 118.269,63.1993 119.936,56.3659 129.5,51.5 Z M 192.5,51.5 C 204.897,52.0355 209.063,58.0355 205,69.5C 195.133,77.6122 187.966,75.6122 183.5,63.5C 184.278,57.7351 187.278,53.7351 192.5,51.5 Z M 335.5,51.5 C 371.835,51.3333 408.168,51.5 444.5,52C 452.864,55.2345 455.364,61.0678 452,69.5C 450.457,71.3783 448.624,72.8783 446.5,74C 409.167,74.6667 371.833,74.6667 334.5,74C 327.438,70.4887 325.272,64.9887 328,57.5C 330.134,54.8474 332.634,52.8474 335.5,51.5 Z M 17.5,113.5 C 176.167,113.5 334.833,113.5 493.5,113.5C 493.99,203.544 493.49,293.544 492,383.5C 488.345,391.822 482.178,397.322 473.5,400C 455.196,401.11 436.862,401.61 418.5,401.5C 402.833,401.167 387.167,400.833 371.5,400.5C 376.027,391.916 379.36,382.916 381.5,373.5C 390.839,373.666 400.173,373.5 409.5,373C 410.333,372.167 411.167,371.333 412,370.5C 412.667,350.5 412.667,330.5 412,310.5C 411.167,309.667 410.333,308.833 409.5,308C 400.173,307.5 390.839,307.334 381.5,307.5C 378.578,295.982 374.245,284.982 368.5,274.5C 374.485,268.014 380.652,261.681 387,255.5C 387.706,253.029 387.373,250.695 386,248.5C 372.805,234.971 359.305,221.804 345.5,209C 343.365,208.365 341.365,208.699 339.5,210C 333.652,216.015 327.652,221.848 321.5,227.5C 311.018,221.755 300.018,217.422 288.5,214.5C 288.666,205.161 288.5,195.827 288,186.5C 287.167,185.667 286.333,184.833 285.5,184C 265.5,183.333 245.5,183.333 225.5,184C 224.667,184.833 223.833,185.667 223,186.5C 222.5,195.827 222.334,205.161 222.5,214.5C 210.841,217.055 199.841,221.388 189.5,227.5C 183.014,221.515 176.681,215.348 170.5,209C 168.5,208.333 166.5,208.333 164.5,209C 150.637,222.529 137.137,236.362 124,250.5C 123.365,252.635 123.699,254.635 125,256.5C 131.015,262.348 136.848,268.348 142.5,274.5C 136.39,284.835 132.057,295.835 129.5,307.5C 120.161,307.334 110.827,307.5 101.5,308C 100.667,308.833 99.8333,309.667 99,310.5C 98.3333,330.5 98.3333,350.5 99,370.5C 99.9025,371.701 101.069,372.535 102.5,373C 111.494,373.5 120.494,373.666 129.5,373.5C 131.643,382.927 134.976,391.927 139.5,400.5C 123.833,400.833 108.167,401.167 92.5,401.5C 74.1377,401.61 55.8044,401.11 37.5,400C 28.8215,397.322 22.6549,391.822 19,383.5C 17.5101,293.544 17.0101,203.544 17.5,113.5 Z M 234.5,195.5 C 248.5,195.5 262.5,195.5 276.5,195.5C 276.334,204.506 276.5,213.506 277,222.5C 282.474,225.438 288.307,227.605 294.5,229C 303.936,232.805 313.103,236.972 322,241.5C 323.967,241.458 325.801,240.958 327.5,240C 332.5,235 337.5,230 342.5,225C 343.167,224.333 343.833,224.333 344.5,225C 353.681,234.014 362.681,243.181 371.5,252.5C 366.182,258.319 360.682,263.985 355,269.5C 354.727,271.101 354.227,272.601 353.5,274C 361.701,287.577 367.868,302.077 372,317.5C 372.5,318 373,318.5 373.5,319C 382.494,319.5 391.494,319.666 400.5,319.5C 400.5,333.5 400.5,347.5 400.5,361.5C 391.494,361.334 382.494,361.5 373.5,362C 370.562,367.474 368.395,373.307 367,379.5C 363.195,388.936 359.028,398.103 354.5,407C 354.542,408.967 355.042,410.801 356,412.5C 361,417.5 366,422.5 371,427.5C 371.667,428.167 371.667,428.833 371,429.5C 361.986,438.681 352.819,447.681 343.5,456.5C 337.681,451.182 332.015,445.682 326.5,440C 325,439.5 323.5,439 322,438.5C 308.482,446.841 293.982,452.841 278.5,456.5C 277.808,457.025 277.308,457.692 277,458.5C 276.5,467.494 276.334,476.494 276.5,485.5C 262.5,485.5 248.5,485.5 234.5,485.5C 234.666,476.494 234.5,467.494 234,458.5C 228.526,455.562 222.693,453.395 216.5,452C 207.064,448.195 197.897,444.028 189,439.5C 187.033,439.542 185.199,440.042 183.5,441C 178.5,446 173.5,451 168.5,456C 167.833,456.667 167.167,456.667 166.5,456C 157.319,446.986 148.319,437.819 139.5,428.5C 144.485,423.015 149.652,417.681 155,412.5C 156.457,409.634 156.79,406.634 156,403.5C 148.201,391.112 142.534,377.779 139,363.5C 138.5,363 138,362.5 137.5,362C 128.506,361.5 119.506,361.334 110.5,361.5C 110.5,347.5 110.5,333.5 110.5,319.5C 119.506,319.666 128.506,319.5 137.5,319C 140.438,313.526 142.605,307.693 144,301.5C 147.805,292.064 151.972,282.897 156.5,274C 156.458,272.033 155.958,270.199 155,268.5C 150,263.5 145,258.5 140,253.5C 139.333,252.833 139.333,252.167 140,251.5C 149.014,242.319 158.181,233.319 167.5,224.5C 172.985,229.485 178.319,234.652 183.5,240C 186.366,241.457 189.366,241.79 192.5,241C 204.888,233.201 218.221,227.534 232.5,224C 233,223.5 233.5,223 234,222.5C 234.5,213.506 234.666,204.506 234.5,195.5 Z M 247.5,257.5 C 292.875,257.06 322.375,278.393 336,321.5C 343.11,365.688 326.61,397.522 286.5,417C 249.928,429.482 218.428,421.649 192,393.5C 166.411,358.759 166.078,323.759 191,288.5C 205.955,270.942 224.789,260.609 247.5,257.5 Z M 253.5,293.5 C 282.56,295.893 298.893,311.559 302.5,340.5C 300.278,364.47 287.611,379.636 264.5,386C 231.787,388.141 213.12,372.975 208.5,340.5C 211.685,313.318 226.685,297.652 253.5,293.5 Z"/></g>
<g><path style="opacity:0.905" fill="#000000" d="M 62.5,39.5 C 75.4339,37.3841 84.9339,42.0507 91,53.5C 95.4042,67.1637 91.5709,77.6637 79.5,85C 60.0886,90.4196 48.4219,83.2529 44.5,63.5C 45.6884,51.6738 51.6884,43.6738 62.5,39.5 Z M 66.5,51.5 C 58.2711,54.9709 55.7711,60.9709 59,69.5C 65.0466,75.7284 71.3799,76.0617 78,70.5C 82.742,59.0623 78.9087,52.7289 66.5,51.5 Z"/></g>
<g><path style="opacity:0.903" fill="#000000" d="M 125.5,39.5 C 148.382,38.31 158.216,48.9767 155,71.5C 147.134,86.7461 135.301,90.9128 119.5,84C 107.867,74.6114 105.367,63.1114 112,49.5C 115.579,44.7307 120.079,41.3974 125.5,39.5 Z M 129.5,51.5 C 119.936,56.3659 118.269,63.1993 124.5,72C 132.211,76.4397 138.377,74.9397 143,67.5C 144.821,56.8212 140.321,51.4879 129.5,51.5 Z"/></g>
<g><path style="opacity:0.902" fill="#000000" d="M 189.5,39.5 C 210.105,38.2715 219.938,47.9382 219,68.5C 214.818,82.0116 205.651,88.1783 191.5,87C 176.611,82.7234 170.111,72.8901 172,57.5C 174.71,48.292 180.543,42.292 189.5,39.5 Z M 192.5,51.5 C 187.278,53.7351 184.278,57.7351 183.5,63.5C 187.966,75.6122 195.133,77.6122 205,69.5C 209.063,58.0355 204.897,52.0355 192.5,51.5 Z"/></g>
<g><path style="opacity:0.91" fill="#000000" d="M 331.5,39.5 C 370.501,39.3333 409.501,39.5 448.5,40C 460.947,44.3781 466.78,53.2114 466,66.5C 463.833,78 457,84.8333 445.5,87C 408.5,87.6667 371.5,87.6667 334.5,87C 318.844,82.8814 312.344,72.7147 315,56.5C 318.019,48.3156 323.519,42.649 331.5,39.5 Z M 335.5,51.5 C 332.634,52.8474 330.134,54.8474 328,57.5C 325.272,64.9887 327.438,70.4887 334.5,74C 371.833,74.6667 409.167,74.6667 446.5,74C 448.624,72.8783 450.457,71.3783 452,69.5C 455.364,61.0678 452.864,55.2345 444.5,52C 408.168,51.5 371.835,51.3333 335.5,51.5 Z"/></g>
<g><path style="opacity:0.867" fill="#000000" d="M 49.5,141.5 C 65.1702,141.333 80.8369,141.5 96.5,142C 101.485,143.65 102.985,146.817 101,151.5C 100.097,152.701 98.9308,153.535 97.5,154C 81.1667,154.667 64.8333,154.667 48.5,154C 44.7084,151.947 43.5418,148.781 45,144.5C 46.4087,143.219 47.9087,142.219 49.5,141.5 Z"/></g>
<g><path style="opacity:0.928" fill="#000000" d="M 46.5,171.5 C 64.1698,171.333 81.8365,171.5 99.5,172C 103.684,176.001 103.351,179.668 98.5,183C 81.5,183.667 64.5,183.667 47.5,183C 43.92,179.442 43.5866,175.609 46.5,171.5 Z"/></g>
<g><path style="opacity:0.905" fill="#000000" d="M 244.5,245.5 C 293.777,243.372 327.611,265.039 346,310.5C 358.232,358.169 344.065,395.669 303.5,423C 265.244,442.188 228.91,439.188 194.5,414C 163.763,385.565 153.93,351.065 165,310.5C 179.126,273.541 205.626,251.875 244.5,245.5 Z M 247.5,257.5 C 224.789,260.609 205.955,270.942 191,288.5C 166.078,323.759 166.411,358.759 192,393.5C 218.428,421.649 249.928,429.482 286.5,417C 326.61,397.522 343.11,365.688 336,321.5C 322.375,278.393 292.875,257.06 247.5,257.5 Z M 253.5,293.5 C 226.685,297.652 211.685,313.318 208.5,340.5C 213.12,372.975 231.787,388.141 264.5,386C 287.611,379.636 300.278,364.47 302.5,340.5C 298.893,311.559 282.56,295.893 253.5,293.5 Z"/></g>
<g><path style="opacity:0.902" fill="#000000" d="M 247.5,281.5 C 283.707,280.339 305.874,297.339 314,332.5C 315.891,364.238 302.057,385.738 272.5,397C 247.958,403.151 227.125,396.984 210,378.5C 192.392,353.755 192.059,328.755 209,303.5C 219.328,291.592 232.161,284.258 247.5,281.5 Z M 253.5,293.5 C 226.685,297.652 211.685,313.318 208.5,340.5C 213.12,372.975 231.787,388.141 264.5,386C 287.611,379.636 300.278,364.47 302.5,340.5C 298.893,311.559 282.56,295.893 253.5,293.5 Z"/></g>
<g><path style="opacity:0.889" fill="#000000" d="M 276.5,320.5 C 284.049,321.93 285.882,325.93 282,332.5C 271.137,343.697 259.971,354.53 248.5,365C 245.697,365.755 243.03,365.422 240.5,364C 234.673,359.184 230.006,353.517 226.5,347C 227.953,341.861 231.287,340.194 236.5,342C 239.349,345.016 242.349,347.85 245.5,350.5C 255.881,340.451 266.214,330.451 276.5,320.5 Z"/></g>
</svg>
