<?xml version="1.0" encoding="UTF-8"?>
<!DOCTYPE svg PUBLIC "-//W3C//DTD SVG 1.1//EN" "http://www.w3.org/Graphics/SVG/1.1/DTD/svg11.dtd">
<svg xmlns="http://www.w3.org/2000/svg" version="1.1" width="512px" height="512px" style="shape-rendering:geometricPrecision; text-rendering:geometricPrecision; image-rendering:optimizeQuality; fill-rule:evenodd; clip-rule:evenodd" xmlns:xlink="http://www.w3.org/1999/xlink">
<g><path style="opacity:0.979" fill="#253137" d="M 233.5,15.5 C 333.154,10.9045 409.654,50.2378 463,133.5C 495.708,191.458 504.041,252.792 488,317.5C 462.935,402.231 408.435,458.398 324.5,486C 254.418,505.44 188.418,496.274 126.5,458.5C 97.3696,467.932 68.2029,477.266 39,486.5C 31.5259,485.23 28.8592,480.896 31,473.5C 40.172,446.65 49.3387,419.817 58.5,393C 21.9599,339.99 8.4599,281.49 18,217.5C 26.8153,165.03 49.982,120.197 87.5,83C 96.7121,78.6131 101.545,81.4464 102,91.5C 98.0787,97.4255 93.412,102.759 88,107.5C 36.248,169.532 20.5813,239.865 41,318.5C 48.6428,343.119 59.9762,365.786 75,386.5C 75.6012,388.137 76.1012,389.803 76.5,391.5C 68.33,415.84 60.4967,440.173 53,464.5C 77.7901,455.904 102.79,447.904 128,440.5C 142.416,448.625 157.249,456.125 172.5,463C 257.143,493.171 334.143,479.838 403.5,423C 465.587,364.403 489.087,292.903 474,208.5C 456.065,134.569 412.565,81.7358 343.5,50C 280.487,24.6137 218.154,26.2803 156.5,55C 146.855,56.0207 143.355,51.854 146,42.5C 149.081,39.7069 152.581,37.5403 156.5,36C 181.239,25.2338 206.905,18.4005 233.5,15.5 Z M 157.5,136.5 C 163.842,136.334 170.175,136.5 176.5,137C 185.933,156.619 194.599,176.619 202.5,197C 198.325,204.821 192.825,211.654 186,217.5C 179.57,224.126 177.904,231.793 181,240.5C 204.419,282.252 238.585,311.418 283.5,328C 290.425,329.344 296.759,328.01 302.5,324C 309.767,316.069 316.267,307.569 322,298.5C 323.439,296.552 325.272,295.219 327.5,294.5C 346.647,302.908 365.647,311.574 384.5,320.5C 384.271,330.145 382.438,339.478 379,348.5C 370.85,359.845 360.016,367.679 346.5,372C 331.333,375.658 316.333,374.991 301.5,370C 255.589,357.472 216.756,333.639 185,298.5C 168.628,280.083 153.962,260.417 141,239.5C 132.533,224.765 127.699,208.932 126.5,192C 126.669,170.998 134.669,153.664 150.5,140C 152.925,138.787 155.259,137.621 157.5,136.5 Z"/></g>
<g><path style="opacity:0.974" fill="#263137" d="M 115.5,55.5 C 126.86,54.71 130.193,59.5434 125.5,70C 114.964,73.997 110.464,70.497 112,59.5C 112.69,57.6498 113.856,56.3164 115.5,55.5 Z"/></g>
<g><path style="opacity:0.98" fill="#253137" d="M 155.5,119.5 C 164.9,119.114 174.234,119.614 183.5,121C 187.612,122.779 190.778,125.612 193,129.5C 201.333,149.167 209.667,168.833 218,188.5C 220.435,195.813 219.769,202.813 216,209.5C 209.688,217.313 203.188,224.98 196.5,232.5C 217.317,270.158 247.817,296.491 288,311.5C 291.19,310.325 293.857,308.325 296,305.5C 301.468,297.399 307.301,289.566 313.5,282C 319.199,277.871 325.532,276.538 332.5,278C 352.741,286.787 372.741,296.12 392.5,306C 399.468,309.936 402.468,315.936 401.5,324C 401.33,353.488 387.663,373.821 360.5,385C 340.118,392.926 319.451,393.593 298.5,387C 258.955,376.401 223.955,357.734 193.5,331C 167.89,307.411 146.057,280.911 128,251.5C 118.416,235.415 112.416,218.081 110,199.5C 107.468,168.046 118.635,142.879 143.5,124C 147.571,122.37 151.571,120.87 155.5,119.5 Z M 157.5,136.5 C 155.259,137.621 152.925,138.787 150.5,140C 134.669,153.664 126.669,170.998 126.5,192C 127.699,208.932 132.533,224.765 141,239.5C 153.962,260.417 168.628,280.083 185,298.5C 216.756,333.639 255.589,357.472 301.5,370C 316.333,374.991 331.333,375.658 346.5,372C 360.016,367.679 370.85,359.845 379,348.5C 382.438,339.478 384.271,330.145 384.5,320.5C 365.647,311.574 346.647,302.908 327.5,294.5C 325.272,295.219 323.439,296.552 322,298.5C 316.267,307.569 309.767,316.069 302.5,324C 296.759,328.01 290.425,329.344 283.5,328C 238.585,311.418 204.419,282.252 181,240.5C 177.904,231.793 179.57,224.126 186,217.5C 192.825,211.654 198.325,204.821 202.5,197C 194.599,176.619 185.933,156.619 176.5,137C 170.175,136.5 163.842,136.334 157.5,136.5 Z"/></g>
</svg>
